<?xml version="1.0" encoding="utf-8" standalone="no"?>
<!DOCTYPE svg PUBLIC "-//W3C//DTD SVG 1.1//EN"
  "http://www.w3.org/Graphics/SVG/1.1/DTD/svg11.dtd">
<svg xmlns:xlink="http://www.w3.org/1999/xlink" width="516.6pt" height="302.688pt" viewBox="0 0 516.6 302.688" xmlns="http://www.w3.org/2000/svg" version="1.1">
 <metadata>
  <rdf:RDF xmlns:dc="http://purl.org/dc/elements/1.1/" xmlns:cc="http://creativecommons.org/ns#" xmlns:rdf="http://www.w3.org/1999/02/22-rdf-syntax-ns#">
   <cc:Work>
    <dc:type rdf:resource="http://purl.org/dc/dcmitype/StillImage"/>
    <dc:date>2026-05-22T07:34:40.655798</dc:date>
    <dc:format>image/svg+xml</dc:format>
    <dc:creator>
     <cc:Agent>
      <dc:title>Matplotlib v3.10.9, https://matplotlib.org/</dc:title>
     </cc:Agent>
    </dc:creator>
   </cc:Work>
  </rdf:RDF>
 </metadata>
 <defs>
  <style type="text/css">*{stroke-linejoin: round; stroke-linecap: butt}</style>
 </defs>
 <g id="figure_1">
  <g id="patch_1">
   <path d="M 0 302.688 
L 516.6 302.688 
L 516.6 0 
L 0 0 
z
" style="fill: #ffffff"/>
  </g>
  <g id="axes_1">
   <g id="patch_2">
    <path d="M 37.332 81.578304 
L 228.168 81.578304 
Q 237.2076 81.578304 237.2076 76.38912 
L 237.2076 53.32608 
Q 237.2076 48.136896 228.168 48.136896 
L 37.332 48.136896 
Q 28.2924 48.136896 28.2924 53.32608 
L 28.2924 76.38912 
Q 28.2924 81.578304 37.332 81.578304 
z
" clip-path="url(#pca2cb71da9)" style="fill: #fff7ed; stroke: #c2410c; stroke-width: 1.2; stroke-linejoin: miter"/>
   </g>
   <g id="patch_3">
    <path d="M 288.432 81.578304 
L 479.268 81.578304 
Q 488.3076 81.578304 488.3076 76.38912 
L 488.3076 53.32608 
Q 488.3076 48.136896 479.268 48.136896 
L 288.432 48.136896 
Q 279.3924 48.136896 279.3924 53.32608 
L 279.3924 76.38912 
Q 279.3924 81.578304 288.432 81.578304 
z
" clip-path="url(#pca2cb71da9)" style="fill: #eff6ff; stroke: #1d4ed8; stroke-width: 1.2; stroke-linejoin: miter"/>
   </g>
   <g id="patch_4">
    <path d="M 230.165275 171.52416 
Q 258.297534 171.52416 284.976348 171.52416 
" clip-path="url(#pca2cb71da9)" style="fill: none; stroke: #64748b; stroke-width: 1.3; stroke-linecap: round"/>
    <path d="M 279.776348 168.92416 
L 284.976348 171.52416 
L 279.776348 174.12416 
z
" clip-path="url(#pca2cb71da9)" style="fill: #64748b; stroke: #64748b; stroke-width: 1.3; stroke-linecap: round"/>
   </g>
   <g id="line2d_1">
    <path d="M 47.376 108.389088 
L 218.124 108.389088 
" clip-path="url(#pca2cb71da9)" style="fill: none; stroke: #e2e8f0; stroke-width: 0.8; stroke-linecap: square"/>
   </g>
   <g id="line2d_2">
    <path d="M 47.376 130.010688 
L 218.124 130.010688 
" clip-path="url(#pca2cb71da9)" style="fill: none; stroke: #e2e8f0; stroke-width: 0.8; stroke-linecap: square"/>
   </g>
   <g id="line2d_3">
    <path d="M 47.376 151.632288 
L 218.124 151.632288 
" clip-path="url(#pca2cb71da9)" style="fill: none; stroke: #e2e8f0; stroke-width: 0.8; stroke-linecap: square"/>
   </g>
   <g id="line2d_4">
    <path d="M 47.376 173.253888 
L 218.124 173.253888 
" clip-path="url(#pca2cb71da9)" style="fill: none; stroke: #e2e8f0; stroke-width: 0.8; stroke-linecap: square"/>
   </g>
   <g id="line2d_5">
    <path d="M 47.376 194.875488 
L 218.124 194.875488 
" clip-path="url(#pca2cb71da9)" style="fill: none; stroke: #e2e8f0; stroke-width: 0.8; stroke-linecap: square"/>
   </g>
   <g id="line2d_6">
    <path d="M 47.376 216.497088 
L 218.124 216.497088 
" clip-path="url(#pca2cb71da9)" style="fill: none; stroke: #e2e8f0; stroke-width: 0.8; stroke-linecap: square"/>
   </g>
   <g id="line2d_7">
    <path d="M 47.376 238.118688 
L 218.124 238.118688 
" clip-path="url(#pca2cb71da9)" style="fill: none; stroke: #e2e8f0; stroke-width: 0.8; stroke-linecap: square"/>
   </g>
   <g id="line2d_8">
    <path d="M 298.476 108.389088 
L 469.224 108.389088 
" clip-path="url(#pca2cb71da9)" style="fill: none; stroke: #e2e8f0; stroke-width: 0.8; stroke-linecap: square"/>
   </g>
   <g id="line2d_9">
    <path d="M 298.476 130.010688 
L 469.224 130.010688 
" clip-path="url(#pca2cb71da9)" style="fill: none; stroke: #e2e8f0; stroke-width: 0.8; stroke-linecap: square"/>
   </g>
   <g id="line2d_10">
    <path d="M 298.476 151.632288 
L 469.224 151.632288 
" clip-path="url(#pca2cb71da9)" style="fill: none; stroke: #e2e8f0; stroke-width: 0.8; stroke-linecap: square"/>
   </g>
   <g id="line2d_11">
    <path d="M 298.476 173.253888 
L 469.224 173.253888 
" clip-path="url(#pca2cb71da9)" style="fill: none; stroke: #e2e8f0; stroke-width: 0.8; stroke-linecap: square"/>
   </g>
   <g id="line2d_12">
    <path d="M 298.476 194.875488 
L 469.224 194.875488 
" clip-path="url(#pca2cb71da9)" style="fill: none; stroke: #e2e8f0; stroke-width: 0.8; stroke-linecap: square"/>
   </g>
   <g id="line2d_13">
    <path d="M 298.476 216.497088 
L 469.224 216.497088 
" clip-path="url(#pca2cb71da9)" style="fill: none; stroke: #e2e8f0; stroke-width: 0.8; stroke-linecap: square"/>
   </g>
   <g id="text_1">
    <!-- Theory-completion gap vs operational lensing protocol -->
    <g transform="translate(57.056953 30.916566) scale(0.13 -0.13)">
     <defs>
      <path id="DejaVuSans-Bold-54" d="M 31 4666 
L 4331 4666 
L 4331 3756 
L 2784 3756 
L 2784 0 
L 1581 0 
L 1581 3756 
L 31 3756 
L 31 4666 
z
" transform="scale(0.015625)"/>
      <path id="DejaVuSans-Bold-68" d="M 4056 2131 
L 4056 0 
L 2931 0 
L 2931 347 
L 2931 1625 
Q 2931 2084 2911 2256 
Q 2891 2428 2841 2509 
Q 2775 2619 2662 2680 
Q 2550 2741 2406 2741 
Q 2056 2741 1856 2470 
Q 1656 2200 1656 1722 
L 1656 0 
L 538 0 
L 538 4863 
L 1656 4863 
L 1656 2988 
Q 1909 3294 2193 3439 
Q 2478 3584 2822 3584 
Q 3428 3584 3742 3212 
Q 4056 2841 4056 2131 
z
" transform="scale(0.015625)"/>
      <path id="DejaVuSans-Bold-65" d="M 4031 1759 
L 4031 1441 
L 1416 1441 
Q 1456 1047 1700 850 
Q 1944 653 2381 653 
Q 2734 653 3104 758 
Q 3475 863 3866 1075 
L 3866 213 
Q 3469 63 3072 -14 
Q 2675 -91 2278 -91 
Q 1328 -91 801 392 
Q 275 875 275 1747 
Q 275 2603 792 3093 
Q 1309 3584 2216 3584 
Q 3041 3584 3536 3087 
Q 4031 2591 4031 1759 
z
M 2881 2131 
Q 2881 2450 2695 2645 
Q 2509 2841 2209 2841 
Q 1884 2841 1681 2658 
Q 1478 2475 1428 2131 
L 2881 2131 
z
" transform="scale(0.015625)"/>
      <path id="DejaVuSans-Bold-6f" d="M 2203 2784 
Q 1831 2784 1636 2517 
Q 1441 2250 1441 1747 
Q 1441 1244 1636 976 
Q 1831 709 2203 709 
Q 2569 709 2762 976 
Q 2956 1244 2956 1747 
Q 2956 2250 2762 2517 
Q 2569 2784 2203 2784 
z
M 2203 3584 
Q 3106 3584 3614 3096 
Q 4122 2609 4122 1747 
Q 4122 884 3614 396 
Q 3106 -91 2203 -91 
Q 1297 -91 786 396 
Q 275 884 275 1747 
Q 275 2609 786 3096 
Q 1297 3584 2203 3584 
z
" transform="scale(0.015625)"/>
      <path id="DejaVuSans-Bold-72" d="M 3138 2547 
Q 2991 2616 2845 2648 
Q 2700 2681 2553 2681 
Q 2122 2681 1889 2404 
Q 1656 2128 1656 1613 
L 1656 0 
L 538 0 
L 538 3500 
L 1656 3500 
L 1656 2925 
Q 1872 3269 2151 3426 
Q 2431 3584 2822 3584 
Q 2878 3584 2943 3579 
Q 3009 3575 3134 3559 
L 3138 2547 
z
" transform="scale(0.015625)"/>
      <path id="DejaVuSans-Bold-79" d="M 78 3500 
L 1197 3500 
L 2138 1125 
L 2938 3500 
L 4056 3500 
L 2584 -331 
Q 2363 -916 2067 -1148 
Q 1772 -1381 1288 -1381 
L 641 -1381 
L 641 -647 
L 991 -647 
Q 1275 -647 1404 -556 
Q 1534 -466 1606 -231 
L 1638 -134 
L 78 3500 
z
" transform="scale(0.015625)"/>
      <path id="DejaVuSans-Bold-2d" d="M 347 2297 
L 2309 2297 
L 2309 1388 
L 347 1388 
L 347 2297 
z
" transform="scale(0.015625)"/>
      <path id="DejaVuSans-Bold-63" d="M 3366 3391 
L 3366 2478 
Q 3138 2634 2908 2709 
Q 2678 2784 2431 2784 
Q 1963 2784 1702 2511 
Q 1441 2238 1441 1747 
Q 1441 1256 1702 982 
Q 1963 709 2431 709 
Q 2694 709 2930 787 
Q 3166 866 3366 1019 
L 3366 103 
Q 3103 6 2833 -42 
Q 2563 -91 2291 -91 
Q 1344 -91 809 395 
Q 275 881 275 1747 
Q 275 2613 809 3098 
Q 1344 3584 2291 3584 
Q 2566 3584 2833 3536 
Q 3100 3488 3366 3391 
z
" transform="scale(0.015625)"/>
      <path id="DejaVuSans-Bold-6d" d="M 3781 2919 
Q 3994 3244 4286 3414 
Q 4578 3584 4928 3584 
Q 5531 3584 5847 3212 
Q 6163 2841 6163 2131 
L 6163 0 
L 5038 0 
L 5038 1825 
Q 5041 1866 5042 1909 
Q 5044 1953 5044 2034 
Q 5044 2406 4934 2573 
Q 4825 2741 4581 2741 
Q 4263 2741 4089 2478 
Q 3916 2216 3909 1719 
L 3909 0 
L 2784 0 
L 2784 1825 
Q 2784 2406 2684 2573 
Q 2584 2741 2328 2741 
Q 2006 2741 1831 2477 
Q 1656 2213 1656 1722 
L 1656 0 
L 531 0 
L 531 3500 
L 1656 3500 
L 1656 2988 
Q 1863 3284 2130 3434 
Q 2397 3584 2719 3584 
Q 3081 3584 3359 3409 
Q 3638 3234 3781 2919 
z
" transform="scale(0.015625)"/>
      <path id="DejaVuSans-Bold-70" d="M 1656 506 
L 1656 -1331 
L 538 -1331 
L 538 3500 
L 1656 3500 
L 1656 2988 
Q 1888 3294 2169 3439 
Q 2450 3584 2816 3584 
Q 3463 3584 3878 3070 
Q 4294 2556 4294 1747 
Q 4294 938 3878 423 
Q 3463 -91 2816 -91 
Q 2450 -91 2169 54 
Q 1888 200 1656 506 
z
M 2400 2772 
Q 2041 2772 1848 2508 
Q 1656 2244 1656 1747 
Q 1656 1250 1848 986 
Q 2041 722 2400 722 
Q 2759 722 2948 984 
Q 3138 1247 3138 1747 
Q 3138 2247 2948 2509 
Q 2759 2772 2400 2772 
z
" transform="scale(0.015625)"/>
      <path id="DejaVuSans-Bold-6c" d="M 538 4863 
L 1656 4863 
L 1656 0 
L 538 0 
L 538 4863 
z
" transform="scale(0.015625)"/>
      <path id="DejaVuSans-Bold-74" d="M 1759 4494 
L 1759 3500 
L 2913 3500 
L 2913 2700 
L 1759 2700 
L 1759 1216 
Q 1759 972 1856 886 
Q 1953 800 2241 800 
L 2816 800 
L 2816 0 
L 1856 0 
Q 1194 0 917 276 
Q 641 553 641 1216 
L 641 2700 
L 84 2700 
L 84 3500 
L 641 3500 
L 641 4494 
L 1759 4494 
z
" transform="scale(0.015625)"/>
      <path id="DejaVuSans-Bold-69" d="M 538 3500 
L 1656 3500 
L 1656 0 
L 538 0 
L 538 3500 
z
M 538 4863 
L 1656 4863 
L 1656 3950 
L 538 3950 
L 538 4863 
z
" transform="scale(0.015625)"/>
      <path id="DejaVuSans-Bold-6e" d="M 4056 2131 
L 4056 0 
L 2931 0 
L 2931 347 
L 2931 1631 
Q 2931 2084 2911 2256 
Q 2891 2428 2841 2509 
Q 2775 2619 2662 2680 
Q 2550 2741 2406 2741 
Q 2056 2741 1856 2470 
Q 1656 2200 1656 1722 
L 1656 0 
L 538 0 
L 538 3500 
L 1656 3500 
L 1656 2988 
Q 1909 3294 2193 3439 
Q 2478 3584 2822 3584 
Q 3428 3584 3742 3212 
Q 4056 2841 4056 2131 
z
" transform="scale(0.015625)"/>
      <path id="DejaVuSans-Bold-20" transform="scale(0.015625)"/>
      <path id="DejaVuSans-Bold-67" d="M 2919 594 
Q 2688 288 2409 144 
Q 2131 0 1766 0 
Q 1125 0 706 504 
Q 288 1009 288 1791 
Q 288 2575 706 3076 
Q 1125 3578 1766 3578 
Q 2131 3578 2409 3434 
Q 2688 3291 2919 2981 
L 2919 3500 
L 4044 3500 
L 4044 353 
Q 4044 -491 3511 -936 
Q 2978 -1381 1966 -1381 
Q 1638 -1381 1331 -1331 
Q 1025 -1281 716 -1178 
L 716 -306 
Q 1009 -475 1290 -558 
Q 1572 -641 1856 -641 
Q 2406 -641 2662 -400 
Q 2919 -159 2919 353 
L 2919 594 
z
M 2181 2772 
Q 1834 2772 1640 2515 
Q 1447 2259 1447 1791 
Q 1447 1309 1634 1061 
Q 1822 813 2181 813 
Q 2531 813 2725 1069 
Q 2919 1325 2919 1791 
Q 2919 2259 2725 2515 
Q 2531 2772 2181 2772 
z
" transform="scale(0.015625)"/>
      <path id="DejaVuSans-Bold-61" d="M 2106 1575 
Q 1756 1575 1579 1456 
Q 1403 1338 1403 1106 
Q 1403 894 1545 773 
Q 1688 653 1941 653 
Q 2256 653 2472 879 
Q 2688 1106 2688 1447 
L 2688 1575 
L 2106 1575 
z
M 3816 1997 
L 3816 0 
L 2688 0 
L 2688 519 
Q 2463 200 2181 54 
Q 1900 -91 1497 -91 
Q 953 -91 614 226 
Q 275 544 275 1050 
Q 275 1666 698 1953 
Q 1122 2241 2028 2241 
L 2688 2241 
L 2688 2328 
Q 2688 2594 2478 2717 
Q 2269 2841 1825 2841 
Q 1466 2841 1156 2769 
Q 847 2697 581 2553 
L 581 3406 
Q 941 3494 1303 3539 
Q 1666 3584 2028 3584 
Q 2975 3584 3395 3211 
Q 3816 2838 3816 1997 
z
" transform="scale(0.015625)"/>
      <path id="DejaVuSans-Bold-76" d="M 97 3500 
L 1216 3500 
L 2088 1081 
L 2956 3500 
L 4078 3500 
L 2700 0 
L 1472 0 
L 97 3500 
z
" transform="scale(0.015625)"/>
      <path id="DejaVuSans-Bold-73" d="M 3272 3391 
L 3272 2541 
Q 2913 2691 2578 2766 
Q 2244 2841 1947 2841 
Q 1628 2841 1473 2761 
Q 1319 2681 1319 2516 
Q 1319 2381 1436 2309 
Q 1553 2238 1856 2203 
L 2053 2175 
Q 2913 2066 3209 1816 
Q 3506 1566 3506 1031 
Q 3506 472 3093 190 
Q 2681 -91 1863 -91 
Q 1516 -91 1145 -36 
Q 775 19 384 128 
L 384 978 
Q 719 816 1070 734 
Q 1422 653 1784 653 
Q 2113 653 2278 743 
Q 2444 834 2444 1013 
Q 2444 1163 2330 1236 
Q 2216 1309 1875 1350 
L 1678 1375 
Q 931 1469 631 1722 
Q 331 1975 331 2491 
Q 331 3047 712 3315 
Q 1094 3584 1881 3584 
Q 2191 3584 2531 3537 
Q 2872 3491 3272 3391 
z
" transform="scale(0.015625)"/>
     </defs>
     <use xlink:href="#DejaVuSans-Bold-54"/>
     <use xlink:href="#DejaVuSans-Bold-68" transform="translate(68.212891 0)"/>
     <use xlink:href="#DejaVuSans-Bold-65" transform="translate(139.404297 0)"/>
     <use xlink:href="#DejaVuSans-Bold-6f" transform="translate(207.226562 0)"/>
     <use xlink:href="#DejaVuSans-Bold-72" transform="translate(275.927734 0)"/>
     <use xlink:href="#DejaVuSans-Bold-79" transform="translate(325.244141 0)"/>
     <use xlink:href="#DejaVuSans-Bold-2d" transform="translate(390.429688 0)"/>
     <use xlink:href="#DejaVuSans-Bold-63" transform="translate(431.933594 0)"/>
     <use xlink:href="#DejaVuSans-Bold-6f" transform="translate(491.210938 0)"/>
     <use xlink:href="#DejaVuSans-Bold-6d" transform="translate(559.912109 0)"/>
     <use xlink:href="#DejaVuSans-Bold-70" transform="translate(664.111328 0)"/>
     <use xlink:href="#DejaVuSans-Bold-6c" transform="translate(735.693359 0)"/>
     <use xlink:href="#DejaVuSans-Bold-65" transform="translate(769.970703 0)"/>
     <use xlink:href="#DejaVuSans-Bold-74" transform="translate(837.792969 0)"/>
     <use xlink:href="#DejaVuSans-Bold-69" transform="translate(885.595703 0)"/>
     <use xlink:href="#DejaVuSans-Bold-6f" transform="translate(919.873047 0)"/>
     <use xlink:href="#DejaVuSans-Bold-6e" transform="translate(988.574219 0)"/>
     <use xlink:href="#DejaVuSans-Bold-20" transform="translate(1059.765625 0)"/>
     <use xlink:href="#DejaVuSans-Bold-67" transform="translate(1094.580078 0)"/>
     <use xlink:href="#DejaVuSans-Bold-61" transform="translate(1166.162109 0)"/>
     <use xlink:href="#DejaVuSans-Bold-70" transform="translate(1233.642578 0)"/>
     <use xlink:href="#DejaVuSans-Bold-20" transform="translate(1305.224609 0)"/>
     <use xlink:href="#DejaVuSans-Bold-76" transform="translate(1340.039062 0)"/>
     <use xlink:href="#DejaVuSans-Bold-73" transform="translate(1405.224609 0)"/>
     <use xlink:href="#DejaVuSans-Bold-20" transform="translate(1464.746094 0)"/>
     <use xlink:href="#DejaVuSans-Bold-6f" transform="translate(1499.560547 0)"/>
     <use xlink:href="#DejaVuSans-Bold-70" transform="translate(1568.261719 0)"/>
     <use xlink:href="#DejaVuSans-Bold-65" transform="translate(1639.84375 0)"/>
     <use xlink:href="#DejaVuSans-Bold-72" transform="translate(1707.666016 0)"/>
     <use xlink:href="#DejaVuSans-Bold-61" transform="translate(1756.982422 0)"/>
     <use xlink:href="#DejaVuSans-Bold-74" transform="translate(1824.462891 0)"/>
     <use xlink:href="#DejaVuSans-Bold-69" transform="translate(1872.265625 0)"/>
     <use xlink:href="#DejaVuSans-Bold-6f" transform="translate(1906.542969 0)"/>
     <use xlink:href="#DejaVuSans-Bold-6e" transform="translate(1975.244141 0)"/>
     <use xlink:href="#DejaVuSans-Bold-61" transform="translate(2046.435547 0)"/>
     <use xlink:href="#DejaVuSans-Bold-6c" transform="translate(2113.916016 0)"/>
     <use xlink:href="#DejaVuSans-Bold-20" transform="translate(2148.193359 0)"/>
     <use xlink:href="#DejaVuSans-Bold-6c" transform="translate(2183.007812 0)"/>
     <use xlink:href="#DejaVuSans-Bold-65" transform="translate(2217.285156 0)"/>
     <use xlink:href="#DejaVuSans-Bold-6e" transform="translate(2285.107422 0)"/>
     <use xlink:href="#DejaVuSans-Bold-73" transform="translate(2356.298828 0)"/>
     <use xlink:href="#DejaVuSans-Bold-69" transform="translate(2415.820312 0)"/>
     <use xlink:href="#DejaVuSans-Bold-6e" transform="translate(2450.097656 0)"/>
     <use xlink:href="#DejaVuSans-Bold-67" transform="translate(2521.289062 0)"/>
     <use xlink:href="#DejaVuSans-Bold-20" transform="translate(2592.871094 0)"/>
     <use xlink:href="#DejaVuSans-Bold-70" transform="translate(2627.685547 0)"/>
     <use xlink:href="#DejaVuSans-Bold-72" transform="translate(2699.267578 0)"/>
     <use xlink:href="#DejaVuSans-Bold-6f" transform="translate(2748.583984 0)"/>
     <use xlink:href="#DejaVuSans-Bold-74" transform="translate(2817.285156 0)"/>
     <use xlink:href="#DejaVuSans-Bold-6f" transform="translate(2865.087891 0)"/>
     <use xlink:href="#DejaVuSans-Bold-63" transform="translate(2933.789062 0)"/>
     <use xlink:href="#DejaVuSans-Bold-6f" transform="translate(2993.066406 0)"/>
     <use xlink:href="#DejaVuSans-Bold-6c" transform="translate(3061.767578 0)"/>
    </g>
   </g>
   <g id="text_2">
    <!-- field-theory completion gates -->
    <g transform="translate(62.614766 67.479006) scale(0.095 -0.095)">
     <defs>
      <path id="DejaVuSans-66" d="M 2375 4863 
L 2375 4384 
L 1825 4384 
Q 1516 4384 1395 4259 
Q 1275 4134 1275 3809 
L 1275 3500 
L 2222 3500 
L 2222 3053 
L 1275 3053 
L 1275 0 
L 697 0 
L 697 3053 
L 147 3053 
L 147 3500 
L 697 3500 
L 697 3744 
Q 697 4328 969 4595 
Q 1241 4863 1831 4863 
L 2375 4863 
z
" transform="scale(0.015625)"/>
      <path id="DejaVuSans-69" d="M 603 3500 
L 1178 3500 
L 1178 0 
L 603 0 
L 603 3500 
z
M 603 4863 
L 1178 4863 
L 1178 4134 
L 603 4134 
L 603 4863 
z
" transform="scale(0.015625)"/>
      <path id="DejaVuSans-65" d="M 3597 1894 
L 3597 1613 
L 953 1613 
Q 991 1019 1311 708 
Q 1631 397 2203 397 
Q 2534 397 2845 478 
Q 3156 559 3463 722 
L 3463 178 
Q 3153 47 2828 -22 
Q 2503 -91 2169 -91 
Q 1331 -91 842 396 
Q 353 884 353 1716 
Q 353 2575 817 3079 
Q 1281 3584 2069 3584 
Q 2775 3584 3186 3129 
Q 3597 2675 3597 1894 
z
M 3022 2063 
Q 3016 2534 2758 2815 
Q 2500 3097 2075 3097 
Q 1594 3097 1305 2825 
Q 1016 2553 972 2059 
L 3022 2063 
z
" transform="scale(0.015625)"/>
      <path id="DejaVuSans-6c" d="M 603 4863 
L 1178 4863 
L 1178 0 
L 603 0 
L 603 4863 
z
" transform="scale(0.015625)"/>
      <path id="DejaVuSans-64" d="M 2906 2969 
L 2906 4863 
L 3481 4863 
L 3481 0 
L 2906 0 
L 2906 525 
Q 2725 213 2448 61 
Q 2172 -91 1784 -91 
Q 1150 -91 751 415 
Q 353 922 353 1747 
Q 353 2572 751 3078 
Q 1150 3584 1784 3584 
Q 2172 3584 2448 3432 
Q 2725 3281 2906 2969 
z
M 947 1747 
Q 947 1113 1208 752 
Q 1469 391 1925 391 
Q 2381 391 2643 752 
Q 2906 1113 2906 1747 
Q 2906 2381 2643 2742 
Q 2381 3103 1925 3103 
Q 1469 3103 1208 2742 
Q 947 2381 947 1747 
z
" transform="scale(0.015625)"/>
      <path id="DejaVuSans-2d" d="M 313 2009 
L 1997 2009 
L 1997 1497 
L 313 1497 
L 313 2009 
z
" transform="scale(0.015625)"/>
      <path id="DejaVuSans-74" d="M 1172 4494 
L 1172 3500 
L 2356 3500 
L 2356 3053 
L 1172 3053 
L 1172 1153 
Q 1172 725 1289 603 
Q 1406 481 1766 481 
L 2356 481 
L 2356 0 
L 1766 0 
Q 1100 0 847 248 
Q 594 497 594 1153 
L 594 3053 
L 172 3053 
L 172 3500 
L 594 3500 
L 594 4494 
L 1172 4494 
z
" transform="scale(0.015625)"/>
      <path id="DejaVuSans-68" d="M 3513 2113 
L 3513 0 
L 2938 0 
L 2938 2094 
Q 2938 2591 2744 2837 
Q 2550 3084 2163 3084 
Q 1697 3084 1428 2787 
Q 1159 2491 1159 1978 
L 1159 0 
L 581 0 
L 581 4863 
L 1159 4863 
L 1159 2956 
Q 1366 3272 1645 3428 
Q 1925 3584 2291 3584 
Q 2894 3584 3203 3211 
Q 3513 2838 3513 2113 
z
" transform="scale(0.015625)"/>
      <path id="DejaVuSans-6f" d="M 1959 3097 
Q 1497 3097 1228 2736 
Q 959 2375 959 1747 
Q 959 1119 1226 758 
Q 1494 397 1959 397 
Q 2419 397 2687 759 
Q 2956 1122 2956 1747 
Q 2956 2369 2687 2733 
Q 2419 3097 1959 3097 
z
M 1959 3584 
Q 2709 3584 3137 3096 
Q 3566 2609 3566 1747 
Q 3566 888 3137 398 
Q 2709 -91 1959 -91 
Q 1206 -91 779 398 
Q 353 888 353 1747 
Q 353 2609 779 3096 
Q 1206 3584 1959 3584 
z
" transform="scale(0.015625)"/>
      <path id="DejaVuSans-72" d="M 2631 2963 
Q 2534 3019 2420 3045 
Q 2306 3072 2169 3072 
Q 1681 3072 1420 2755 
Q 1159 2438 1159 1844 
L 1159 0 
L 581 0 
L 581 3500 
L 1159 3500 
L 1159 2956 
Q 1341 3275 1631 3429 
Q 1922 3584 2338 3584 
Q 2397 3584 2469 3576 
Q 2541 3569 2628 3553 
L 2631 2963 
z
" transform="scale(0.015625)"/>
      <path id="DejaVuSans-79" d="M 2059 -325 
Q 1816 -950 1584 -1140 
Q 1353 -1331 966 -1331 
L 506 -1331 
L 506 -850 
L 844 -850 
Q 1081 -850 1212 -737 
Q 1344 -625 1503 -206 
L 1606 56 
L 191 3500 
L 800 3500 
L 1894 763 
L 2988 3500 
L 3597 3500 
L 2059 -325 
z
" transform="scale(0.015625)"/>
      <path id="DejaVuSans-20" transform="scale(0.015625)"/>
      <path id="DejaVuSans-63" d="M 3122 3366 
L 3122 2828 
Q 2878 2963 2633 3030 
Q 2388 3097 2138 3097 
Q 1578 3097 1268 2742 
Q 959 2388 959 1747 
Q 959 1106 1268 751 
Q 1578 397 2138 397 
Q 2388 397 2633 464 
Q 2878 531 3122 666 
L 3122 134 
Q 2881 22 2623 -34 
Q 2366 -91 2075 -91 
Q 1284 -91 818 406 
Q 353 903 353 1747 
Q 353 2603 823 3093 
Q 1294 3584 2113 3584 
Q 2378 3584 2631 3529 
Q 2884 3475 3122 3366 
z
" transform="scale(0.015625)"/>
      <path id="DejaVuSans-6d" d="M 3328 2828 
Q 3544 3216 3844 3400 
Q 4144 3584 4550 3584 
Q 5097 3584 5394 3201 
Q 5691 2819 5691 2113 
L 5691 0 
L 5113 0 
L 5113 2094 
Q 5113 2597 4934 2840 
Q 4756 3084 4391 3084 
Q 3944 3084 3684 2787 
Q 3425 2491 3425 1978 
L 3425 0 
L 2847 0 
L 2847 2094 
Q 2847 2600 2669 2842 
Q 2491 3084 2119 3084 
Q 1678 3084 1418 2786 
Q 1159 2488 1159 1978 
L 1159 0 
L 581 0 
L 581 3500 
L 1159 3500 
L 1159 2956 
Q 1356 3278 1631 3431 
Q 1906 3584 2284 3584 
Q 2666 3584 2933 3390 
Q 3200 3197 3328 2828 
z
" transform="scale(0.015625)"/>
      <path id="DejaVuSans-70" d="M 1159 525 
L 1159 -1331 
L 581 -1331 
L 581 3500 
L 1159 3500 
L 1159 2969 
Q 1341 3281 1617 3432 
Q 1894 3584 2278 3584 
Q 2916 3584 3314 3078 
Q 3713 2572 3713 1747 
Q 3713 922 3314 415 
Q 2916 -91 2278 -91 
Q 1894 -91 1617 61 
Q 1341 213 1159 525 
z
M 3116 1747 
Q 3116 2381 2855 2742 
Q 2594 3103 2138 3103 
Q 1681 3103 1420 2742 
Q 1159 2381 1159 1747 
Q 1159 1113 1420 752 
Q 1681 391 2138 391 
Q 2594 391 2855 752 
Q 3116 1113 3116 1747 
z
" transform="scale(0.015625)"/>
      <path id="DejaVuSans-6e" d="M 3513 2113 
L 3513 0 
L 2938 0 
L 2938 2094 
Q 2938 2591 2744 2837 
Q 2550 3084 2163 3084 
Q 1697 3084 1428 2787 
Q 1159 2491 1159 1978 
L 1159 0 
L 581 0 
L 581 3500 
L 1159 3500 
L 1159 2956 
Q 1366 3272 1645 3428 
Q 1925 3584 2291 3584 
Q 2894 3584 3203 3211 
Q 3513 2838 3513 2113 
z
" transform="scale(0.015625)"/>
      <path id="DejaVuSans-67" d="M 2906 1791 
Q 2906 2416 2648 2759 
Q 2391 3103 1925 3103 
Q 1463 3103 1205 2759 
Q 947 2416 947 1791 
Q 947 1169 1205 825 
Q 1463 481 1925 481 
Q 2391 481 2648 825 
Q 2906 1169 2906 1791 
z
M 3481 434 
Q 3481 -459 3084 -895 
Q 2688 -1331 1869 -1331 
Q 1566 -1331 1297 -1286 
Q 1028 -1241 775 -1147 
L 775 -588 
Q 1028 -725 1275 -790 
Q 1522 -856 1778 -856 
Q 2344 -856 2625 -561 
Q 2906 -266 2906 331 
L 2906 616 
Q 2728 306 2450 153 
Q 2172 0 1784 0 
Q 1141 0 747 490 
Q 353 981 353 1791 
Q 353 2603 747 3093 
Q 1141 3584 1784 3584 
Q 2172 3584 2450 3431 
Q 2728 3278 2906 2969 
L 2906 3500 
L 3481 3500 
L 3481 434 
z
" transform="scale(0.015625)"/>
      <path id="DejaVuSans-61" d="M 2194 1759 
Q 1497 1759 1228 1600 
Q 959 1441 959 1056 
Q 959 750 1161 570 
Q 1363 391 1709 391 
Q 2188 391 2477 730 
Q 2766 1069 2766 1631 
L 2766 1759 
L 2194 1759 
z
M 3341 1997 
L 3341 0 
L 2766 0 
L 2766 531 
Q 2569 213 2275 61 
Q 1981 -91 1556 -91 
Q 1019 -91 701 211 
Q 384 513 384 1019 
Q 384 1609 779 1909 
Q 1175 2209 1959 2209 
L 2766 2209 
L 2766 2266 
Q 2766 2663 2505 2880 
Q 2244 3097 1772 3097 
Q 1472 3097 1187 3025 
Q 903 2953 641 2809 
L 641 3341 
Q 956 3463 1253 3523 
Q 1550 3584 1831 3584 
Q 2591 3584 2966 3190 
Q 3341 2797 3341 1997 
z
" transform="scale(0.015625)"/>
      <path id="DejaVuSans-73" d="M 2834 3397 
L 2834 2853 
Q 2591 2978 2328 3040 
Q 2066 3103 1784 3103 
Q 1356 3103 1142 2972 
Q 928 2841 928 2578 
Q 928 2378 1081 2264 
Q 1234 2150 1697 2047 
L 1894 2003 
Q 2506 1872 2764 1633 
Q 3022 1394 3022 966 
Q 3022 478 2636 193 
Q 2250 -91 1575 -91 
Q 1294 -91 989 -36 
Q 684 19 347 128 
L 347 722 
Q 666 556 975 473 
Q 1284 391 1588 391 
Q 1994 391 2212 530 
Q 2431 669 2431 922 
Q 2431 1156 2273 1281 
Q 2116 1406 1581 1522 
L 1381 1569 
Q 847 1681 609 1914 
Q 372 2147 372 2553 
Q 372 3047 722 3315 
Q 1072 3584 1716 3584 
Q 2034 3584 2315 3537 
Q 2597 3491 2834 3397 
z
" transform="scale(0.015625)"/>
     </defs>
     <use xlink:href="#DejaVuSans-66"/>
     <use xlink:href="#DejaVuSans-69" transform="translate(35.205078 0)"/>
     <use xlink:href="#DejaVuSans-65" transform="translate(62.988281 0)"/>
     <use xlink:href="#DejaVuSans-6c" transform="translate(124.511719 0)"/>
     <use xlink:href="#DejaVuSans-64" transform="translate(152.294922 0)"/>
     <use xlink:href="#DejaVuSans-2d" transform="translate(215.771484 0)"/>
     <use xlink:href="#DejaVuSans-74" transform="translate(251.855469 0)"/>
     <use xlink:href="#DejaVuSans-68" transform="translate(291.064453 0)"/>
     <use xlink:href="#DejaVuSans-65" transform="translate(354.443359 0)"/>
     <use xlink:href="#DejaVuSans-6f" transform="translate(415.966797 0)"/>
     <use xlink:href="#DejaVuSans-72" transform="translate(477.148438 0)"/>
     <use xlink:href="#DejaVuSans-79" transform="translate(518.261719 0)"/>
     <use xlink:href="#DejaVuSans-20" transform="translate(577.441406 0)"/>
     <use xlink:href="#DejaVuSans-63" transform="translate(609.228516 0)"/>
     <use xlink:href="#DejaVuSans-6f" transform="translate(664.208984 0)"/>
     <use xlink:href="#DejaVuSans-6d" transform="translate(725.390625 0)"/>
     <use xlink:href="#DejaVuSans-70" transform="translate(822.802734 0)"/>
     <use xlink:href="#DejaVuSans-6c" transform="translate(886.279297 0)"/>
     <use xlink:href="#DejaVuSans-65" transform="translate(914.0625 0)"/>
     <use xlink:href="#DejaVuSans-74" transform="translate(975.585938 0)"/>
     <use xlink:href="#DejaVuSans-69" transform="translate(1014.794922 0)"/>
     <use xlink:href="#DejaVuSans-6f" transform="translate(1042.578125 0)"/>
     <use xlink:href="#DejaVuSans-6e" transform="translate(1103.759766 0)"/>
     <use xlink:href="#DejaVuSans-20" transform="translate(1167.138672 0)"/>
     <use xlink:href="#DejaVuSans-67" transform="translate(1198.925781 0)"/>
     <use xlink:href="#DejaVuSans-61" transform="translate(1262.402344 0)"/>
     <use xlink:href="#DejaVuSans-74" transform="translate(1323.681641 0)"/>
     <use xlink:href="#DejaVuSans-65" transform="translate(1362.890625 0)"/>
     <use xlink:href="#DejaVuSans-73" transform="translate(1424.414062 0)"/>
    </g>
   </g>
   <g id="text_3">
    <!-- operational lensing test gates -->
    <g transform="translate(312.904297 67.479006) scale(0.095 -0.095)">
     <use xlink:href="#DejaVuSans-6f"/>
     <use xlink:href="#DejaVuSans-70" transform="translate(61.181641 0)"/>
     <use xlink:href="#DejaVuSans-65" transform="translate(124.658203 0)"/>
     <use xlink:href="#DejaVuSans-72" transform="translate(186.181641 0)"/>
     <use xlink:href="#DejaVuSans-61" transform="translate(227.294922 0)"/>
     <use xlink:href="#DejaVuSans-74" transform="translate(288.574219 0)"/>
     <use xlink:href="#DejaVuSans-69" transform="translate(327.783203 0)"/>
     <use xlink:href="#DejaVuSans-6f" transform="translate(355.566406 0)"/>
     <use xlink:href="#DejaVuSans-6e" transform="translate(416.748047 0)"/>
     <use xlink:href="#DejaVuSans-61" transform="translate(480.126953 0)"/>
     <use xlink:href="#DejaVuSans-6c" transform="translate(541.40625 0)"/>
     <use xlink:href="#DejaVuSans-20" transform="translate(569.189453 0)"/>
     <use xlink:href="#DejaVuSans-6c" transform="translate(600.976562 0)"/>
     <use xlink:href="#DejaVuSans-65" transform="translate(628.759766 0)"/>
     <use xlink:href="#DejaVuSans-6e" transform="translate(690.283203 0)"/>
     <use xlink:href="#DejaVuSans-73" transform="translate(753.662109 0)"/>
     <use xlink:href="#DejaVuSans-69" transform="translate(805.761719 0)"/>
     <use xlink:href="#DejaVuSans-6e" transform="translate(833.544922 0)"/>
     <use xlink:href="#DejaVuSans-67" transform="translate(896.923828 0)"/>
     <use xlink:href="#DejaVuSans-20" transform="translate(960.400391 0)"/>
     <use xlink:href="#DejaVuSans-74" transform="translate(992.1875 0)"/>
     <use xlink:href="#DejaVuSans-65" transform="translate(1031.396484 0)"/>
     <use xlink:href="#DejaVuSans-73" transform="translate(1092.919922 0)"/>
     <use xlink:href="#DejaVuSans-74" transform="translate(1145.019531 0)"/>
     <use xlink:href="#DejaVuSans-20" transform="translate(1184.228516 0)"/>
     <use xlink:href="#DejaVuSans-67" transform="translate(1216.015625 0)"/>
     <use xlink:href="#DejaVuSans-61" transform="translate(1279.492188 0)"/>
     <use xlink:href="#DejaVuSans-74" transform="translate(1340.771484 0)"/>
     <use xlink:href="#DejaVuSans-65" transform="translate(1379.980469 0)"/>
     <use xlink:href="#DejaVuSans-73" transform="translate(1441.503906 0)"/>
    </g>
   </g>
   <g id="text_4">
    <!-- covariant action -->
    <g transform="translate(47.376 101.990785) scale(0.092 -0.092)">
     <defs>
      <path id="DejaVuSans-76" d="M 191 3500 
L 800 3500 
L 1894 563 
L 2988 3500 
L 3597 3500 
L 2284 0 
L 1503 0 
L 191 3500 
z
" transform="scale(0.015625)"/>
     </defs>
     <use xlink:href="#DejaVuSans-63"/>
     <use xlink:href="#DejaVuSans-6f" transform="translate(54.980469 0)"/>
     <use xlink:href="#DejaVuSans-76" transform="translate(116.162109 0)"/>
     <use xlink:href="#DejaVuSans-61" transform="translate(175.341797 0)"/>
     <use xlink:href="#DejaVuSans-72" transform="translate(236.621094 0)"/>
     <use xlink:href="#DejaVuSans-69" transform="translate(277.734375 0)"/>
     <use xlink:href="#DejaVuSans-61" transform="translate(305.517578 0)"/>
     <use xlink:href="#DejaVuSans-6e" transform="translate(366.796875 0)"/>
     <use xlink:href="#DejaVuSans-74" transform="translate(430.175781 0)"/>
     <use xlink:href="#DejaVuSans-20" transform="translate(469.384766 0)"/>
     <use xlink:href="#DejaVuSans-61" transform="translate(501.171875 0)"/>
     <use xlink:href="#DejaVuSans-63" transform="translate(562.451172 0)"/>
     <use xlink:href="#DejaVuSans-74" transform="translate(617.431641 0)"/>
     <use xlink:href="#DejaVuSans-69" transform="translate(656.640625 0)"/>
     <use xlink:href="#DejaVuSans-6f" transform="translate(684.423828 0)"/>
     <use xlink:href="#DejaVuSans-6e" transform="translate(745.605469 0)"/>
    </g>
   </g>
   <g id="text_5">
    <!-- open -->
    <g style="fill: #dc2626" transform="translate(193.545875 101.88041) scale(0.088 -0.088)">
     <use xlink:href="#DejaVuSans-Bold-6f"/>
     <use xlink:href="#DejaVuSans-Bold-70" transform="translate(68.701172 0)"/>
     <use xlink:href="#DejaVuSans-Bold-65" transform="translate(140.283203 0)"/>
     <use xlink:href="#DejaVuSans-Bold-6e" transform="translate(208.105469 0)"/>
    </g>
   </g>
   <g id="text_6">
    <!-- field content -->
    <g transform="translate(47.376 123.612385) scale(0.092 -0.092)">
     <use xlink:href="#DejaVuSans-66"/>
     <use xlink:href="#DejaVuSans-69" transform="translate(35.205078 0)"/>
     <use xlink:href="#DejaVuSans-65" transform="translate(62.988281 0)"/>
     <use xlink:href="#DejaVuSans-6c" transform="translate(124.511719 0)"/>
     <use xlink:href="#DejaVuSans-64" transform="translate(152.294922 0)"/>
     <use xlink:href="#DejaVuSans-20" transform="translate(215.771484 0)"/>
     <use xlink:href="#DejaVuSans-63" transform="translate(247.558594 0)"/>
     <use xlink:href="#DejaVuSans-6f" transform="translate(302.539062 0)"/>
     <use xlink:href="#DejaVuSans-6e" transform="translate(363.720703 0)"/>
     <use xlink:href="#DejaVuSans-74" transform="translate(427.099609 0)"/>
     <use xlink:href="#DejaVuSans-65" transform="translate(466.308594 0)"/>
     <use xlink:href="#DejaVuSans-6e" transform="translate(527.832031 0)"/>
     <use xlink:href="#DejaVuSans-74" transform="translate(591.210938 0)"/>
    </g>
   </g>
   <g id="text_7">
    <!-- open -->
    <g style="fill: #dc2626" transform="translate(193.545875 123.50201) scale(0.088 -0.088)">
     <use xlink:href="#DejaVuSans-Bold-6f"/>
     <use xlink:href="#DejaVuSans-Bold-70" transform="translate(68.701172 0)"/>
     <use xlink:href="#DejaVuSans-Bold-65" transform="translate(140.283203 0)"/>
     <use xlink:href="#DejaVuSans-Bold-6e" transform="translate(208.105469 0)"/>
    </g>
   </g>
   <g id="text_8">
    <!-- covariance structure -->
    <g transform="translate(47.376 145.233985) scale(0.092 -0.092)">
     <defs>
      <path id="DejaVuSans-75" d="M 544 1381 
L 544 3500 
L 1119 3500 
L 1119 1403 
Q 1119 906 1312 657 
Q 1506 409 1894 409 
Q 2359 409 2629 706 
Q 2900 1003 2900 1516 
L 2900 3500 
L 3475 3500 
L 3475 0 
L 2900 0 
L 2900 538 
Q 2691 219 2414 64 
Q 2138 -91 1772 -91 
Q 1169 -91 856 284 
Q 544 659 544 1381 
z
M 1991 3584 
L 1991 3584 
z
" transform="scale(0.015625)"/>
     </defs>
     <use xlink:href="#DejaVuSans-63"/>
     <use xlink:href="#DejaVuSans-6f" transform="translate(54.980469 0)"/>
     <use xlink:href="#DejaVuSans-76" transform="translate(116.162109 0)"/>
     <use xlink:href="#DejaVuSans-61" transform="translate(175.341797 0)"/>
     <use xlink:href="#DejaVuSans-72" transform="translate(236.621094 0)"/>
     <use xlink:href="#DejaVuSans-69" transform="translate(277.734375 0)"/>
     <use xlink:href="#DejaVuSans-61" transform="translate(305.517578 0)"/>
     <use xlink:href="#DejaVuSans-6e" transform="translate(366.796875 0)"/>
     <use xlink:href="#DejaVuSans-63" transform="translate(430.175781 0)"/>
     <use xlink:href="#DejaVuSans-65" transform="translate(485.15625 0)"/>
     <use xlink:href="#DejaVuSans-20" transform="translate(546.679688 0)"/>
     <use xlink:href="#DejaVuSans-73" transform="translate(578.466797 0)"/>
     <use xlink:href="#DejaVuSans-74" transform="translate(630.566406 0)"/>
     <use xlink:href="#DejaVuSans-72" transform="translate(669.775391 0)"/>
     <use xlink:href="#DejaVuSans-75" transform="translate(710.888672 0)"/>
     <use xlink:href="#DejaVuSans-63" transform="translate(774.267578 0)"/>
     <use xlink:href="#DejaVuSans-74" transform="translate(829.248047 0)"/>
     <use xlink:href="#DejaVuSans-75" transform="translate(868.457031 0)"/>
     <use xlink:href="#DejaVuSans-72" transform="translate(931.835938 0)"/>
     <use xlink:href="#DejaVuSans-65" transform="translate(970.699219 0)"/>
    </g>
   </g>
   <g id="text_9">
    <!-- open -->
    <g style="fill: #dc2626" transform="translate(193.545875 145.12361) scale(0.088 -0.088)">
     <use xlink:href="#DejaVuSans-Bold-6f"/>
     <use xlink:href="#DejaVuSans-Bold-70" transform="translate(68.701172 0)"/>
     <use xlink:href="#DejaVuSans-Bold-65" transform="translate(140.283203 0)"/>
     <use xlink:href="#DejaVuSans-Bold-6e" transform="translate(208.105469 0)"/>
    </g>
   </g>
   <g id="text_10">
    <!-- symmetry -->
    <g transform="translate(47.376 166.855585) scale(0.092 -0.092)">
     <use xlink:href="#DejaVuSans-73"/>
     <use xlink:href="#DejaVuSans-79" transform="translate(52.099609 0)"/>
     <use xlink:href="#DejaVuSans-6d" transform="translate(111.279297 0)"/>
     <use xlink:href="#DejaVuSans-6d" transform="translate(208.691406 0)"/>
     <use xlink:href="#DejaVuSans-65" transform="translate(306.103516 0)"/>
     <use xlink:href="#DejaVuSans-74" transform="translate(367.626953 0)"/>
     <use xlink:href="#DejaVuSans-72" transform="translate(406.835938 0)"/>
     <use xlink:href="#DejaVuSans-79" transform="translate(447.949219 0)"/>
    </g>
   </g>
   <g id="text_11">
    <!-- open -->
    <g style="fill: #dc2626" transform="translate(193.545875 166.74521) scale(0.088 -0.088)">
     <use xlink:href="#DejaVuSans-Bold-6f"/>
     <use xlink:href="#DejaVuSans-Bold-70" transform="translate(68.701172 0)"/>
     <use xlink:href="#DejaVuSans-Bold-65" transform="translate(140.283203 0)"/>
     <use xlink:href="#DejaVuSans-Bold-6e" transform="translate(208.105469 0)"/>
    </g>
   </g>
   <g id="text_12">
    <!-- conservation relation -->
    <g transform="translate(47.376 188.477185) scale(0.092 -0.092)">
     <use xlink:href="#DejaVuSans-63"/>
     <use xlink:href="#DejaVuSans-6f" transform="translate(54.980469 0)"/>
     <use xlink:href="#DejaVuSans-6e" transform="translate(116.162109 0)"/>
     <use xlink:href="#DejaVuSans-73" transform="translate(179.541016 0)"/>
     <use xlink:href="#DejaVuSans-65" transform="translate(231.640625 0)"/>
     <use xlink:href="#DejaVuSans-72" transform="translate(293.164062 0)"/>
     <use xlink:href="#DejaVuSans-76" transform="translate(334.277344 0)"/>
     <use xlink:href="#DejaVuSans-61" transform="translate(393.457031 0)"/>
     <use xlink:href="#DejaVuSans-74" transform="translate(454.736328 0)"/>
     <use xlink:href="#DejaVuSans-69" transform="translate(493.945312 0)"/>
     <use xlink:href="#DejaVuSans-6f" transform="translate(521.728516 0)"/>
     <use xlink:href="#DejaVuSans-6e" transform="translate(582.910156 0)"/>
     <use xlink:href="#DejaVuSans-20" transform="translate(646.289062 0)"/>
     <use xlink:href="#DejaVuSans-72" transform="translate(678.076172 0)"/>
     <use xlink:href="#DejaVuSans-65" transform="translate(716.939453 0)"/>
     <use xlink:href="#DejaVuSans-6c" transform="translate(778.462891 0)"/>
     <use xlink:href="#DejaVuSans-61" transform="translate(806.246094 0)"/>
     <use xlink:href="#DejaVuSans-74" transform="translate(867.525391 0)"/>
     <use xlink:href="#DejaVuSans-69" transform="translate(906.734375 0)"/>
     <use xlink:href="#DejaVuSans-6f" transform="translate(934.517578 0)"/>
     <use xlink:href="#DejaVuSans-6e" transform="translate(995.699219 0)"/>
    </g>
   </g>
   <g id="text_13">
    <!-- open -->
    <g style="fill: #dc2626" transform="translate(193.545875 188.36681) scale(0.088 -0.088)">
     <use xlink:href="#DejaVuSans-Bold-6f"/>
     <use xlink:href="#DejaVuSans-Bold-70" transform="translate(68.701172 0)"/>
     <use xlink:href="#DejaVuSans-Bold-65" transform="translate(140.283203 0)"/>
     <use xlink:href="#DejaVuSans-Bold-6e" transform="translate(208.105469 0)"/>
    </g>
   </g>
   <g id="text_14">
    <!-- GR limit -->
    <g transform="translate(47.376 210.098785) scale(0.092 -0.092)">
     <defs>
      <path id="DejaVuSans-47" d="M 3809 666 
L 3809 1919 
L 2778 1919 
L 2778 2438 
L 4434 2438 
L 4434 434 
Q 4069 175 3628 42 
Q 3188 -91 2688 -91 
Q 1594 -91 976 548 
Q 359 1188 359 2328 
Q 359 3472 976 4111 
Q 1594 4750 2688 4750 
Q 3144 4750 3555 4637 
Q 3966 4525 4313 4306 
L 4313 3634 
Q 3963 3931 3569 4081 
Q 3175 4231 2741 4231 
Q 1884 4231 1454 3753 
Q 1025 3275 1025 2328 
Q 1025 1384 1454 906 
Q 1884 428 2741 428 
Q 3075 428 3337 486 
Q 3600 544 3809 666 
z
" transform="scale(0.015625)"/>
      <path id="DejaVuSans-52" d="M 2841 2188 
Q 3044 2119 3236 1894 
Q 3428 1669 3622 1275 
L 4263 0 
L 3584 0 
L 2988 1197 
Q 2756 1666 2539 1819 
Q 2322 1972 1947 1972 
L 1259 1972 
L 1259 0 
L 628 0 
L 628 4666 
L 2053 4666 
Q 2853 4666 3247 4331 
Q 3641 3997 3641 3322 
Q 3641 2881 3436 2590 
Q 3231 2300 2841 2188 
z
M 1259 4147 
L 1259 2491 
L 2053 2491 
Q 2509 2491 2742 2702 
Q 2975 2913 2975 3322 
Q 2975 3731 2742 3939 
Q 2509 4147 2053 4147 
L 1259 4147 
z
" transform="scale(0.015625)"/>
     </defs>
     <use xlink:href="#DejaVuSans-47"/>
     <use xlink:href="#DejaVuSans-52" transform="translate(77.490234 0)"/>
     <use xlink:href="#DejaVuSans-20" transform="translate(146.972656 0)"/>
     <use xlink:href="#DejaVuSans-6c" transform="translate(178.759766 0)"/>
     <use xlink:href="#DejaVuSans-69" transform="translate(206.542969 0)"/>
     <use xlink:href="#DejaVuSans-6d" transform="translate(234.326172 0)"/>
     <use xlink:href="#DejaVuSans-69" transform="translate(331.738281 0)"/>
     <use xlink:href="#DejaVuSans-74" transform="translate(359.521484 0)"/>
    </g>
   </g>
   <g id="text_15">
    <!-- imposed, not derived -->
    <g style="fill: #f59e0b" transform="translate(112.473125 209.98841) scale(0.088 -0.088)">
     <defs>
      <path id="DejaVuSans-Bold-64" d="M 2919 2988 
L 2919 4863 
L 4044 4863 
L 4044 0 
L 2919 0 
L 2919 506 
Q 2688 197 2409 53 
Q 2131 -91 1766 -91 
Q 1119 -91 703 423 
Q 288 938 288 1747 
Q 288 2556 703 3070 
Q 1119 3584 1766 3584 
Q 2128 3584 2408 3439 
Q 2688 3294 2919 2988 
z
M 2181 722 
Q 2541 722 2730 984 
Q 2919 1247 2919 1747 
Q 2919 2247 2730 2509 
Q 2541 2772 2181 2772 
Q 1825 2772 1636 2509 
Q 1447 2247 1447 1747 
Q 1447 1247 1636 984 
Q 1825 722 2181 722 
z
" transform="scale(0.015625)"/>
      <path id="DejaVuSans-Bold-2c" d="M 653 1209 
L 1778 1209 
L 1778 256 
L 1006 -909 
L 341 -909 
L 653 256 
L 653 1209 
z
" transform="scale(0.015625)"/>
     </defs>
     <use xlink:href="#DejaVuSans-Bold-69"/>
     <use xlink:href="#DejaVuSans-Bold-6d" transform="translate(34.277344 0)"/>
     <use xlink:href="#DejaVuSans-Bold-70" transform="translate(138.476562 0)"/>
     <use xlink:href="#DejaVuSans-Bold-6f" transform="translate(210.058594 0)"/>
     <use xlink:href="#DejaVuSans-Bold-73" transform="translate(278.759766 0)"/>
     <use xlink:href="#DejaVuSans-Bold-65" transform="translate(338.28125 0)"/>
     <use xlink:href="#DejaVuSans-Bold-64" transform="translate(406.103516 0)"/>
     <use xlink:href="#DejaVuSans-Bold-2c" transform="translate(477.685547 0)"/>
     <use xlink:href="#DejaVuSans-Bold-20" transform="translate(515.673828 0)"/>
     <use xlink:href="#DejaVuSans-Bold-6e" transform="translate(550.488281 0)"/>
     <use xlink:href="#DejaVuSans-Bold-6f" transform="translate(621.679688 0)"/>
     <use xlink:href="#DejaVuSans-Bold-74" transform="translate(690.380859 0)"/>
     <use xlink:href="#DejaVuSans-Bold-20" transform="translate(738.183594 0)"/>
     <use xlink:href="#DejaVuSans-Bold-64" transform="translate(772.998047 0)"/>
     <use xlink:href="#DejaVuSans-Bold-65" transform="translate(844.580078 0)"/>
     <use xlink:href="#DejaVuSans-Bold-72" transform="translate(912.402344 0)"/>
     <use xlink:href="#DejaVuSans-Bold-69" transform="translate(961.71875 0)"/>
     <use xlink:href="#DejaVuSans-Bold-76" transform="translate(995.996094 0)"/>
     <use xlink:href="#DejaVuSans-Bold-65" transform="translate(1061.181641 0)"/>
     <use xlink:href="#DejaVuSans-Bold-64" transform="translate(1129.003906 0)"/>
    </g>
   </g>
   <g id="text_16">
    <!-- gauge meaning -->
    <g transform="translate(47.376 231.720385) scale(0.092 -0.092)">
     <use xlink:href="#DejaVuSans-67"/>
     <use xlink:href="#DejaVuSans-61" transform="translate(63.476562 0)"/>
     <use xlink:href="#DejaVuSans-75" transform="translate(124.755859 0)"/>
     <use xlink:href="#DejaVuSans-67" transform="translate(188.134766 0)"/>
     <use xlink:href="#DejaVuSans-65" transform="translate(251.611328 0)"/>
     <use xlink:href="#DejaVuSans-20" transform="translate(313.134766 0)"/>
     <use xlink:href="#DejaVuSans-6d" transform="translate(344.921875 0)"/>
     <use xlink:href="#DejaVuSans-65" transform="translate(442.333984 0)"/>
     <use xlink:href="#DejaVuSans-61" transform="translate(503.857422 0)"/>
     <use xlink:href="#DejaVuSans-6e" transform="translate(565.136719 0)"/>
     <use xlink:href="#DejaVuSans-69" transform="translate(628.515625 0)"/>
     <use xlink:href="#DejaVuSans-6e" transform="translate(656.298828 0)"/>
     <use xlink:href="#DejaVuSans-67" transform="translate(719.677734 0)"/>
    </g>
   </g>
   <g id="text_17">
    <!-- open -->
    <g style="fill: #dc2626" transform="translate(193.545875 231.61001) scale(0.088 -0.088)">
     <use xlink:href="#DejaVuSans-Bold-6f"/>
     <use xlink:href="#DejaVuSans-Bold-70" transform="translate(68.701172 0)"/>
     <use xlink:href="#DejaVuSans-Bold-65" transform="translate(140.283203 0)"/>
     <use xlink:href="#DejaVuSans-Bold-6e" transform="translate(208.105469 0)"/>
    </g>
   </g>
   <g id="text_18">
    <!-- baseline no-T2 gate -->
    <g transform="translate(298.476 101.990785) scale(0.092 -0.092)">
     <defs>
      <path id="DejaVuSans-62" d="M 3116 1747 
Q 3116 2381 2855 2742 
Q 2594 3103 2138 3103 
Q 1681 3103 1420 2742 
Q 1159 2381 1159 1747 
Q 1159 1113 1420 752 
Q 1681 391 2138 391 
Q 2594 391 2855 752 
Q 3116 1113 3116 1747 
z
M 1159 2969 
Q 1341 3281 1617 3432 
Q 1894 3584 2278 3584 
Q 2916 3584 3314 3078 
Q 3713 2572 3713 1747 
Q 3713 922 3314 415 
Q 2916 -91 2278 -91 
Q 1894 -91 1617 61 
Q 1341 213 1159 525 
L 1159 0 
L 581 0 
L 581 4863 
L 1159 4863 
L 1159 2969 
z
" transform="scale(0.015625)"/>
      <path id="DejaVuSans-54" d="M -19 4666 
L 3928 4666 
L 3928 4134 
L 2272 4134 
L 2272 0 
L 1638 0 
L 1638 4134 
L -19 4134 
L -19 4666 
z
" transform="scale(0.015625)"/>
      <path id="DejaVuSans-32" d="M 1228 531 
L 3431 531 
L 3431 0 
L 469 0 
L 469 531 
Q 828 903 1448 1529 
Q 2069 2156 2228 2338 
Q 2531 2678 2651 2914 
Q 2772 3150 2772 3378 
Q 2772 3750 2511 3984 
Q 2250 4219 1831 4219 
Q 1534 4219 1204 4116 
Q 875 4013 500 3803 
L 500 4441 
Q 881 4594 1212 4672 
Q 1544 4750 1819 4750 
Q 2544 4750 2975 4387 
Q 3406 4025 3406 3419 
Q 3406 3131 3298 2873 
Q 3191 2616 2906 2266 
Q 2828 2175 2409 1742 
Q 1991 1309 1228 531 
z
" transform="scale(0.015625)"/>
     </defs>
     <use xlink:href="#DejaVuSans-62"/>
     <use xlink:href="#DejaVuSans-61" transform="translate(63.476562 0)"/>
     <use xlink:href="#DejaVuSans-73" transform="translate(124.755859 0)"/>
     <use xlink:href="#DejaVuSans-65" transform="translate(176.855469 0)"/>
     <use xlink:href="#DejaVuSans-6c" transform="translate(238.378906 0)"/>
     <use xlink:href="#DejaVuSans-69" transform="translate(266.162109 0)"/>
     <use xlink:href="#DejaVuSans-6e" transform="translate(293.945312 0)"/>
     <use xlink:href="#DejaVuSans-65" transform="translate(357.324219 0)"/>
     <use xlink:href="#DejaVuSans-20" transform="translate(418.847656 0)"/>
     <use xlink:href="#DejaVuSans-6e" transform="translate(450.634766 0)"/>
     <use xlink:href="#DejaVuSans-6f" transform="translate(514.013672 0)"/>
     <use xlink:href="#DejaVuSans-2d" transform="translate(577.070312 0)"/>
     <use xlink:href="#DejaVuSans-54" transform="translate(604.029297 0)"/>
     <use xlink:href="#DejaVuSans-32" transform="translate(665.113281 0)"/>
     <use xlink:href="#DejaVuSans-20" transform="translate(728.736328 0)"/>
     <use xlink:href="#DejaVuSans-67" transform="translate(760.523438 0)"/>
     <use xlink:href="#DejaVuSans-61" transform="translate(824 0)"/>
     <use xlink:href="#DejaVuSans-74" transform="translate(885.279297 0)"/>
     <use xlink:href="#DejaVuSans-65" transform="translate(924.488281 0)"/>
    </g>
   </g>
   <g id="text_19">
    <!-- required -->
    <g style="fill: #f59e0b" transform="translate(426.72825 101.88041) scale(0.088 -0.088)">
     <defs>
      <path id="DejaVuSans-Bold-71" d="M 2181 2772 
Q 1825 2772 1636 2509 
Q 1447 2247 1447 1747 
Q 1447 1247 1636 984 
Q 1825 722 2181 722 
Q 2541 722 2730 984 
Q 2919 1247 2919 1747 
Q 2919 2247 2730 2509 
Q 2541 2772 2181 2772 
z
M 2919 506 
Q 2688 197 2409 53 
Q 2131 -91 1766 -91 
Q 1119 -91 703 423 
Q 288 938 288 1747 
Q 288 2556 703 3067 
Q 1119 3578 1766 3578 
Q 2131 3578 2409 3434 
Q 2688 3291 2919 2981 
L 2919 3500 
L 4044 3500 
L 4044 -1331 
L 2919 -1331 
L 2919 506 
z
" transform="scale(0.015625)"/>
      <path id="DejaVuSans-Bold-75" d="M 500 1363 
L 500 3500 
L 1625 3500 
L 1625 3150 
Q 1625 2866 1622 2436 
Q 1619 2006 1619 1863 
Q 1619 1441 1641 1255 
Q 1663 1069 1716 984 
Q 1784 875 1895 815 
Q 2006 756 2150 756 
Q 2500 756 2700 1025 
Q 2900 1294 2900 1772 
L 2900 3500 
L 4019 3500 
L 4019 0 
L 2900 0 
L 2900 506 
Q 2647 200 2364 54 
Q 2081 -91 1741 -91 
Q 1134 -91 817 281 
Q 500 653 500 1363 
z
" transform="scale(0.015625)"/>
     </defs>
     <use xlink:href="#DejaVuSans-Bold-72"/>
     <use xlink:href="#DejaVuSans-Bold-65" transform="translate(49.316406 0)"/>
     <use xlink:href="#DejaVuSans-Bold-71" transform="translate(117.138672 0)"/>
     <use xlink:href="#DejaVuSans-Bold-75" transform="translate(188.720703 0)"/>
     <use xlink:href="#DejaVuSans-Bold-69" transform="translate(259.912109 0)"/>
     <use xlink:href="#DejaVuSans-Bold-72" transform="translate(294.189453 0)"/>
     <use xlink:href="#DejaVuSans-Bold-65" transform="translate(343.505859 0)"/>
     <use xlink:href="#DejaVuSans-Bold-64" transform="translate(411.328125 0)"/>
    </g>
   </g>
   <g id="text_20">
    <!-- T2 design vector -->
    <g transform="translate(298.476 123.612385) scale(0.092 -0.092)">
     <use xlink:href="#DejaVuSans-54"/>
     <use xlink:href="#DejaVuSans-32" transform="translate(61.083984 0)"/>
     <use xlink:href="#DejaVuSans-20" transform="translate(124.707031 0)"/>
     <use xlink:href="#DejaVuSans-64" transform="translate(156.494141 0)"/>
     <use xlink:href="#DejaVuSans-65" transform="translate(219.970703 0)"/>
     <use xlink:href="#DejaVuSans-73" transform="translate(281.494141 0)"/>
     <use xlink:href="#DejaVuSans-69" transform="translate(333.59375 0)"/>
     <use xlink:href="#DejaVuSans-67" transform="translate(361.376953 0)"/>
     <use xlink:href="#DejaVuSans-6e" transform="translate(424.853516 0)"/>
     <use xlink:href="#DejaVuSans-20" transform="translate(488.232422 0)"/>
     <use xlink:href="#DejaVuSans-76" transform="translate(520.019531 0)"/>
     <use xlink:href="#DejaVuSans-65" transform="translate(579.199219 0)"/>
     <use xlink:href="#DejaVuSans-63" transform="translate(640.722656 0)"/>
     <use xlink:href="#DejaVuSans-74" transform="translate(695.703125 0)"/>
     <use xlink:href="#DejaVuSans-6f" transform="translate(734.912109 0)"/>
     <use xlink:href="#DejaVuSans-72" transform="translate(796.09375 0)"/>
    </g>
   </g>
   <g id="text_21">
    <!-- defined -->
    <g style="fill: #16a34a" transform="translate(431.57925 123.50201) scale(0.088 -0.088)">
     <defs>
      <path id="DejaVuSans-Bold-66" d="M 2841 4863 
L 2841 4128 
L 2222 4128 
Q 1984 4128 1890 4042 
Q 1797 3956 1797 3744 
L 1797 3500 
L 2753 3500 
L 2753 2700 
L 1797 2700 
L 1797 0 
L 678 0 
L 678 2700 
L 122 2700 
L 122 3500 
L 678 3500 
L 678 3744 
Q 678 4316 997 4589 
Q 1316 4863 1984 4863 
L 2841 4863 
z
" transform="scale(0.015625)"/>
     </defs>
     <use xlink:href="#DejaVuSans-Bold-64"/>
     <use xlink:href="#DejaVuSans-Bold-65" transform="translate(71.582031 0)"/>
     <use xlink:href="#DejaVuSans-Bold-66" transform="translate(139.404297 0)"/>
     <use xlink:href="#DejaVuSans-Bold-69" transform="translate(182.910156 0)"/>
     <use xlink:href="#DejaVuSans-Bold-6e" transform="translate(217.1875 0)"/>
     <use xlink:href="#DejaVuSans-Bold-65" transform="translate(288.378906 0)"/>
     <use xlink:href="#DejaVuSans-Bold-64" transform="translate(356.201172 0)"/>
    </g>
   </g>
   <g id="text_22">
    <!-- shared epsilon_tau -->
    <g transform="translate(298.476 145.106047) scale(0.092 -0.092)">
     <defs>
      <path id="DejaVuSans-5f" d="M 3263 -1063 
L 3263 -1509 
L -63 -1509 
L -63 -1063 
L 3263 -1063 
z
" transform="scale(0.015625)"/>
     </defs>
     <use xlink:href="#DejaVuSans-73"/>
     <use xlink:href="#DejaVuSans-68" transform="translate(52.099609 0)"/>
     <use xlink:href="#DejaVuSans-61" transform="translate(115.478516 0)"/>
     <use xlink:href="#DejaVuSans-72" transform="translate(176.757812 0)"/>
     <use xlink:href="#DejaVuSans-65" transform="translate(215.621094 0)"/>
     <use xlink:href="#DejaVuSans-64" transform="translate(277.144531 0)"/>
     <use xlink:href="#DejaVuSans-20" transform="translate(340.621094 0)"/>
     <use xlink:href="#DejaVuSans-65" transform="translate(372.408203 0)"/>
     <use xlink:href="#DejaVuSans-70" transform="translate(433.931641 0)"/>
     <use xlink:href="#DejaVuSans-73" transform="translate(497.408203 0)"/>
     <use xlink:href="#DejaVuSans-69" transform="translate(549.507812 0)"/>
     <use xlink:href="#DejaVuSans-6c" transform="translate(577.291016 0)"/>
     <use xlink:href="#DejaVuSans-6f" transform="translate(605.074219 0)"/>
     <use xlink:href="#DejaVuSans-6e" transform="translate(666.255859 0)"/>
     <use xlink:href="#DejaVuSans-5f" transform="translate(729.634766 0)"/>
     <use xlink:href="#DejaVuSans-74" transform="translate(779.634766 0)"/>
     <use xlink:href="#DejaVuSans-61" transform="translate(818.84375 0)"/>
     <use xlink:href="#DejaVuSans-75" transform="translate(880.123047 0)"/>
    </g>
   </g>
   <g id="text_23">
    <!-- defined -->
    <g style="fill: #16a34a" transform="translate(431.57925 145.12361) scale(0.088 -0.088)">
     <use xlink:href="#DejaVuSans-Bold-64"/>
     <use xlink:href="#DejaVuSans-Bold-65" transform="translate(71.582031 0)"/>
     <use xlink:href="#DejaVuSans-Bold-66" transform="translate(139.404297 0)"/>
     <use xlink:href="#DejaVuSans-Bold-69" transform="translate(182.910156 0)"/>
     <use xlink:href="#DejaVuSans-Bold-6e" transform="translate(217.1875 0)"/>
     <use xlink:href="#DejaVuSans-Bold-65" transform="translate(288.378906 0)"/>
     <use xlink:href="#DejaVuSans-Bold-64" transform="translate(356.201172 0)"/>
    </g>
   </g>
   <g id="text_24">
    <!-- synthetic identifiability -->
    <g transform="translate(298.476 166.855585) scale(0.092 -0.092)">
     <use xlink:href="#DejaVuSans-73"/>
     <use xlink:href="#DejaVuSans-79" transform="translate(52.099609 0)"/>
     <use xlink:href="#DejaVuSans-6e" transform="translate(111.279297 0)"/>
     <use xlink:href="#DejaVuSans-74" transform="translate(174.658203 0)"/>
     <use xlink:href="#DejaVuSans-68" transform="translate(213.867188 0)"/>
     <use xlink:href="#DejaVuSans-65" transform="translate(277.246094 0)"/>
     <use xlink:href="#DejaVuSans-74" transform="translate(338.769531 0)"/>
     <use xlink:href="#DejaVuSans-69" transform="translate(377.978516 0)"/>
     <use xlink:href="#DejaVuSans-63" transform="translate(405.761719 0)"/>
     <use xlink:href="#DejaVuSans-20" transform="translate(460.742188 0)"/>
     <use xlink:href="#DejaVuSans-69" transform="translate(492.529297 0)"/>
     <use xlink:href="#DejaVuSans-64" transform="translate(520.3125 0)"/>
     <use xlink:href="#DejaVuSans-65" transform="translate(583.789062 0)"/>
     <use xlink:href="#DejaVuSans-6e" transform="translate(645.3125 0)"/>
     <use xlink:href="#DejaVuSans-74" transform="translate(708.691406 0)"/>
     <use xlink:href="#DejaVuSans-69" transform="translate(747.900391 0)"/>
     <use xlink:href="#DejaVuSans-66" transform="translate(775.683594 0)"/>
     <use xlink:href="#DejaVuSans-69" transform="translate(810.888672 0)"/>
     <use xlink:href="#DejaVuSans-61" transform="translate(838.671875 0)"/>
     <use xlink:href="#DejaVuSans-62" transform="translate(899.951172 0)"/>
     <use xlink:href="#DejaVuSans-69" transform="translate(963.427734 0)"/>
     <use xlink:href="#DejaVuSans-6c" transform="translate(991.210938 0)"/>
     <use xlink:href="#DejaVuSans-69" transform="translate(1018.994141 0)"/>
     <use xlink:href="#DejaVuSans-74" transform="translate(1046.777344 0)"/>
     <use xlink:href="#DejaVuSans-79" transform="translate(1085.986328 0)"/>
    </g>
   </g>
   <g id="text_25">
    <!-- passed -->
    <g style="fill: #16a34a" transform="translate(434.244 166.74521) scale(0.088 -0.088)">
     <use xlink:href="#DejaVuSans-Bold-70"/>
     <use xlink:href="#DejaVuSans-Bold-61" transform="translate(71.582031 0)"/>
     <use xlink:href="#DejaVuSans-Bold-73" transform="translate(139.0625 0)"/>
     <use xlink:href="#DejaVuSans-Bold-73" transform="translate(198.583984 0)"/>
     <use xlink:href="#DejaVuSans-Bold-65" transform="translate(258.105469 0)"/>
     <use xlink:href="#DejaVuSans-Bold-64" transform="translate(325.927734 0)"/>
    </g>
   </g>
   <g id="text_26">
    <!-- static false-positive controls -->
    <g transform="translate(298.476 188.477185) scale(0.092 -0.092)">
     <use xlink:href="#DejaVuSans-73"/>
     <use xlink:href="#DejaVuSans-74" transform="translate(52.099609 0)"/>
     <use xlink:href="#DejaVuSans-61" transform="translate(91.308594 0)"/>
     <use xlink:href="#DejaVuSans-74" transform="translate(152.587891 0)"/>
     <use xlink:href="#DejaVuSans-69" transform="translate(191.796875 0)"/>
     <use xlink:href="#DejaVuSans-63" transform="translate(219.580078 0)"/>
     <use xlink:href="#DejaVuSans-20" transform="translate(274.560547 0)"/>
     <use xlink:href="#DejaVuSans-66" transform="translate(306.347656 0)"/>
     <use xlink:href="#DejaVuSans-61" transform="translate(341.552734 0)"/>
     <use xlink:href="#DejaVuSans-6c" transform="translate(402.832031 0)"/>
     <use xlink:href="#DejaVuSans-73" transform="translate(430.615234 0)"/>
     <use xlink:href="#DejaVuSans-65" transform="translate(482.714844 0)"/>
     <use xlink:href="#DejaVuSans-2d" transform="translate(544.238281 0)"/>
     <use xlink:href="#DejaVuSans-70" transform="translate(580.322266 0)"/>
     <use xlink:href="#DejaVuSans-6f" transform="translate(643.798828 0)"/>
     <use xlink:href="#DejaVuSans-73" transform="translate(704.980469 0)"/>
     <use xlink:href="#DejaVuSans-69" transform="translate(757.080078 0)"/>
     <use xlink:href="#DejaVuSans-74" transform="translate(784.863281 0)"/>
     <use xlink:href="#DejaVuSans-69" transform="translate(824.072266 0)"/>
     <use xlink:href="#DejaVuSans-76" transform="translate(851.855469 0)"/>
     <use xlink:href="#DejaVuSans-65" transform="translate(911.035156 0)"/>
     <use xlink:href="#DejaVuSans-20" transform="translate(972.558594 0)"/>
     <use xlink:href="#DejaVuSans-63" transform="translate(1004.345703 0)"/>
     <use xlink:href="#DejaVuSans-6f" transform="translate(1059.326172 0)"/>
     <use xlink:href="#DejaVuSans-6e" transform="translate(1120.507812 0)"/>
     <use xlink:href="#DejaVuSans-74" transform="translate(1183.886719 0)"/>
     <use xlink:href="#DejaVuSans-72" transform="translate(1223.095703 0)"/>
     <use xlink:href="#DejaVuSans-6f" transform="translate(1261.958984 0)"/>
     <use xlink:href="#DejaVuSans-6c" transform="translate(1323.140625 0)"/>
     <use xlink:href="#DejaVuSans-73" transform="translate(1350.923828 0)"/>
    </g>
   </g>
   <g id="text_27">
    <!-- closed -->
    <g style="fill: #16a34a" transform="translate(437.4395 188.36681) scale(0.088 -0.088)">
     <use xlink:href="#DejaVuSans-Bold-63"/>
     <use xlink:href="#DejaVuSans-Bold-6c" transform="translate(59.277344 0)"/>
     <use xlink:href="#DejaVuSans-Bold-6f" transform="translate(93.554688 0)"/>
     <use xlink:href="#DejaVuSans-Bold-73" transform="translate(162.255859 0)"/>
     <use xlink:href="#DejaVuSans-Bold-65" transform="translate(221.777344 0)"/>
     <use xlink:href="#DejaVuSans-Bold-64" transform="translate(289.599609 0)"/>
    </g>
   </g>
   <g id="text_28">
    <!-- real-data proof -->
    <g transform="translate(298.476 210.098785) scale(0.092 -0.092)">
     <use xlink:href="#DejaVuSans-72"/>
     <use xlink:href="#DejaVuSans-65" transform="translate(38.863281 0)"/>
     <use xlink:href="#DejaVuSans-61" transform="translate(100.386719 0)"/>
     <use xlink:href="#DejaVuSans-6c" transform="translate(161.666016 0)"/>
     <use xlink:href="#DejaVuSans-2d" transform="translate(189.449219 0)"/>
     <use xlink:href="#DejaVuSans-64" transform="translate(225.533203 0)"/>
     <use xlink:href="#DejaVuSans-61" transform="translate(289.009766 0)"/>
     <use xlink:href="#DejaVuSans-74" transform="translate(350.289062 0)"/>
     <use xlink:href="#DejaVuSans-61" transform="translate(389.498047 0)"/>
     <use xlink:href="#DejaVuSans-20" transform="translate(450.777344 0)"/>
     <use xlink:href="#DejaVuSans-70" transform="translate(482.564453 0)"/>
     <use xlink:href="#DejaVuSans-72" transform="translate(546.041016 0)"/>
     <use xlink:href="#DejaVuSans-6f" transform="translate(584.904297 0)"/>
     <use xlink:href="#DejaVuSans-6f" transform="translate(646.085938 0)"/>
     <use xlink:href="#DejaVuSans-66" transform="translate(707.267578 0)"/>
    </g>
   </g>
   <g id="text_29">
    <!-- blocked -->
    <g style="fill: #dc2626" transform="translate(430.757 209.98841) scale(0.088 -0.088)">
     <defs>
      <path id="DejaVuSans-Bold-62" d="M 2400 722 
Q 2759 722 2948 984 
Q 3138 1247 3138 1747 
Q 3138 2247 2948 2509 
Q 2759 2772 2400 2772 
Q 2041 2772 1848 2508 
Q 1656 2244 1656 1747 
Q 1656 1250 1848 986 
Q 2041 722 2400 722 
z
M 1656 2988 
Q 1888 3294 2169 3439 
Q 2450 3584 2816 3584 
Q 3463 3584 3878 3070 
Q 4294 2556 4294 1747 
Q 4294 938 3878 423 
Q 3463 -91 2816 -91 
Q 2450 -91 2169 54 
Q 1888 200 1656 506 
L 1656 0 
L 538 0 
L 538 4863 
L 1656 4863 
L 1656 2988 
z
" transform="scale(0.015625)"/>
      <path id="DejaVuSans-Bold-6b" d="M 538 4863 
L 1656 4863 
L 1656 2216 
L 2944 3500 
L 4244 3500 
L 2534 1894 
L 4378 0 
L 3022 0 
L 1656 1459 
L 1656 0 
L 538 0 
L 538 4863 
z
" transform="scale(0.015625)"/>
     </defs>
     <use xlink:href="#DejaVuSans-Bold-62"/>
     <use xlink:href="#DejaVuSans-Bold-6c" transform="translate(71.582031 0)"/>
     <use xlink:href="#DejaVuSans-Bold-6f" transform="translate(105.859375 0)"/>
     <use xlink:href="#DejaVuSans-Bold-63" transform="translate(174.560547 0)"/>
     <use xlink:href="#DejaVuSans-Bold-6b" transform="translate(233.837891 0)"/>
     <use xlink:href="#DejaVuSans-Bold-65" transform="translate(297.716797 0)"/>
     <use xlink:href="#DejaVuSans-Bold-64" transform="translate(365.539062 0)"/>
    </g>
   </g>
   <g id="text_30">
    <!-- Claim boundary: the paper defines a falsifiable observer-channel test; -->
    <g transform="translate(79.999219 220.519678) scale(0.102 -0.102)">
     <defs>
      <path id="DejaVuSans-43" d="M 4122 4306 
L 4122 3641 
Q 3803 3938 3442 4084 
Q 3081 4231 2675 4231 
Q 1875 4231 1450 3742 
Q 1025 3253 1025 2328 
Q 1025 1406 1450 917 
Q 1875 428 2675 428 
Q 3081 428 3442 575 
Q 3803 722 4122 1019 
L 4122 359 
Q 3791 134 3420 21 
Q 3050 -91 2638 -91 
Q 1578 -91 968 557 
Q 359 1206 359 2328 
Q 359 3453 968 4101 
Q 1578 4750 2638 4750 
Q 3056 4750 3426 4639 
Q 3797 4528 4122 4306 
z
" transform="scale(0.015625)"/>
      <path id="DejaVuSans-3a" d="M 750 794 
L 1409 794 
L 1409 0 
L 750 0 
L 750 794 
z
M 750 3309 
L 1409 3309 
L 1409 2516 
L 750 2516 
L 750 3309 
z
" transform="scale(0.015625)"/>
      <path id="DejaVuSans-3b" d="M 750 3309 
L 1409 3309 
L 1409 2516 
L 750 2516 
L 750 3309 
z
M 750 794 
L 1409 794 
L 1409 256 
L 897 -744 
L 494 -744 
L 750 256 
L 750 794 
z
" transform="scale(0.015625)"/>
     </defs>
     <use xlink:href="#DejaVuSans-43"/>
     <use xlink:href="#DejaVuSans-6c" transform="translate(69.824219 0)"/>
     <use xlink:href="#DejaVuSans-61" transform="translate(97.607422 0)"/>
     <use xlink:href="#DejaVuSans-69" transform="translate(158.886719 0)"/>
     <use xlink:href="#DejaVuSans-6d" transform="translate(186.669922 0)"/>
     <use xlink:href="#DejaVuSans-20" transform="translate(284.082031 0)"/>
     <use xlink:href="#DejaVuSans-62" transform="translate(315.869141 0)"/>
     <use xlink:href="#DejaVuSans-6f" transform="translate(379.345703 0)"/>
     <use xlink:href="#DejaVuSans-75" transform="translate(440.527344 0)"/>
     <use xlink:href="#DejaVuSans-6e" transform="translate(503.90625 0)"/>
     <use xlink:href="#DejaVuSans-64" transform="translate(567.285156 0)"/>
     <use xlink:href="#DejaVuSans-61" transform="translate(630.761719 0)"/>
     <use xlink:href="#DejaVuSans-72" transform="translate(692.041016 0)"/>
     <use xlink:href="#DejaVuSans-79" transform="translate(733.154297 0)"/>
     <use xlink:href="#DejaVuSans-3a" transform="translate(785.083984 0)"/>
     <use xlink:href="#DejaVuSans-20" transform="translate(818.775391 0)"/>
     <use xlink:href="#DejaVuSans-74" transform="translate(850.5625 0)"/>
     <use xlink:href="#DejaVuSans-68" transform="translate(889.771484 0)"/>
     <use xlink:href="#DejaVuSans-65" transform="translate(953.150391 0)"/>
     <use xlink:href="#DejaVuSans-20" transform="translate(1014.673828 0)"/>
     <use xlink:href="#DejaVuSans-70" transform="translate(1046.460938 0)"/>
     <use xlink:href="#DejaVuSans-61" transform="translate(1109.9375 0)"/>
     <use xlink:href="#DejaVuSans-70" transform="translate(1171.216797 0)"/>
     <use xlink:href="#DejaVuSans-65" transform="translate(1234.693359 0)"/>
     <use xlink:href="#DejaVuSans-72" transform="translate(1296.216797 0)"/>
     <use xlink:href="#DejaVuSans-20" transform="translate(1337.330078 0)"/>
     <use xlink:href="#DejaVuSans-64" transform="translate(1369.117188 0)"/>
     <use xlink:href="#DejaVuSans-65" transform="translate(1432.59375 0)"/>
     <use xlink:href="#DejaVuSans-66" transform="translate(1494.117188 0)"/>
     <use xlink:href="#DejaVuSans-69" transform="translate(1529.322266 0)"/>
     <use xlink:href="#DejaVuSans-6e" transform="translate(1557.105469 0)"/>
     <use xlink:href="#DejaVuSans-65" transform="translate(1620.484375 0)"/>
     <use xlink:href="#DejaVuSans-73" transform="translate(1682.007812 0)"/>
     <use xlink:href="#DejaVuSans-20" transform="translate(1734.107422 0)"/>
     <use xlink:href="#DejaVuSans-61" transform="translate(1765.894531 0)"/>
     <use xlink:href="#DejaVuSans-20" transform="translate(1827.173828 0)"/>
     <use xlink:href="#DejaVuSans-66" transform="translate(1858.960938 0)"/>
     <use xlink:href="#DejaVuSans-61" transform="translate(1894.166016 0)"/>
     <use xlink:href="#DejaVuSans-6c" transform="translate(1955.445312 0)"/>
     <use xlink:href="#DejaVuSans-73" transform="translate(1983.228516 0)"/>
     <use xlink:href="#DejaVuSans-69" transform="translate(2035.328125 0)"/>
     <use xlink:href="#DejaVuSans-66" transform="translate(2063.111328 0)"/>
     <use xlink:href="#DejaVuSans-69" transform="translate(2098.316406 0)"/>
     <use xlink:href="#DejaVuSans-61" transform="translate(2126.099609 0)"/>
     <use xlink:href="#DejaVuSans-62" transform="translate(2187.378906 0)"/>
     <use xlink:href="#DejaVuSans-6c" transform="translate(2250.855469 0)"/>
     <use xlink:href="#DejaVuSans-65" transform="translate(2278.638672 0)"/>
     <use xlink:href="#DejaVuSans-20" transform="translate(2340.162109 0)"/>
     <use xlink:href="#DejaVuSans-6f" transform="translate(2371.949219 0)"/>
     <use xlink:href="#DejaVuSans-62" transform="translate(2433.130859 0)"/>
     <use xlink:href="#DejaVuSans-73" transform="translate(2496.607422 0)"/>
     <use xlink:href="#DejaVuSans-65" transform="translate(2548.707031 0)"/>
     <use xlink:href="#DejaVuSans-72" transform="translate(2610.230469 0)"/>
     <use xlink:href="#DejaVuSans-76" transform="translate(2651.34375 0)"/>
     <use xlink:href="#DejaVuSans-65" transform="translate(2710.523438 0)"/>
     <use xlink:href="#DejaVuSans-72" transform="translate(2772.046875 0)"/>
     <use xlink:href="#DejaVuSans-2d" transform="translate(2806.785156 0)"/>
     <use xlink:href="#DejaVuSans-63" transform="translate(2842.869141 0)"/>
     <use xlink:href="#DejaVuSans-68" transform="translate(2897.849609 0)"/>
     <use xlink:href="#DejaVuSans-61" transform="translate(2961.228516 0)"/>
     <use xlink:href="#DejaVuSans-6e" transform="translate(3022.507812 0)"/>
     <use xlink:href="#DejaVuSans-6e" transform="translate(3085.886719 0)"/>
     <use xlink:href="#DejaVuSans-65" transform="translate(3149.265625 0)"/>
     <use xlink:href="#DejaVuSans-6c" transform="translate(3210.789062 0)"/>
     <use xlink:href="#DejaVuSans-20" transform="translate(3238.572266 0)"/>
     <use xlink:href="#DejaVuSans-74" transform="translate(3270.359375 0)"/>
     <use xlink:href="#DejaVuSans-65" transform="translate(3309.568359 0)"/>
     <use xlink:href="#DejaVuSans-73" transform="translate(3371.091797 0)"/>
     <use xlink:href="#DejaVuSans-74" transform="translate(3423.191406 0)"/>
     <use xlink:href="#DejaVuSans-3b" transform="translate(3462.400391 0)"/>
    </g>
    <!-- it does not yet define a complete tau-core gravitational theory. -->
    <g transform="translate(97.657172 231.941447) scale(0.102 -0.102)">
     <defs>
      <path id="DejaVuSans-2e" d="M 684 794 
L 1344 794 
L 1344 0 
L 684 0 
L 684 794 
z
" transform="scale(0.015625)"/>
     </defs>
     <use xlink:href="#DejaVuSans-69"/>
     <use xlink:href="#DejaVuSans-74" transform="translate(27.783203 0)"/>
     <use xlink:href="#DejaVuSans-20" transform="translate(66.992188 0)"/>
     <use xlink:href="#DejaVuSans-64" transform="translate(98.779297 0)"/>
     <use xlink:href="#DejaVuSans-6f" transform="translate(162.255859 0)"/>
     <use xlink:href="#DejaVuSans-65" transform="translate(223.4375 0)"/>
     <use xlink:href="#DejaVuSans-73" transform="translate(284.960938 0)"/>
     <use xlink:href="#DejaVuSans-20" transform="translate(337.060547 0)"/>
     <use xlink:href="#DejaVuSans-6e" transform="translate(368.847656 0)"/>
     <use xlink:href="#DejaVuSans-6f" transform="translate(432.226562 0)"/>
     <use xlink:href="#DejaVuSans-74" transform="translate(493.408203 0)"/>
     <use xlink:href="#DejaVuSans-20" transform="translate(532.617188 0)"/>
     <use xlink:href="#DejaVuSans-79" transform="translate(564.404297 0)"/>
     <use xlink:href="#DejaVuSans-65" transform="translate(623.583984 0)"/>
     <use xlink:href="#DejaVuSans-74" transform="translate(685.107422 0)"/>
     <use xlink:href="#DejaVuSans-20" transform="translate(724.316406 0)"/>
     <use xlink:href="#DejaVuSans-64" transform="translate(756.103516 0)"/>
     <use xlink:href="#DejaVuSans-65" transform="translate(819.580078 0)"/>
     <use xlink:href="#DejaVuSans-66" transform="translate(881.103516 0)"/>
     <use xlink:href="#DejaVuSans-69" transform="translate(916.308594 0)"/>
     <use xlink:href="#DejaVuSans-6e" transform="translate(944.091797 0)"/>
     <use xlink:href="#DejaVuSans-65" transform="translate(1007.470703 0)"/>
     <use xlink:href="#DejaVuSans-20" transform="translate(1068.994141 0)"/>
     <use xlink:href="#DejaVuSans-61" transform="translate(1100.78125 0)"/>
     <use xlink:href="#DejaVuSans-20" transform="translate(1162.060547 0)"/>
     <use xlink:href="#DejaVuSans-63" transform="translate(1193.847656 0)"/>
     <use xlink:href="#DejaVuSans-6f" transform="translate(1248.828125 0)"/>
     <use xlink:href="#DejaVuSans-6d" transform="translate(1310.009766 0)"/>
     <use xlink:href="#DejaVuSans-70" transform="translate(1407.421875 0)"/>
     <use xlink:href="#DejaVuSans-6c" transform="translate(1470.898438 0)"/>
     <use xlink:href="#DejaVuSans-65" transform="translate(1498.681641 0)"/>
     <use xlink:href="#DejaVuSans-74" transform="translate(1560.205078 0)"/>
     <use xlink:href="#DejaVuSans-65" transform="translate(1599.414062 0)"/>
     <use xlink:href="#DejaVuSans-20" transform="translate(1660.9375 0)"/>
     <use xlink:href="#DejaVuSans-74" transform="translate(1692.724609 0)"/>
     <use xlink:href="#DejaVuSans-61" transform="translate(1731.933594 0)"/>
     <use xlink:href="#DejaVuSans-75" transform="translate(1793.212891 0)"/>
     <use xlink:href="#DejaVuSans-2d" transform="translate(1856.591797 0)"/>
     <use xlink:href="#DejaVuSans-63" transform="translate(1892.675781 0)"/>
     <use xlink:href="#DejaVuSans-6f" transform="translate(1947.65625 0)"/>
     <use xlink:href="#DejaVuSans-72" transform="translate(2008.837891 0)"/>
     <use xlink:href="#DejaVuSans-65" transform="translate(2047.701172 0)"/>
     <use xlink:href="#DejaVuSans-20" transform="translate(2109.224609 0)"/>
     <use xlink:href="#DejaVuSans-67" transform="translate(2141.011719 0)"/>
     <use xlink:href="#DejaVuSans-72" transform="translate(2204.488281 0)"/>
     <use xlink:href="#DejaVuSans-61" transform="translate(2245.601562 0)"/>
     <use xlink:href="#DejaVuSans-76" transform="translate(2306.880859 0)"/>
     <use xlink:href="#DejaVuSans-69" transform="translate(2366.060547 0)"/>
     <use xlink:href="#DejaVuSans-74" transform="translate(2393.84375 0)"/>
     <use xlink:href="#DejaVuSans-61" transform="translate(2433.052734 0)"/>
     <use xlink:href="#DejaVuSans-74" transform="translate(2494.332031 0)"/>
     <use xlink:href="#DejaVuSans-69" transform="translate(2533.541016 0)"/>
     <use xlink:href="#DejaVuSans-6f" transform="translate(2561.324219 0)"/>
     <use xlink:href="#DejaVuSans-6e" transform="translate(2622.505859 0)"/>
     <use xlink:href="#DejaVuSans-61" transform="translate(2685.884766 0)"/>
     <use xlink:href="#DejaVuSans-6c" transform="translate(2747.164062 0)"/>
     <use xlink:href="#DejaVuSans-20" transform="translate(2774.947266 0)"/>
     <use xlink:href="#DejaVuSans-74" transform="translate(2806.734375 0)"/>
     <use xlink:href="#DejaVuSans-68" transform="translate(2845.943359 0)"/>
     <use xlink:href="#DejaVuSans-65" transform="translate(2909.322266 0)"/>
     <use xlink:href="#DejaVuSans-6f" transform="translate(2970.845703 0)"/>
     <use xlink:href="#DejaVuSans-72" transform="translate(3032.027344 0)"/>
     <use xlink:href="#DejaVuSans-79" transform="translate(3073.140625 0)"/>
     <use xlink:href="#DejaVuSans-2e" transform="translate(3118.070312 0)"/>
    </g>
   </g>
  </g>
 </g>
 <defs>
  <clipPath id="pca2cb71da9">
   <rect x="7.2" y="7.2" width="502.2" height="288.288"/>
  </clipPath>
 </defs>
</svg>
