<?xml version="1.0" encoding="utf-8" standalone="no"?>
<!DOCTYPE svg PUBLIC "-//W3C//DTD SVG 1.1//EN"
  "http://www.w3.org/Graphics/SVG/1.1/DTD/svg11.dtd">
<svg xmlns:xlink="http://www.w3.org/1999/xlink" width="527.76pt" height="302.688pt" viewBox="0 0 527.76 302.688" xmlns="http://www.w3.org/2000/svg" version="1.1">
 <metadata>
  <rdf:RDF xmlns:dc="http://purl.org/dc/elements/1.1/" xmlns:cc="http://creativecommons.org/ns#" xmlns:rdf="http://www.w3.org/1999/02/22-rdf-syntax-ns#">
   <cc:Work>
    <dc:type rdf:resource="http://purl.org/dc/dcmitype/StillImage"/>
    <dc:date>2026-05-22T07:34:40.574239</dc:date>
    <dc:format>image/svg+xml</dc:format>
    <dc:creator>
     <cc:Agent>
      <dc:title>Matplotlib v3.10.9, https://matplotlib.org/</dc:title>
     </cc:Agent>
    </dc:creator>
   </cc:Work>
  </rdf:RDF>
 </metadata>
 <defs>
  <style type="text/css">*{stroke-linejoin: round; stroke-linecap: butt}</style>
 </defs>
 <g id="figure_1">
  <g id="patch_1">
   <path d="M 0 302.688 
L 527.76 302.688 
L 527.76 0 
L 0 0 
z
" style="fill: #ffffff"/>
  </g>
  <g id="axes_1">
   <g id="patch_2">
    <path d="M 48.2688 150.767424 
L 115.0056 150.767424 
Q 124.24608 150.767424 124.24608 145.57824 
L 124.24608 87.92064 
Q 124.24608 82.731456 115.0056 82.731456 
L 48.2688 82.731456 
Q 39.02832 82.731456 39.02832 87.92064 
L 39.02832 145.57824 
Q 39.02832 150.767424 48.2688 150.767424 
z
" clip-path="url(#pbc0529bad0)" style="fill: #fee2e2; stroke: #334155; stroke-width: 1.2; stroke-linejoin: miter"/>
   </g>
   <g id="patch_3">
    <path d="M 117.003142 116.74944 
Q 121.679123 116.74944 124.678053 116.74944 
" clip-path="url(#pbc0529bad0)" style="fill: none; stroke: #334155; stroke-width: 1.5; stroke-linecap: round"/>
    <path d="M 119.478053 114.14944 
L 124.678053 116.74944 
L 119.478053 119.34944 
z
" clip-path="url(#pbc0529bad0)" style="fill: #334155; stroke: #334155; stroke-width: 1.5; stroke-linecap: round"/>
   </g>
   <g id="patch_4">
    <path d="M 128.35296 150.767424 
L 195.08976 150.767424 
Q 204.33024 150.767424 204.33024 145.57824 
L 204.33024 87.92064 
Q 204.33024 82.731456 195.08976 82.731456 
L 128.35296 82.731456 
Q 119.11248 82.731456 119.11248 87.92064 
L 119.11248 145.57824 
Q 119.11248 150.767424 128.35296 150.767424 
z
" clip-path="url(#pbc0529bad0)" style="fill: #fee2e2; stroke: #334155; stroke-width: 1.2; stroke-linejoin: miter"/>
   </g>
   <g id="patch_5">
    <path d="M 197.087302 116.74944 
Q 201.763283 116.74944 204.762213 116.74944 
" clip-path="url(#pbc0529bad0)" style="fill: none; stroke: #334155; stroke-width: 1.5; stroke-linecap: round"/>
    <path d="M 199.562213 114.14944 
L 204.762213 116.74944 
L 199.562213 119.34944 
z
" clip-path="url(#pbc0529bad0)" style="fill: #334155; stroke: #334155; stroke-width: 1.5; stroke-linecap: round"/>
   </g>
   <g id="patch_6">
    <path d="M 208.43712 150.767424 
L 275.17392 150.767424 
Q 284.4144 150.767424 284.4144 145.57824 
L 284.4144 87.92064 
Q 284.4144 82.731456 275.17392 82.731456 
L 208.43712 82.731456 
Q 199.19664 82.731456 199.19664 87.92064 
L 199.19664 145.57824 
Q 199.19664 150.767424 208.43712 150.767424 
z
" clip-path="url(#pbc0529bad0)" style="fill: #dbeafe; stroke: #334155; stroke-width: 1.2; stroke-linejoin: miter"/>
   </g>
   <g id="patch_7">
    <path d="M 277.171462 116.74944 
Q 281.847443 116.74944 284.846373 116.74944 
" clip-path="url(#pbc0529bad0)" style="fill: none; stroke: #334155; stroke-width: 1.5; stroke-linecap: round"/>
    <path d="M 279.646373 114.14944 
L 284.846373 116.74944 
L 279.646373 119.34944 
z
" clip-path="url(#pbc0529bad0)" style="fill: #334155; stroke: #334155; stroke-width: 1.5; stroke-linecap: round"/>
   </g>
   <g id="patch_8">
    <path d="M 288.52128 150.767424 
L 355.25808 150.767424 
Q 364.49856 150.767424 364.49856 145.57824 
L 364.49856 87.92064 
Q 364.49856 82.731456 355.25808 82.731456 
L 288.52128 82.731456 
Q 279.2808 82.731456 279.2808 87.92064 
L 279.2808 145.57824 
Q 279.2808 150.767424 288.52128 150.767424 
z
" clip-path="url(#pbc0529bad0)" style="fill: #dcfce7; stroke: #334155; stroke-width: 1.2; stroke-linejoin: miter"/>
   </g>
   <g id="patch_9">
    <path d="M 357.255622 116.74944 
Q 361.931603 116.74944 364.930533 116.74944 
" clip-path="url(#pbc0529bad0)" style="fill: none; stroke: #334155; stroke-width: 1.5; stroke-linecap: round"/>
    <path d="M 359.730533 114.14944 
L 364.930533 116.74944 
L 359.730533 119.34944 
z
" clip-path="url(#pbc0529bad0)" style="fill: #334155; stroke: #334155; stroke-width: 1.5; stroke-linecap: round"/>
   </g>
   <g id="patch_10">
    <path d="M 368.60544 150.767424 
L 435.34224 150.767424 
Q 444.58272 150.767424 444.58272 145.57824 
L 444.58272 87.92064 
Q 444.58272 82.731456 435.34224 82.731456 
L 368.60544 82.731456 
Q 359.36496 82.731456 359.36496 87.92064 
L 359.36496 145.57824 
Q 359.36496 150.767424 368.60544 150.767424 
z
" clip-path="url(#pbc0529bad0)" style="fill: #dcfce7; stroke: #334155; stroke-width: 1.2; stroke-linejoin: miter"/>
   </g>
   <g id="patch_11">
    <path d="M 437.339782 116.74944 
Q 442.015763 116.74944 445.014693 116.74944 
" clip-path="url(#pbc0529bad0)" style="fill: none; stroke: #334155; stroke-width: 1.5; stroke-linecap: round"/>
    <path d="M 439.814693 114.14944 
L 445.014693 116.74944 
L 439.814693 119.34944 
z
" clip-path="url(#pbc0529bad0)" style="fill: #334155; stroke: #334155; stroke-width: 1.5; stroke-linecap: round"/>
   </g>
   <g id="patch_12">
    <path d="M 448.6896 150.767424 
L 515.4264 150.767424 
Q 524.66688 150.767424 524.66688 145.57824 
L 524.66688 87.92064 
Q 524.66688 82.731456 515.4264 82.731456 
L 448.6896 82.731456 
Q 439.44912 82.731456 439.44912 87.92064 
L 439.44912 145.57824 
Q 439.44912 150.767424 448.6896 150.767424 
z
" clip-path="url(#pbc0529bad0)" style="fill: #fef3c7; stroke: #334155; stroke-width: 1.2; stroke-linejoin: miter"/>
   </g>
   <g id="patch_13">
    <path d="M 166.3416 283.379904 
L 361.4184 283.379904 
Q 370.65888 283.379904 370.65888 278.19072 
L 370.65888 249.36192 
Q 370.65888 244.172736 361.4184 244.172736 
L 166.3416 244.172736 
Q 157.10112 244.172736 157.10112 249.36192 
L 157.10112 278.19072 
Q 157.10112 283.379904 166.3416 283.379904 
z
" clip-path="url(#pbc0529bad0)" style="fill: #f8fafc; stroke: #0f172a; stroke-width: 1.2; stroke-linejoin: miter"/>
   </g>
   <g id="text_1">
    <!-- public/image -->
    <g transform="translate(54.179544 114.335838) scale(0.085 -0.085)">
     <defs>
      <path id="DejaVuSans-70" d="M 1159 525 
L 1159 -1331 
L 581 -1331 
L 581 3500 
L 1159 3500 
L 1159 2969 
Q 1341 3281 1617 3432 
Q 1894 3584 2278 3584 
Q 2916 3584 3314 3078 
Q 3713 2572 3713 1747 
Q 3713 922 3314 415 
Q 2916 -91 2278 -91 
Q 1894 -91 1617 61 
Q 1341 213 1159 525 
z
M 3116 1747 
Q 3116 2381 2855 2742 
Q 2594 3103 2138 3103 
Q 1681 3103 1420 2742 
Q 1159 2381 1159 1747 
Q 1159 1113 1420 752 
Q 1681 391 2138 391 
Q 2594 391 2855 752 
Q 3116 1113 3116 1747 
z
" transform="scale(0.015625)"/>
      <path id="DejaVuSans-75" d="M 544 1381 
L 544 3500 
L 1119 3500 
L 1119 1403 
Q 1119 906 1312 657 
Q 1506 409 1894 409 
Q 2359 409 2629 706 
Q 2900 1003 2900 1516 
L 2900 3500 
L 3475 3500 
L 3475 0 
L 2900 0 
L 2900 538 
Q 2691 219 2414 64 
Q 2138 -91 1772 -91 
Q 1169 -91 856 284 
Q 544 659 544 1381 
z
M 1991 3584 
L 1991 3584 
z
" transform="scale(0.015625)"/>
      <path id="DejaVuSans-62" d="M 3116 1747 
Q 3116 2381 2855 2742 
Q 2594 3103 2138 3103 
Q 1681 3103 1420 2742 
Q 1159 2381 1159 1747 
Q 1159 1113 1420 752 
Q 1681 391 2138 391 
Q 2594 391 2855 752 
Q 3116 1113 3116 1747 
z
M 1159 2969 
Q 1341 3281 1617 3432 
Q 1894 3584 2278 3584 
Q 2916 3584 3314 3078 
Q 3713 2572 3713 1747 
Q 3713 922 3314 415 
Q 2916 -91 2278 -91 
Q 1894 -91 1617 61 
Q 1341 213 1159 525 
L 1159 0 
L 581 0 
L 581 4863 
L 1159 4863 
L 1159 2969 
z
" transform="scale(0.015625)"/>
      <path id="DejaVuSans-6c" d="M 603 4863 
L 1178 4863 
L 1178 0 
L 603 0 
L 603 4863 
z
" transform="scale(0.015625)"/>
      <path id="DejaVuSans-69" d="M 603 3500 
L 1178 3500 
L 1178 0 
L 603 0 
L 603 3500 
z
M 603 4863 
L 1178 4863 
L 1178 4134 
L 603 4134 
L 603 4863 
z
" transform="scale(0.015625)"/>
      <path id="DejaVuSans-63" d="M 3122 3366 
L 3122 2828 
Q 2878 2963 2633 3030 
Q 2388 3097 2138 3097 
Q 1578 3097 1268 2742 
Q 959 2388 959 1747 
Q 959 1106 1268 751 
Q 1578 397 2138 397 
Q 2388 397 2633 464 
Q 2878 531 3122 666 
L 3122 134 
Q 2881 22 2623 -34 
Q 2366 -91 2075 -91 
Q 1284 -91 818 406 
Q 353 903 353 1747 
Q 353 2603 823 3093 
Q 1294 3584 2113 3584 
Q 2378 3584 2631 3529 
Q 2884 3475 3122 3366 
z
" transform="scale(0.015625)"/>
      <path id="DejaVuSans-2f" d="M 1625 4666 
L 2156 4666 
L 531 -594 
L 0 -594 
L 1625 4666 
z
" transform="scale(0.015625)"/>
      <path id="DejaVuSans-6d" d="M 3328 2828 
Q 3544 3216 3844 3400 
Q 4144 3584 4550 3584 
Q 5097 3584 5394 3201 
Q 5691 2819 5691 2113 
L 5691 0 
L 5113 0 
L 5113 2094 
Q 5113 2597 4934 2840 
Q 4756 3084 4391 3084 
Q 3944 3084 3684 2787 
Q 3425 2491 3425 1978 
L 3425 0 
L 2847 0 
L 2847 2094 
Q 2847 2600 2669 2842 
Q 2491 3084 2119 3084 
Q 1678 3084 1418 2786 
Q 1159 2488 1159 1978 
L 1159 0 
L 581 0 
L 581 3500 
L 1159 3500 
L 1159 2956 
Q 1356 3278 1631 3431 
Q 1906 3584 2284 3584 
Q 2666 3584 2933 3390 
Q 3200 3197 3328 2828 
z
" transform="scale(0.015625)"/>
      <path id="DejaVuSans-61" d="M 2194 1759 
Q 1497 1759 1228 1600 
Q 959 1441 959 1056 
Q 959 750 1161 570 
Q 1363 391 1709 391 
Q 2188 391 2477 730 
Q 2766 1069 2766 1631 
L 2766 1759 
L 2194 1759 
z
M 3341 1997 
L 3341 0 
L 2766 0 
L 2766 531 
Q 2569 213 2275 61 
Q 1981 -91 1556 -91 
Q 1019 -91 701 211 
Q 384 513 384 1019 
Q 384 1609 779 1909 
Q 1175 2209 1959 2209 
L 2766 2209 
L 2766 2266 
Q 2766 2663 2505 2880 
Q 2244 3097 1772 3097 
Q 1472 3097 1187 3025 
Q 903 2953 641 2809 
L 641 3341 
Q 956 3463 1253 3523 
Q 1550 3584 1831 3584 
Q 2591 3584 2966 3190 
Q 3341 2797 3341 1997 
z
" transform="scale(0.015625)"/>
      <path id="DejaVuSans-67" d="M 2906 1791 
Q 2906 2416 2648 2759 
Q 2391 3103 1925 3103 
Q 1463 3103 1205 2759 
Q 947 2416 947 1791 
Q 947 1169 1205 825 
Q 1463 481 1925 481 
Q 2391 481 2648 825 
Q 2906 1169 2906 1791 
z
M 3481 434 
Q 3481 -459 3084 -895 
Q 2688 -1331 1869 -1331 
Q 1566 -1331 1297 -1286 
Q 1028 -1241 775 -1147 
L 775 -588 
Q 1028 -725 1275 -790 
Q 1522 -856 1778 -856 
Q 2344 -856 2625 -561 
Q 2906 -266 2906 331 
L 2906 616 
Q 2728 306 2450 153 
Q 2172 0 1784 0 
Q 1141 0 747 490 
Q 353 981 353 1791 
Q 353 2603 747 3093 
Q 1141 3584 1784 3584 
Q 2172 3584 2450 3431 
Q 2728 3278 2906 2969 
L 2906 3500 
L 3481 3500 
L 3481 434 
z
" transform="scale(0.015625)"/>
      <path id="DejaVuSans-65" d="M 3597 1894 
L 3597 1613 
L 953 1613 
Q 991 1019 1311 708 
Q 1631 397 2203 397 
Q 2534 397 2845 478 
Q 3156 559 3463 722 
L 3463 178 
Q 3153 47 2828 -22 
Q 2503 -91 2169 -91 
Q 1331 -91 842 396 
Q 353 884 353 1716 
Q 353 2575 817 3079 
Q 1281 3584 2069 3584 
Q 2775 3584 3186 3129 
Q 3597 2675 3597 1894 
z
M 3022 2063 
Q 3016 2534 2758 2815 
Q 2500 3097 2075 3097 
Q 1594 3097 1305 2825 
Q 1016 2553 972 2059 
L 3022 2063 
z
" transform="scale(0.015625)"/>
     </defs>
     <use xlink:href="#DejaVuSans-70"/>
     <use xlink:href="#DejaVuSans-75" transform="translate(63.476562 0)"/>
     <use xlink:href="#DejaVuSans-62" transform="translate(126.855469 0)"/>
     <use xlink:href="#DejaVuSans-6c" transform="translate(190.332031 0)"/>
     <use xlink:href="#DejaVuSans-69" transform="translate(218.115234 0)"/>
     <use xlink:href="#DejaVuSans-63" transform="translate(245.898438 0)"/>
     <use xlink:href="#DejaVuSans-2f" transform="translate(300.878906 0)"/>
     <use xlink:href="#DejaVuSans-69" transform="translate(334.570312 0)"/>
     <use xlink:href="#DejaVuSans-6d" transform="translate(362.353516 0)"/>
     <use xlink:href="#DejaVuSans-61" transform="translate(459.765625 0)"/>
     <use xlink:href="#DejaVuSans-67" transform="translate(521.044922 0)"/>
     <use xlink:href="#DejaVuSans-65" transform="translate(584.521484 0)"/>
    </g>
    <!-- model products -->
    <g transform="translate(48.493841 123.853979) scale(0.085 -0.085)">
     <defs>
      <path id="DejaVuSans-6f" d="M 1959 3097 
Q 1497 3097 1228 2736 
Q 959 2375 959 1747 
Q 959 1119 1226 758 
Q 1494 397 1959 397 
Q 2419 397 2687 759 
Q 2956 1122 2956 1747 
Q 2956 2369 2687 2733 
Q 2419 3097 1959 3097 
z
M 1959 3584 
Q 2709 3584 3137 3096 
Q 3566 2609 3566 1747 
Q 3566 888 3137 398 
Q 2709 -91 1959 -91 
Q 1206 -91 779 398 
Q 353 888 353 1747 
Q 353 2609 779 3096 
Q 1206 3584 1959 3584 
z
" transform="scale(0.015625)"/>
      <path id="DejaVuSans-64" d="M 2906 2969 
L 2906 4863 
L 3481 4863 
L 3481 0 
L 2906 0 
L 2906 525 
Q 2725 213 2448 61 
Q 2172 -91 1784 -91 
Q 1150 -91 751 415 
Q 353 922 353 1747 
Q 353 2572 751 3078 
Q 1150 3584 1784 3584 
Q 2172 3584 2448 3432 
Q 2725 3281 2906 2969 
z
M 947 1747 
Q 947 1113 1208 752 
Q 1469 391 1925 391 
Q 2381 391 2643 752 
Q 2906 1113 2906 1747 
Q 2906 2381 2643 2742 
Q 2381 3103 1925 3103 
Q 1469 3103 1208 2742 
Q 947 2381 947 1747 
z
" transform="scale(0.015625)"/>
      <path id="DejaVuSans-20" transform="scale(0.015625)"/>
      <path id="DejaVuSans-72" d="M 2631 2963 
Q 2534 3019 2420 3045 
Q 2306 3072 2169 3072 
Q 1681 3072 1420 2755 
Q 1159 2438 1159 1844 
L 1159 0 
L 581 0 
L 581 3500 
L 1159 3500 
L 1159 2956 
Q 1341 3275 1631 3429 
Q 1922 3584 2338 3584 
Q 2397 3584 2469 3576 
Q 2541 3569 2628 3553 
L 2631 2963 
z
" transform="scale(0.015625)"/>
      <path id="DejaVuSans-74" d="M 1172 4494 
L 1172 3500 
L 2356 3500 
L 2356 3053 
L 1172 3053 
L 1172 1153 
Q 1172 725 1289 603 
Q 1406 481 1766 481 
L 2356 481 
L 2356 0 
L 1766 0 
Q 1100 0 847 248 
Q 594 497 594 1153 
L 594 3053 
L 172 3053 
L 172 3500 
L 594 3500 
L 594 4494 
L 1172 4494 
z
" transform="scale(0.015625)"/>
      <path id="DejaVuSans-73" d="M 2834 3397 
L 2834 2853 
Q 2591 2978 2328 3040 
Q 2066 3103 1784 3103 
Q 1356 3103 1142 2972 
Q 928 2841 928 2578 
Q 928 2378 1081 2264 
Q 1234 2150 1697 2047 
L 1894 2003 
Q 2506 1872 2764 1633 
Q 3022 1394 3022 966 
Q 3022 478 2636 193 
Q 2250 -91 1575 -91 
Q 1294 -91 989 -36 
Q 684 19 347 128 
L 347 722 
Q 666 556 975 473 
Q 1284 391 1588 391 
Q 1994 391 2212 530 
Q 2431 669 2431 922 
Q 2431 1156 2273 1281 
Q 2116 1406 1581 1522 
L 1381 1569 
Q 847 1681 609 1914 
Q 372 2147 372 2553 
Q 372 3047 722 3315 
Q 1072 3584 1716 3584 
Q 2034 3584 2315 3537 
Q 2597 3491 2834 3397 
z
" transform="scale(0.015625)"/>
     </defs>
     <use xlink:href="#DejaVuSans-6d"/>
     <use xlink:href="#DejaVuSans-6f" transform="translate(97.412109 0)"/>
     <use xlink:href="#DejaVuSans-64" transform="translate(158.59375 0)"/>
     <use xlink:href="#DejaVuSans-65" transform="translate(222.070312 0)"/>
     <use xlink:href="#DejaVuSans-6c" transform="translate(283.59375 0)"/>
     <use xlink:href="#DejaVuSans-20" transform="translate(311.376953 0)"/>
     <use xlink:href="#DejaVuSans-70" transform="translate(343.164062 0)"/>
     <use xlink:href="#DejaVuSans-72" transform="translate(406.640625 0)"/>
     <use xlink:href="#DejaVuSans-6f" transform="translate(445.503906 0)"/>
     <use xlink:href="#DejaVuSans-64" transform="translate(506.685547 0)"/>
     <use xlink:href="#DejaVuSans-75" transform="translate(570.162109 0)"/>
     <use xlink:href="#DejaVuSans-63" transform="translate(633.541016 0)"/>
     <use xlink:href="#DejaVuSans-74" transform="translate(688.521484 0)"/>
     <use xlink:href="#DejaVuSans-73" transform="translate(727.730469 0)"/>
    </g>
   </g>
   <g id="text_2">
    <!-- blocked -->
    <g style="fill: #475569" transform="translate(65.394356 169.258207) scale(0.084 -0.084)">
     <defs>
      <path id="DejaVuSans-6b" d="M 581 4863 
L 1159 4863 
L 1159 1991 
L 2875 3500 
L 3609 3500 
L 1753 1863 
L 3688 0 
L 2938 0 
L 1159 1709 
L 1159 0 
L 581 0 
L 581 4863 
z
" transform="scale(0.015625)"/>
     </defs>
     <use xlink:href="#DejaVuSans-62"/>
     <use xlink:href="#DejaVuSans-6c" transform="translate(63.476562 0)"/>
     <use xlink:href="#DejaVuSans-6f" transform="translate(91.259766 0)"/>
     <use xlink:href="#DejaVuSans-63" transform="translate(152.441406 0)"/>
     <use xlink:href="#DejaVuSans-6b" transform="translate(207.421875 0)"/>
     <use xlink:href="#DejaVuSans-65" transform="translate(261.707031 0)"/>
     <use xlink:href="#DejaVuSans-64" transform="translate(323.230469 0)"/>
    </g>
   </g>
   <g id="text_3">
    <!-- no-T2 Ddt/null -->
    <g transform="translate(131.734954 114.335838) scale(0.085 -0.085)">
     <defs>
      <path id="DejaVuSans-6e" d="M 3513 2113 
L 3513 0 
L 2938 0 
L 2938 2094 
Q 2938 2591 2744 2837 
Q 2550 3084 2163 3084 
Q 1697 3084 1428 2787 
Q 1159 2491 1159 1978 
L 1159 0 
L 581 0 
L 581 3500 
L 1159 3500 
L 1159 2956 
Q 1366 3272 1645 3428 
Q 1925 3584 2291 3584 
Q 2894 3584 3203 3211 
Q 3513 2838 3513 2113 
z
" transform="scale(0.015625)"/>
      <path id="DejaVuSans-2d" d="M 313 2009 
L 1997 2009 
L 1997 1497 
L 313 1497 
L 313 2009 
z
" transform="scale(0.015625)"/>
      <path id="DejaVuSans-54" d="M -19 4666 
L 3928 4666 
L 3928 4134 
L 2272 4134 
L 2272 0 
L 1638 0 
L 1638 4134 
L -19 4134 
L -19 4666 
z
" transform="scale(0.015625)"/>
      <path id="DejaVuSans-32" d="M 1228 531 
L 3431 531 
L 3431 0 
L 469 0 
L 469 531 
Q 828 903 1448 1529 
Q 2069 2156 2228 2338 
Q 2531 2678 2651 2914 
Q 2772 3150 2772 3378 
Q 2772 3750 2511 3984 
Q 2250 4219 1831 4219 
Q 1534 4219 1204 4116 
Q 875 4013 500 3803 
L 500 4441 
Q 881 4594 1212 4672 
Q 1544 4750 1819 4750 
Q 2544 4750 2975 4387 
Q 3406 4025 3406 3419 
Q 3406 3131 3298 2873 
Q 3191 2616 2906 2266 
Q 2828 2175 2409 1742 
Q 1991 1309 1228 531 
z
" transform="scale(0.015625)"/>
      <path id="DejaVuSans-44" d="M 1259 4147 
L 1259 519 
L 2022 519 
Q 2988 519 3436 956 
Q 3884 1394 3884 2338 
Q 3884 3275 3436 3711 
Q 2988 4147 2022 4147 
L 1259 4147 
z
M 628 4666 
L 1925 4666 
Q 3281 4666 3915 4102 
Q 4550 3538 4550 2338 
Q 4550 1131 3912 565 
Q 3275 0 1925 0 
L 628 0 
L 628 4666 
z
" transform="scale(0.015625)"/>
     </defs>
     <use xlink:href="#DejaVuSans-6e"/>
     <use xlink:href="#DejaVuSans-6f" transform="translate(63.378906 0)"/>
     <use xlink:href="#DejaVuSans-2d" transform="translate(126.435547 0)"/>
     <use xlink:href="#DejaVuSans-54" transform="translate(153.394531 0)"/>
     <use xlink:href="#DejaVuSans-32" transform="translate(214.478516 0)"/>
     <use xlink:href="#DejaVuSans-20" transform="translate(278.101562 0)"/>
     <use xlink:href="#DejaVuSans-44" transform="translate(309.888672 0)"/>
     <use xlink:href="#DejaVuSans-64" transform="translate(386.890625 0)"/>
     <use xlink:href="#DejaVuSans-74" transform="translate(450.367188 0)"/>
     <use xlink:href="#DejaVuSans-2f" transform="translate(489.576172 0)"/>
     <use xlink:href="#DejaVuSans-6e" transform="translate(523.267578 0)"/>
     <use xlink:href="#DejaVuSans-75" transform="translate(586.646484 0)"/>
     <use xlink:href="#DejaVuSans-6c" transform="translate(650.025391 0)"/>
     <use xlink:href="#DejaVuSans-6c" transform="translate(677.808594 0)"/>
    </g>
    <!-- reproduction -->
    <g transform="translate(134.635579 123.853979) scale(0.085 -0.085)">
     <use xlink:href="#DejaVuSans-72"/>
     <use xlink:href="#DejaVuSans-65" transform="translate(38.863281 0)"/>
     <use xlink:href="#DejaVuSans-70" transform="translate(100.386719 0)"/>
     <use xlink:href="#DejaVuSans-72" transform="translate(163.863281 0)"/>
     <use xlink:href="#DejaVuSans-6f" transform="translate(202.726562 0)"/>
     <use xlink:href="#DejaVuSans-64" transform="translate(263.908203 0)"/>
     <use xlink:href="#DejaVuSans-75" transform="translate(327.384766 0)"/>
     <use xlink:href="#DejaVuSans-63" transform="translate(390.763672 0)"/>
     <use xlink:href="#DejaVuSans-74" transform="translate(445.744141 0)"/>
     <use xlink:href="#DejaVuSans-69" transform="translate(484.953125 0)"/>
     <use xlink:href="#DejaVuSans-6f" transform="translate(512.736328 0)"/>
     <use xlink:href="#DejaVuSans-6e" transform="translate(573.917969 0)"/>
    </g>
   </g>
   <g id="text_4">
    <!-- missing -->
    <g style="fill: #475569" transform="translate(145.592704 169.258207) scale(0.084 -0.084)">
     <use xlink:href="#DejaVuSans-6d"/>
     <use xlink:href="#DejaVuSans-69" transform="translate(97.412109 0)"/>
     <use xlink:href="#DejaVuSans-73" transform="translate(125.195312 0)"/>
     <use xlink:href="#DejaVuSans-73" transform="translate(177.294922 0)"/>
     <use xlink:href="#DejaVuSans-69" transform="translate(229.394531 0)"/>
     <use xlink:href="#DejaVuSans-6e" transform="translate(257.177734 0)"/>
     <use xlink:href="#DejaVuSans-67" transform="translate(320.556641 0)"/>
    </g>
   </g>
   <g id="text_5">
    <!-- shared $\epsilon_\tau$ -->
    <g transform="translate(221.66052 114.335838) scale(0.085 -0.085)">
     <defs>
      <path id="DejaVuSans-68" d="M 3513 2113 
L 3513 0 
L 2938 0 
L 2938 2094 
Q 2938 2591 2744 2837 
Q 2550 3084 2163 3084 
Q 1697 3084 1428 2787 
Q 1159 2491 1159 1978 
L 1159 0 
L 581 0 
L 581 4863 
L 1159 4863 
L 1159 2956 
Q 1366 3272 1645 3428 
Q 1925 3584 2291 3584 
Q 2894 3584 3203 3211 
Q 3513 2838 3513 2113 
z
" transform="scale(0.015625)"/>
      <path id="DejaVuSans-Oblique-3b5" d="M 1263 1888 
Q 925 1963 778 2166 
Q 669 2309 669 2503 
Q 669 3034 1175 3344 
Q 1575 3588 2188 3588 
Q 2425 3588 2684 3550 
Q 2944 3513 3234 3438 
L 3134 2916 
Q 2847 3006 2606 3047 
Q 2359 3088 2138 3088 
Q 1766 3088 1522 2944 
Q 1228 2772 1228 2522 
Q 1228 2356 1381 2241 
Q 1563 2103 1925 2103 
L 2409 2103 
L 2319 1628 
L 1856 1628 
Q 1425 1628 1172 1469 
Q 828 1253 828 916 
Q 828 703 1013 563 
Q 1244 388 1716 388 
Q 2006 388 2284 444 
Q 2563 503 2806 619 
L 2700 84 
Q 2403 -3 2131 -47 
Q 1859 -91 1609 -91 
Q 866 -91 516 194 
Q 250 413 250 781 
Q 250 1278 600 1584 
Q 859 1813 1263 1888 
z
" transform="scale(0.015625)"/>
      <path id="DejaVuSans-Oblique-3c4" d="M 2103 638 
Q 2188 488 2525 488 
L 2800 488 
L 2706 0 
L 2363 0 
Q 1800 0 1600 300 
Q 1403 606 1534 1269 
L 1856 2925 
L 541 2925 
L 653 3500 
L 3881 3500 
L 3769 2925 
L 2444 2925 
L 2113 1234 
Q 2025 781 2103 638 
z
" transform="scale(0.015625)"/>
     </defs>
     <use xlink:href="#DejaVuSans-73" transform="translate(0 0.015625)"/>
     <use xlink:href="#DejaVuSans-68" transform="translate(52.099609 0.015625)"/>
     <use xlink:href="#DejaVuSans-61" transform="translate(115.478516 0.015625)"/>
     <use xlink:href="#DejaVuSans-72" transform="translate(176.757812 0.015625)"/>
     <use xlink:href="#DejaVuSans-65" transform="translate(217.871094 0.015625)"/>
     <use xlink:href="#DejaVuSans-64" transform="translate(279.394531 0.015625)"/>
     <use xlink:href="#DejaVuSans-20" transform="translate(342.871094 0.015625)"/>
     <use xlink:href="#DejaVuSans-Oblique-3b5" transform="translate(374.658203 0.015625)"/>
     <use xlink:href="#DejaVuSans-Oblique-3c4" transform="translate(428.710938 -16.390625) scale(0.7)"/>
    </g>
    <!-- T2 perturbation -->
    <g transform="translate(208.544622 123.853979) scale(0.085 -0.085)">
     <use xlink:href="#DejaVuSans-54"/>
     <use xlink:href="#DejaVuSans-32" transform="translate(61.083984 0)"/>
     <use xlink:href="#DejaVuSans-20" transform="translate(124.707031 0)"/>
     <use xlink:href="#DejaVuSans-70" transform="translate(156.494141 0)"/>
     <use xlink:href="#DejaVuSans-65" transform="translate(219.970703 0)"/>
     <use xlink:href="#DejaVuSans-72" transform="translate(281.494141 0)"/>
     <use xlink:href="#DejaVuSans-74" transform="translate(322.607422 0)"/>
     <use xlink:href="#DejaVuSans-75" transform="translate(361.816406 0)"/>
     <use xlink:href="#DejaVuSans-72" transform="translate(425.195312 0)"/>
     <use xlink:href="#DejaVuSans-62" transform="translate(466.308594 0)"/>
     <use xlink:href="#DejaVuSans-61" transform="translate(529.785156 0)"/>
     <use xlink:href="#DejaVuSans-74" transform="translate(591.064453 0)"/>
     <use xlink:href="#DejaVuSans-69" transform="translate(630.273438 0)"/>
     <use xlink:href="#DejaVuSans-6f" transform="translate(658.056641 0)"/>
     <use xlink:href="#DejaVuSans-6e" transform="translate(719.238281 0)"/>
    </g>
   </g>
   <g id="text_6">
    <!-- defined -->
    <g style="fill: #475569" transform="translate(225.997114 169.258207) scale(0.084 -0.084)">
     <defs>
      <path id="DejaVuSans-66" d="M 2375 4863 
L 2375 4384 
L 1825 4384 
Q 1516 4384 1395 4259 
Q 1275 4134 1275 3809 
L 1275 3500 
L 2222 3500 
L 2222 3053 
L 1275 3053 
L 1275 0 
L 697 0 
L 697 3053 
L 147 3053 
L 147 3500 
L 697 3500 
L 697 3744 
Q 697 4328 969 4595 
Q 1241 4863 1831 4863 
L 2375 4863 
z
" transform="scale(0.015625)"/>
     </defs>
     <use xlink:href="#DejaVuSans-64"/>
     <use xlink:href="#DejaVuSans-65" transform="translate(63.476562 0)"/>
     <use xlink:href="#DejaVuSans-66" transform="translate(125 0)"/>
     <use xlink:href="#DejaVuSans-69" transform="translate(160.205078 0)"/>
     <use xlink:href="#DejaVuSans-6e" transform="translate(187.988281 0)"/>
     <use xlink:href="#DejaVuSans-65" transform="translate(251.367188 0)"/>
     <use xlink:href="#DejaVuSans-64" transform="translate(312.890625 0)"/>
    </g>
   </g>
   <g id="text_7">
    <!-- nuisance + synthetic -->
    <g transform="translate(277.014328 114.335838) scale(0.085 -0.085)">
     <defs>
      <path id="DejaVuSans-2b" d="M 2944 4013 
L 2944 2272 
L 4684 2272 
L 4684 1741 
L 2944 1741 
L 2944 0 
L 2419 0 
L 2419 1741 
L 678 1741 
L 678 2272 
L 2419 2272 
L 2419 4013 
L 2944 4013 
z
" transform="scale(0.015625)"/>
      <path id="DejaVuSans-79" d="M 2059 -325 
Q 1816 -950 1584 -1140 
Q 1353 -1331 966 -1331 
L 506 -1331 
L 506 -850 
L 844 -850 
Q 1081 -850 1212 -737 
Q 1344 -625 1503 -206 
L 1606 56 
L 191 3500 
L 800 3500 
L 1894 763 
L 2988 3500 
L 3597 3500 
L 2059 -325 
z
" transform="scale(0.015625)"/>
     </defs>
     <use xlink:href="#DejaVuSans-6e"/>
     <use xlink:href="#DejaVuSans-75" transform="translate(63.378906 0)"/>
     <use xlink:href="#DejaVuSans-69" transform="translate(126.757812 0)"/>
     <use xlink:href="#DejaVuSans-73" transform="translate(154.541016 0)"/>
     <use xlink:href="#DejaVuSans-61" transform="translate(206.640625 0)"/>
     <use xlink:href="#DejaVuSans-6e" transform="translate(267.919922 0)"/>
     <use xlink:href="#DejaVuSans-63" transform="translate(331.298828 0)"/>
     <use xlink:href="#DejaVuSans-65" transform="translate(386.279297 0)"/>
     <use xlink:href="#DejaVuSans-20" transform="translate(447.802734 0)"/>
     <use xlink:href="#DejaVuSans-2b" transform="translate(479.589844 0)"/>
     <use xlink:href="#DejaVuSans-20" transform="translate(563.378906 0)"/>
     <use xlink:href="#DejaVuSans-73" transform="translate(595.166016 0)"/>
     <use xlink:href="#DejaVuSans-79" transform="translate(647.265625 0)"/>
     <use xlink:href="#DejaVuSans-6e" transform="translate(706.445312 0)"/>
     <use xlink:href="#DejaVuSans-74" transform="translate(769.824219 0)"/>
     <use xlink:href="#DejaVuSans-68" transform="translate(809.033203 0)"/>
     <use xlink:href="#DejaVuSans-65" transform="translate(872.412109 0)"/>
     <use xlink:href="#DejaVuSans-74" transform="translate(933.935547 0)"/>
     <use xlink:href="#DejaVuSans-69" transform="translate(973.144531 0)"/>
     <use xlink:href="#DejaVuSans-63" transform="translate(1000.927734 0)"/>
    </g>
    <!-- stress tests -->
    <g transform="translate(297.588977 123.853979) scale(0.085 -0.085)">
     <use xlink:href="#DejaVuSans-73"/>
     <use xlink:href="#DejaVuSans-74" transform="translate(52.099609 0)"/>
     <use xlink:href="#DejaVuSans-72" transform="translate(91.308594 0)"/>
     <use xlink:href="#DejaVuSans-65" transform="translate(130.171875 0)"/>
     <use xlink:href="#DejaVuSans-73" transform="translate(191.695312 0)"/>
     <use xlink:href="#DejaVuSans-73" transform="translate(243.794922 0)"/>
     <use xlink:href="#DejaVuSans-20" transform="translate(295.894531 0)"/>
     <use xlink:href="#DejaVuSans-74" transform="translate(327.681641 0)"/>
     <use xlink:href="#DejaVuSans-65" transform="translate(366.890625 0)"/>
     <use xlink:href="#DejaVuSans-73" transform="translate(428.414062 0)"/>
     <use xlink:href="#DejaVuSans-74" transform="translate(480.513672 0)"/>
     <use xlink:href="#DejaVuSans-73" transform="translate(519.722656 0)"/>
    </g>
   </g>
   <g id="text_8">
    <!-- passed in synthetic -->
    <g style="fill: #475569" transform="translate(281.173961 169.258207) scale(0.084 -0.084)">
     <use xlink:href="#DejaVuSans-70"/>
     <use xlink:href="#DejaVuSans-61" transform="translate(63.476562 0)"/>
     <use xlink:href="#DejaVuSans-73" transform="translate(124.755859 0)"/>
     <use xlink:href="#DejaVuSans-73" transform="translate(176.855469 0)"/>
     <use xlink:href="#DejaVuSans-65" transform="translate(228.955078 0)"/>
     <use xlink:href="#DejaVuSans-64" transform="translate(290.478516 0)"/>
     <use xlink:href="#DejaVuSans-20" transform="translate(353.955078 0)"/>
     <use xlink:href="#DejaVuSans-69" transform="translate(385.742188 0)"/>
     <use xlink:href="#DejaVuSans-6e" transform="translate(413.525391 0)"/>
     <use xlink:href="#DejaVuSans-20" transform="translate(476.904297 0)"/>
     <use xlink:href="#DejaVuSans-73" transform="translate(508.691406 0)"/>
     <use xlink:href="#DejaVuSans-79" transform="translate(560.791016 0)"/>
     <use xlink:href="#DejaVuSans-6e" transform="translate(619.970703 0)"/>
     <use xlink:href="#DejaVuSans-74" transform="translate(683.349609 0)"/>
     <use xlink:href="#DejaVuSans-68" transform="translate(722.558594 0)"/>
     <use xlink:href="#DejaVuSans-65" transform="translate(785.9375 0)"/>
     <use xlink:href="#DejaVuSans-74" transform="translate(847.460938 0)"/>
     <use xlink:href="#DejaVuSans-69" transform="translate(886.669922 0)"/>
     <use xlink:href="#DejaVuSans-63" transform="translate(914.453125 0)"/>
    </g>
   </g>
   <g id="text_9">
    <!-- static false-positive -->
    <g transform="translate(360.640598 114.335838) scale(0.085 -0.085)">
     <defs>
      <path id="DejaVuSans-76" d="M 191 3500 
L 800 3500 
L 1894 563 
L 2988 3500 
L 3597 3500 
L 2284 0 
L 1503 0 
L 191 3500 
z
" transform="scale(0.015625)"/>
     </defs>
     <use xlink:href="#DejaVuSans-73"/>
     <use xlink:href="#DejaVuSans-74" transform="translate(52.099609 0)"/>
     <use xlink:href="#DejaVuSans-61" transform="translate(91.308594 0)"/>
     <use xlink:href="#DejaVuSans-74" transform="translate(152.587891 0)"/>
     <use xlink:href="#DejaVuSans-69" transform="translate(191.796875 0)"/>
     <use xlink:href="#DejaVuSans-63" transform="translate(219.580078 0)"/>
     <use xlink:href="#DejaVuSans-20" transform="translate(274.560547 0)"/>
     <use xlink:href="#DejaVuSans-66" transform="translate(306.347656 0)"/>
     <use xlink:href="#DejaVuSans-61" transform="translate(341.552734 0)"/>
     <use xlink:href="#DejaVuSans-6c" transform="translate(402.832031 0)"/>
     <use xlink:href="#DejaVuSans-73" transform="translate(430.615234 0)"/>
     <use xlink:href="#DejaVuSans-65" transform="translate(482.714844 0)"/>
     <use xlink:href="#DejaVuSans-2d" transform="translate(544.238281 0)"/>
     <use xlink:href="#DejaVuSans-70" transform="translate(580.322266 0)"/>
     <use xlink:href="#DejaVuSans-6f" transform="translate(643.798828 0)"/>
     <use xlink:href="#DejaVuSans-73" transform="translate(704.980469 0)"/>
     <use xlink:href="#DejaVuSans-69" transform="translate(757.080078 0)"/>
     <use xlink:href="#DejaVuSans-74" transform="translate(784.863281 0)"/>
     <use xlink:href="#DejaVuSans-69" transform="translate(824.072266 0)"/>
     <use xlink:href="#DejaVuSans-76" transform="translate(851.855469 0)"/>
     <use xlink:href="#DejaVuSans-65" transform="translate(911.035156 0)"/>
    </g>
    <!-- controls -->
    <g transform="translate(385.030285 123.853979) scale(0.085 -0.085)">
     <use xlink:href="#DejaVuSans-63"/>
     <use xlink:href="#DejaVuSans-6f" transform="translate(54.980469 0)"/>
     <use xlink:href="#DejaVuSans-6e" transform="translate(116.162109 0)"/>
     <use xlink:href="#DejaVuSans-74" transform="translate(179.541016 0)"/>
     <use xlink:href="#DejaVuSans-72" transform="translate(218.75 0)"/>
     <use xlink:href="#DejaVuSans-6f" transform="translate(257.613281 0)"/>
     <use xlink:href="#DejaVuSans-6c" transform="translate(318.794922 0)"/>
     <use xlink:href="#DejaVuSans-73" transform="translate(346.578125 0)"/>
    </g>
   </g>
   <g id="text_10">
    <!-- closed -->
    <g style="fill: #475569" transform="translate(388.489215 169.258207) scale(0.084 -0.084)">
     <use xlink:href="#DejaVuSans-63"/>
     <use xlink:href="#DejaVuSans-6c" transform="translate(54.980469 0)"/>
     <use xlink:href="#DejaVuSans-6f" transform="translate(82.763672 0)"/>
     <use xlink:href="#DejaVuSans-73" transform="translate(143.945312 0)"/>
     <use xlink:href="#DejaVuSans-65" transform="translate(196.044922 0)"/>
     <use xlink:href="#DejaVuSans-64" transform="translate(257.568359 0)"/>
    </g>
   </g>
   <g id="text_11">
    <!-- real-data proof -->
    <g transform="translate(450.502414 119.094909) scale(0.085 -0.085)">
     <use xlink:href="#DejaVuSans-72"/>
     <use xlink:href="#DejaVuSans-65" transform="translate(38.863281 0)"/>
     <use xlink:href="#DejaVuSans-61" transform="translate(100.386719 0)"/>
     <use xlink:href="#DejaVuSans-6c" transform="translate(161.666016 0)"/>
     <use xlink:href="#DejaVuSans-2d" transform="translate(189.449219 0)"/>
     <use xlink:href="#DejaVuSans-64" transform="translate(225.533203 0)"/>
     <use xlink:href="#DejaVuSans-61" transform="translate(289.009766 0)"/>
     <use xlink:href="#DejaVuSans-74" transform="translate(350.289062 0)"/>
     <use xlink:href="#DejaVuSans-61" transform="translate(389.498047 0)"/>
     <use xlink:href="#DejaVuSans-20" transform="translate(450.777344 0)"/>
     <use xlink:href="#DejaVuSans-70" transform="translate(482.564453 0)"/>
     <use xlink:href="#DejaVuSans-72" transform="translate(546.041016 0)"/>
     <use xlink:href="#DejaVuSans-6f" transform="translate(584.904297 0)"/>
     <use xlink:href="#DejaVuSans-6f" transform="translate(646.085938 0)"/>
     <use xlink:href="#DejaVuSans-66" transform="translate(707.267578 0)"/>
    </g>
   </g>
   <g id="text_12">
    <!-- not yet -->
    <g style="fill: #475569" transform="translate(467.128312 169.258207) scale(0.084 -0.084)">
     <use xlink:href="#DejaVuSans-6e"/>
     <use xlink:href="#DejaVuSans-6f" transform="translate(63.378906 0)"/>
     <use xlink:href="#DejaVuSans-74" transform="translate(124.560547 0)"/>
     <use xlink:href="#DejaVuSans-20" transform="translate(163.769531 0)"/>
     <use xlink:href="#DejaVuSans-79" transform="translate(195.556641 0)"/>
     <use xlink:href="#DejaVuSans-65" transform="translate(254.736328 0)"/>
     <use xlink:href="#DejaVuSans-74" transform="translate(316.259766 0)"/>
    </g>
   </g>
   <g id="text_13">
    <!-- Operational proof gate -->
    <g transform="translate(173.505625 36.0288) scale(0.14 -0.14)">
     <defs>
      <path id="DejaVuSans-Bold-4f" d="M 2719 3878 
Q 2169 3878 1866 3472 
Q 1563 3066 1563 2328 
Q 1563 1594 1866 1187 
Q 2169 781 2719 781 
Q 3272 781 3575 1187 
Q 3878 1594 3878 2328 
Q 3878 3066 3575 3472 
Q 3272 3878 2719 3878 
z
M 2719 4750 
Q 3844 4750 4481 4106 
Q 5119 3463 5119 2328 
Q 5119 1197 4481 553 
Q 3844 -91 2719 -91 
Q 1597 -91 958 553 
Q 319 1197 319 2328 
Q 319 3463 958 4106 
Q 1597 4750 2719 4750 
z
" transform="scale(0.015625)"/>
      <path id="DejaVuSans-Bold-70" d="M 1656 506 
L 1656 -1331 
L 538 -1331 
L 538 3500 
L 1656 3500 
L 1656 2988 
Q 1888 3294 2169 3439 
Q 2450 3584 2816 3584 
Q 3463 3584 3878 3070 
Q 4294 2556 4294 1747 
Q 4294 938 3878 423 
Q 3463 -91 2816 -91 
Q 2450 -91 2169 54 
Q 1888 200 1656 506 
z
M 2400 2772 
Q 2041 2772 1848 2508 
Q 1656 2244 1656 1747 
Q 1656 1250 1848 986 
Q 2041 722 2400 722 
Q 2759 722 2948 984 
Q 3138 1247 3138 1747 
Q 3138 2247 2948 2509 
Q 2759 2772 2400 2772 
z
" transform="scale(0.015625)"/>
      <path id="DejaVuSans-Bold-65" d="M 4031 1759 
L 4031 1441 
L 1416 1441 
Q 1456 1047 1700 850 
Q 1944 653 2381 653 
Q 2734 653 3104 758 
Q 3475 863 3866 1075 
L 3866 213 
Q 3469 63 3072 -14 
Q 2675 -91 2278 -91 
Q 1328 -91 801 392 
Q 275 875 275 1747 
Q 275 2603 792 3093 
Q 1309 3584 2216 3584 
Q 3041 3584 3536 3087 
Q 4031 2591 4031 1759 
z
M 2881 2131 
Q 2881 2450 2695 2645 
Q 2509 2841 2209 2841 
Q 1884 2841 1681 2658 
Q 1478 2475 1428 2131 
L 2881 2131 
z
" transform="scale(0.015625)"/>
      <path id="DejaVuSans-Bold-72" d="M 3138 2547 
Q 2991 2616 2845 2648 
Q 2700 2681 2553 2681 
Q 2122 2681 1889 2404 
Q 1656 2128 1656 1613 
L 1656 0 
L 538 0 
L 538 3500 
L 1656 3500 
L 1656 2925 
Q 1872 3269 2151 3426 
Q 2431 3584 2822 3584 
Q 2878 3584 2943 3579 
Q 3009 3575 3134 3559 
L 3138 2547 
z
" transform="scale(0.015625)"/>
      <path id="DejaVuSans-Bold-61" d="M 2106 1575 
Q 1756 1575 1579 1456 
Q 1403 1338 1403 1106 
Q 1403 894 1545 773 
Q 1688 653 1941 653 
Q 2256 653 2472 879 
Q 2688 1106 2688 1447 
L 2688 1575 
L 2106 1575 
z
M 3816 1997 
L 3816 0 
L 2688 0 
L 2688 519 
Q 2463 200 2181 54 
Q 1900 -91 1497 -91 
Q 953 -91 614 226 
Q 275 544 275 1050 
Q 275 1666 698 1953 
Q 1122 2241 2028 2241 
L 2688 2241 
L 2688 2328 
Q 2688 2594 2478 2717 
Q 2269 2841 1825 2841 
Q 1466 2841 1156 2769 
Q 847 2697 581 2553 
L 581 3406 
Q 941 3494 1303 3539 
Q 1666 3584 2028 3584 
Q 2975 3584 3395 3211 
Q 3816 2838 3816 1997 
z
" transform="scale(0.015625)"/>
      <path id="DejaVuSans-Bold-74" d="M 1759 4494 
L 1759 3500 
L 2913 3500 
L 2913 2700 
L 1759 2700 
L 1759 1216 
Q 1759 972 1856 886 
Q 1953 800 2241 800 
L 2816 800 
L 2816 0 
L 1856 0 
Q 1194 0 917 276 
Q 641 553 641 1216 
L 641 2700 
L 84 2700 
L 84 3500 
L 641 3500 
L 641 4494 
L 1759 4494 
z
" transform="scale(0.015625)"/>
      <path id="DejaVuSans-Bold-69" d="M 538 3500 
L 1656 3500 
L 1656 0 
L 538 0 
L 538 3500 
z
M 538 4863 
L 1656 4863 
L 1656 3950 
L 538 3950 
L 538 4863 
z
" transform="scale(0.015625)"/>
      <path id="DejaVuSans-Bold-6f" d="M 2203 2784 
Q 1831 2784 1636 2517 
Q 1441 2250 1441 1747 
Q 1441 1244 1636 976 
Q 1831 709 2203 709 
Q 2569 709 2762 976 
Q 2956 1244 2956 1747 
Q 2956 2250 2762 2517 
Q 2569 2784 2203 2784 
z
M 2203 3584 
Q 3106 3584 3614 3096 
Q 4122 2609 4122 1747 
Q 4122 884 3614 396 
Q 3106 -91 2203 -91 
Q 1297 -91 786 396 
Q 275 884 275 1747 
Q 275 2609 786 3096 
Q 1297 3584 2203 3584 
z
" transform="scale(0.015625)"/>
      <path id="DejaVuSans-Bold-6e" d="M 4056 2131 
L 4056 0 
L 2931 0 
L 2931 347 
L 2931 1631 
Q 2931 2084 2911 2256 
Q 2891 2428 2841 2509 
Q 2775 2619 2662 2680 
Q 2550 2741 2406 2741 
Q 2056 2741 1856 2470 
Q 1656 2200 1656 1722 
L 1656 0 
L 538 0 
L 538 3500 
L 1656 3500 
L 1656 2988 
Q 1909 3294 2193 3439 
Q 2478 3584 2822 3584 
Q 3428 3584 3742 3212 
Q 4056 2841 4056 2131 
z
" transform="scale(0.015625)"/>
      <path id="DejaVuSans-Bold-6c" d="M 538 4863 
L 1656 4863 
L 1656 0 
L 538 0 
L 538 4863 
z
" transform="scale(0.015625)"/>
      <path id="DejaVuSans-Bold-20" transform="scale(0.015625)"/>
      <path id="DejaVuSans-Bold-66" d="M 2841 4863 
L 2841 4128 
L 2222 4128 
Q 1984 4128 1890 4042 
Q 1797 3956 1797 3744 
L 1797 3500 
L 2753 3500 
L 2753 2700 
L 1797 2700 
L 1797 0 
L 678 0 
L 678 2700 
L 122 2700 
L 122 3500 
L 678 3500 
L 678 3744 
Q 678 4316 997 4589 
Q 1316 4863 1984 4863 
L 2841 4863 
z
" transform="scale(0.015625)"/>
      <path id="DejaVuSans-Bold-67" d="M 2919 594 
Q 2688 288 2409 144 
Q 2131 0 1766 0 
Q 1125 0 706 504 
Q 288 1009 288 1791 
Q 288 2575 706 3076 
Q 1125 3578 1766 3578 
Q 2131 3578 2409 3434 
Q 2688 3291 2919 2981 
L 2919 3500 
L 4044 3500 
L 4044 353 
Q 4044 -491 3511 -936 
Q 2978 -1381 1966 -1381 
Q 1638 -1381 1331 -1331 
Q 1025 -1281 716 -1178 
L 716 -306 
Q 1009 -475 1290 -558 
Q 1572 -641 1856 -641 
Q 2406 -641 2662 -400 
Q 2919 -159 2919 353 
L 2919 594 
z
M 2181 2772 
Q 1834 2772 1640 2515 
Q 1447 2259 1447 1791 
Q 1447 1309 1634 1061 
Q 1822 813 2181 813 
Q 2531 813 2725 1069 
Q 2919 1325 2919 1791 
Q 2919 2259 2725 2515 
Q 2531 2772 2181 2772 
z
" transform="scale(0.015625)"/>
     </defs>
     <use xlink:href="#DejaVuSans-Bold-4f"/>
     <use xlink:href="#DejaVuSans-Bold-70" transform="translate(85.009766 0)"/>
     <use xlink:href="#DejaVuSans-Bold-65" transform="translate(156.591797 0)"/>
     <use xlink:href="#DejaVuSans-Bold-72" transform="translate(224.414062 0)"/>
     <use xlink:href="#DejaVuSans-Bold-61" transform="translate(273.730469 0)"/>
     <use xlink:href="#DejaVuSans-Bold-74" transform="translate(341.210938 0)"/>
     <use xlink:href="#DejaVuSans-Bold-69" transform="translate(389.013672 0)"/>
     <use xlink:href="#DejaVuSans-Bold-6f" transform="translate(423.291016 0)"/>
     <use xlink:href="#DejaVuSans-Bold-6e" transform="translate(491.992188 0)"/>
     <use xlink:href="#DejaVuSans-Bold-61" transform="translate(563.183594 0)"/>
     <use xlink:href="#DejaVuSans-Bold-6c" transform="translate(630.664062 0)"/>
     <use xlink:href="#DejaVuSans-Bold-20" transform="translate(664.941406 0)"/>
     <use xlink:href="#DejaVuSans-Bold-70" transform="translate(699.755859 0)"/>
     <use xlink:href="#DejaVuSans-Bold-72" transform="translate(771.337891 0)"/>
     <use xlink:href="#DejaVuSans-Bold-6f" transform="translate(820.654297 0)"/>
     <use xlink:href="#DejaVuSans-Bold-6f" transform="translate(889.355469 0)"/>
     <use xlink:href="#DejaVuSans-Bold-66" transform="translate(958.056641 0)"/>
     <use xlink:href="#DejaVuSans-Bold-20" transform="translate(1001.5625 0)"/>
     <use xlink:href="#DejaVuSans-Bold-67" transform="translate(1036.376953 0)"/>
     <use xlink:href="#DejaVuSans-Bold-61" transform="translate(1107.958984 0)"/>
     <use xlink:href="#DejaVuSans-Bold-74" transform="translate(1175.439453 0)"/>
     <use xlink:href="#DejaVuSans-Bold-65" transform="translate(1223.242188 0)"/>
    </g>
   </g>
   <g id="text_14">
    <!-- Current status: the theory/test path is defined, synthetic and static controls pass, -->
    <g transform="translate(49.695586 229.083132) scale(0.105 -0.105)">
     <defs>
      <path id="DejaVuSans-43" d="M 4122 4306 
L 4122 3641 
Q 3803 3938 3442 4084 
Q 3081 4231 2675 4231 
Q 1875 4231 1450 3742 
Q 1025 3253 1025 2328 
Q 1025 1406 1450 917 
Q 1875 428 2675 428 
Q 3081 428 3442 575 
Q 3803 722 4122 1019 
L 4122 359 
Q 3791 134 3420 21 
Q 3050 -91 2638 -91 
Q 1578 -91 968 557 
Q 359 1206 359 2328 
Q 359 3453 968 4101 
Q 1578 4750 2638 4750 
Q 3056 4750 3426 4639 
Q 3797 4528 4122 4306 
z
" transform="scale(0.015625)"/>
      <path id="DejaVuSans-3a" d="M 750 794 
L 1409 794 
L 1409 0 
L 750 0 
L 750 794 
z
M 750 3309 
L 1409 3309 
L 1409 2516 
L 750 2516 
L 750 3309 
z
" transform="scale(0.015625)"/>
      <path id="DejaVuSans-2c" d="M 750 794 
L 1409 794 
L 1409 256 
L 897 -744 
L 494 -744 
L 750 256 
L 750 794 
z
" transform="scale(0.015625)"/>
     </defs>
     <use xlink:href="#DejaVuSans-43"/>
     <use xlink:href="#DejaVuSans-75" transform="translate(69.824219 0)"/>
     <use xlink:href="#DejaVuSans-72" transform="translate(133.203125 0)"/>
     <use xlink:href="#DejaVuSans-72" transform="translate(172.566406 0)"/>
     <use xlink:href="#DejaVuSans-65" transform="translate(211.429688 0)"/>
     <use xlink:href="#DejaVuSans-6e" transform="translate(272.953125 0)"/>
     <use xlink:href="#DejaVuSans-74" transform="translate(336.332031 0)"/>
     <use xlink:href="#DejaVuSans-20" transform="translate(375.541016 0)"/>
     <use xlink:href="#DejaVuSans-73" transform="translate(407.328125 0)"/>
     <use xlink:href="#DejaVuSans-74" transform="translate(459.427734 0)"/>
     <use xlink:href="#DejaVuSans-61" transform="translate(498.636719 0)"/>
     <use xlink:href="#DejaVuSans-74" transform="translate(559.916016 0)"/>
     <use xlink:href="#DejaVuSans-75" transform="translate(599.125 0)"/>
     <use xlink:href="#DejaVuSans-73" transform="translate(662.503906 0)"/>
     <use xlink:href="#DejaVuSans-3a" transform="translate(714.603516 0)"/>
     <use xlink:href="#DejaVuSans-20" transform="translate(748.294922 0)"/>
     <use xlink:href="#DejaVuSans-74" transform="translate(780.082031 0)"/>
     <use xlink:href="#DejaVuSans-68" transform="translate(819.291016 0)"/>
     <use xlink:href="#DejaVuSans-65" transform="translate(882.669922 0)"/>
     <use xlink:href="#DejaVuSans-20" transform="translate(944.193359 0)"/>
     <use xlink:href="#DejaVuSans-74" transform="translate(975.980469 0)"/>
     <use xlink:href="#DejaVuSans-68" transform="translate(1015.189453 0)"/>
     <use xlink:href="#DejaVuSans-65" transform="translate(1078.568359 0)"/>
     <use xlink:href="#DejaVuSans-6f" transform="translate(1140.091797 0)"/>
     <use xlink:href="#DejaVuSans-72" transform="translate(1201.273438 0)"/>
     <use xlink:href="#DejaVuSans-79" transform="translate(1242.386719 0)"/>
     <use xlink:href="#DejaVuSans-2f" transform="translate(1301.566406 0)"/>
     <use xlink:href="#DejaVuSans-74" transform="translate(1335.257812 0)"/>
     <use xlink:href="#DejaVuSans-65" transform="translate(1374.466797 0)"/>
     <use xlink:href="#DejaVuSans-73" transform="translate(1435.990234 0)"/>
     <use xlink:href="#DejaVuSans-74" transform="translate(1488.089844 0)"/>
     <use xlink:href="#DejaVuSans-20" transform="translate(1527.298828 0)"/>
     <use xlink:href="#DejaVuSans-70" transform="translate(1559.085938 0)"/>
     <use xlink:href="#DejaVuSans-61" transform="translate(1622.5625 0)"/>
     <use xlink:href="#DejaVuSans-74" transform="translate(1683.841797 0)"/>
     <use xlink:href="#DejaVuSans-68" transform="translate(1723.050781 0)"/>
     <use xlink:href="#DejaVuSans-20" transform="translate(1786.429688 0)"/>
     <use xlink:href="#DejaVuSans-69" transform="translate(1818.216797 0)"/>
     <use xlink:href="#DejaVuSans-73" transform="translate(1846 0)"/>
     <use xlink:href="#DejaVuSans-20" transform="translate(1898.099609 0)"/>
     <use xlink:href="#DejaVuSans-64" transform="translate(1929.886719 0)"/>
     <use xlink:href="#DejaVuSans-65" transform="translate(1993.363281 0)"/>
     <use xlink:href="#DejaVuSans-66" transform="translate(2054.886719 0)"/>
     <use xlink:href="#DejaVuSans-69" transform="translate(2090.091797 0)"/>
     <use xlink:href="#DejaVuSans-6e" transform="translate(2117.875 0)"/>
     <use xlink:href="#DejaVuSans-65" transform="translate(2181.253906 0)"/>
     <use xlink:href="#DejaVuSans-64" transform="translate(2242.777344 0)"/>
     <use xlink:href="#DejaVuSans-2c" transform="translate(2306.253906 0)"/>
     <use xlink:href="#DejaVuSans-20" transform="translate(2338.041016 0)"/>
     <use xlink:href="#DejaVuSans-73" transform="translate(2369.828125 0)"/>
     <use xlink:href="#DejaVuSans-79" transform="translate(2421.927734 0)"/>
     <use xlink:href="#DejaVuSans-6e" transform="translate(2481.107422 0)"/>
     <use xlink:href="#DejaVuSans-74" transform="translate(2544.486328 0)"/>
     <use xlink:href="#DejaVuSans-68" transform="translate(2583.695312 0)"/>
     <use xlink:href="#DejaVuSans-65" transform="translate(2647.074219 0)"/>
     <use xlink:href="#DejaVuSans-74" transform="translate(2708.597656 0)"/>
     <use xlink:href="#DejaVuSans-69" transform="translate(2747.806641 0)"/>
     <use xlink:href="#DejaVuSans-63" transform="translate(2775.589844 0)"/>
     <use xlink:href="#DejaVuSans-20" transform="translate(2830.570312 0)"/>
     <use xlink:href="#DejaVuSans-61" transform="translate(2862.357422 0)"/>
     <use xlink:href="#DejaVuSans-6e" transform="translate(2923.636719 0)"/>
     <use xlink:href="#DejaVuSans-64" transform="translate(2987.015625 0)"/>
     <use xlink:href="#DejaVuSans-20" transform="translate(3050.492188 0)"/>
     <use xlink:href="#DejaVuSans-73" transform="translate(3082.279297 0)"/>
     <use xlink:href="#DejaVuSans-74" transform="translate(3134.378906 0)"/>
     <use xlink:href="#DejaVuSans-61" transform="translate(3173.587891 0)"/>
     <use xlink:href="#DejaVuSans-74" transform="translate(3234.867188 0)"/>
     <use xlink:href="#DejaVuSans-69" transform="translate(3274.076172 0)"/>
     <use xlink:href="#DejaVuSans-63" transform="translate(3301.859375 0)"/>
     <use xlink:href="#DejaVuSans-20" transform="translate(3356.839844 0)"/>
     <use xlink:href="#DejaVuSans-63" transform="translate(3388.626953 0)"/>
     <use xlink:href="#DejaVuSans-6f" transform="translate(3443.607422 0)"/>
     <use xlink:href="#DejaVuSans-6e" transform="translate(3504.789062 0)"/>
     <use xlink:href="#DejaVuSans-74" transform="translate(3568.167969 0)"/>
     <use xlink:href="#DejaVuSans-72" transform="translate(3607.376953 0)"/>
     <use xlink:href="#DejaVuSans-6f" transform="translate(3646.240234 0)"/>
     <use xlink:href="#DejaVuSans-6c" transform="translate(3707.421875 0)"/>
     <use xlink:href="#DejaVuSans-73" transform="translate(3735.205078 0)"/>
     <use xlink:href="#DejaVuSans-20" transform="translate(3787.304688 0)"/>
     <use xlink:href="#DejaVuSans-70" transform="translate(3819.091797 0)"/>
     <use xlink:href="#DejaVuSans-61" transform="translate(3882.568359 0)"/>
     <use xlink:href="#DejaVuSans-73" transform="translate(3943.847656 0)"/>
     <use xlink:href="#DejaVuSans-73" transform="translate(3995.947266 0)"/>
     <use xlink:href="#DejaVuSans-2c" transform="translate(4048.046875 0)"/>
    </g>
    <!-- but the first two evidence-grade real-data product gates are still blocked. -->
    <g transform="translate(71.010586 240.840835) scale(0.105 -0.105)">
     <defs>
      <path id="DejaVuSans-77" d="M 269 3500 
L 844 3500 
L 1563 769 
L 2278 3500 
L 2956 3500 
L 3675 769 
L 4391 3500 
L 4966 3500 
L 4050 0 
L 3372 0 
L 2619 2869 
L 1863 0 
L 1184 0 
L 269 3500 
z
" transform="scale(0.015625)"/>
      <path id="DejaVuSans-2e" d="M 684 794 
L 1344 794 
L 1344 0 
L 684 0 
L 684 794 
z
" transform="scale(0.015625)"/>
     </defs>
     <use xlink:href="#DejaVuSans-62"/>
     <use xlink:href="#DejaVuSans-75" transform="translate(63.476562 0)"/>
     <use xlink:href="#DejaVuSans-74" transform="translate(126.855469 0)"/>
     <use xlink:href="#DejaVuSans-20" transform="translate(166.064453 0)"/>
     <use xlink:href="#DejaVuSans-74" transform="translate(197.851562 0)"/>
     <use xlink:href="#DejaVuSans-68" transform="translate(237.060547 0)"/>
     <use xlink:href="#DejaVuSans-65" transform="translate(300.439453 0)"/>
     <use xlink:href="#DejaVuSans-20" transform="translate(361.962891 0)"/>
     <use xlink:href="#DejaVuSans-66" transform="translate(393.75 0)"/>
     <use xlink:href="#DejaVuSans-69" transform="translate(428.955078 0)"/>
     <use xlink:href="#DejaVuSans-72" transform="translate(456.738281 0)"/>
     <use xlink:href="#DejaVuSans-73" transform="translate(497.851562 0)"/>
     <use xlink:href="#DejaVuSans-74" transform="translate(549.951172 0)"/>
     <use xlink:href="#DejaVuSans-20" transform="translate(589.160156 0)"/>
     <use xlink:href="#DejaVuSans-74" transform="translate(620.947266 0)"/>
     <use xlink:href="#DejaVuSans-77" transform="translate(660.15625 0)"/>
     <use xlink:href="#DejaVuSans-6f" transform="translate(741.943359 0)"/>
     <use xlink:href="#DejaVuSans-20" transform="translate(803.125 0)"/>
     <use xlink:href="#DejaVuSans-65" transform="translate(834.912109 0)"/>
     <use xlink:href="#DejaVuSans-76" transform="translate(896.435547 0)"/>
     <use xlink:href="#DejaVuSans-69" transform="translate(955.615234 0)"/>
     <use xlink:href="#DejaVuSans-64" transform="translate(983.398438 0)"/>
     <use xlink:href="#DejaVuSans-65" transform="translate(1046.875 0)"/>
     <use xlink:href="#DejaVuSans-6e" transform="translate(1108.398438 0)"/>
     <use xlink:href="#DejaVuSans-63" transform="translate(1171.777344 0)"/>
     <use xlink:href="#DejaVuSans-65" transform="translate(1226.757812 0)"/>
     <use xlink:href="#DejaVuSans-2d" transform="translate(1288.28125 0)"/>
     <use xlink:href="#DejaVuSans-67" transform="translate(1324.365234 0)"/>
     <use xlink:href="#DejaVuSans-72" transform="translate(1387.841797 0)"/>
     <use xlink:href="#DejaVuSans-61" transform="translate(1428.955078 0)"/>
     <use xlink:href="#DejaVuSans-64" transform="translate(1490.234375 0)"/>
     <use xlink:href="#DejaVuSans-65" transform="translate(1553.710938 0)"/>
     <use xlink:href="#DejaVuSans-20" transform="translate(1615.234375 0)"/>
     <use xlink:href="#DejaVuSans-72" transform="translate(1647.021484 0)"/>
     <use xlink:href="#DejaVuSans-65" transform="translate(1685.884766 0)"/>
     <use xlink:href="#DejaVuSans-61" transform="translate(1747.408203 0)"/>
     <use xlink:href="#DejaVuSans-6c" transform="translate(1808.6875 0)"/>
     <use xlink:href="#DejaVuSans-2d" transform="translate(1836.470703 0)"/>
     <use xlink:href="#DejaVuSans-64" transform="translate(1872.554688 0)"/>
     <use xlink:href="#DejaVuSans-61" transform="translate(1936.03125 0)"/>
     <use xlink:href="#DejaVuSans-74" transform="translate(1997.310547 0)"/>
     <use xlink:href="#DejaVuSans-61" transform="translate(2036.519531 0)"/>
     <use xlink:href="#DejaVuSans-20" transform="translate(2097.798828 0)"/>
     <use xlink:href="#DejaVuSans-70" transform="translate(2129.585938 0)"/>
     <use xlink:href="#DejaVuSans-72" transform="translate(2193.0625 0)"/>
     <use xlink:href="#DejaVuSans-6f" transform="translate(2231.925781 0)"/>
     <use xlink:href="#DejaVuSans-64" transform="translate(2293.107422 0)"/>
     <use xlink:href="#DejaVuSans-75" transform="translate(2356.583984 0)"/>
     <use xlink:href="#DejaVuSans-63" transform="translate(2419.962891 0)"/>
     <use xlink:href="#DejaVuSans-74" transform="translate(2474.943359 0)"/>
     <use xlink:href="#DejaVuSans-20" transform="translate(2514.152344 0)"/>
     <use xlink:href="#DejaVuSans-67" transform="translate(2545.939453 0)"/>
     <use xlink:href="#DejaVuSans-61" transform="translate(2609.416016 0)"/>
     <use xlink:href="#DejaVuSans-74" transform="translate(2670.695312 0)"/>
     <use xlink:href="#DejaVuSans-65" transform="translate(2709.904297 0)"/>
     <use xlink:href="#DejaVuSans-73" transform="translate(2771.427734 0)"/>
     <use xlink:href="#DejaVuSans-20" transform="translate(2823.527344 0)"/>
     <use xlink:href="#DejaVuSans-61" transform="translate(2855.314453 0)"/>
     <use xlink:href="#DejaVuSans-72" transform="translate(2916.59375 0)"/>
     <use xlink:href="#DejaVuSans-65" transform="translate(2955.457031 0)"/>
     <use xlink:href="#DejaVuSans-20" transform="translate(3016.980469 0)"/>
     <use xlink:href="#DejaVuSans-73" transform="translate(3048.767578 0)"/>
     <use xlink:href="#DejaVuSans-74" transform="translate(3100.867188 0)"/>
     <use xlink:href="#DejaVuSans-69" transform="translate(3140.076172 0)"/>
     <use xlink:href="#DejaVuSans-6c" transform="translate(3167.859375 0)"/>
     <use xlink:href="#DejaVuSans-6c" transform="translate(3195.642578 0)"/>
     <use xlink:href="#DejaVuSans-20" transform="translate(3223.425781 0)"/>
     <use xlink:href="#DejaVuSans-62" transform="translate(3255.212891 0)"/>
     <use xlink:href="#DejaVuSans-6c" transform="translate(3318.689453 0)"/>
     <use xlink:href="#DejaVuSans-6f" transform="translate(3346.472656 0)"/>
     <use xlink:href="#DejaVuSans-63" transform="translate(3407.654297 0)"/>
     <use xlink:href="#DejaVuSans-6b" transform="translate(3462.634766 0)"/>
     <use xlink:href="#DejaVuSans-65" transform="translate(3516.919922 0)"/>
     <use xlink:href="#DejaVuSans-64" transform="translate(3578.443359 0)"/>
     <use xlink:href="#DejaVuSans-2e" transform="translate(3641.919922 0)"/>
    </g>
   </g>
   <g id="text_15">
    <!-- observer_principle_lensing_test = THEORETICALLY_DEFINED -->
    <g transform="translate(128.3175 260.970429) scale(0.09 -0.09)">
     <defs>
      <path id="DejaVuSans-5f" d="M 3263 -1063 
L 3263 -1509 
L -63 -1509 
L -63 -1063 
L 3263 -1063 
z
" transform="scale(0.015625)"/>
      <path id="DejaVuSans-3d" d="M 678 2906 
L 4684 2906 
L 4684 2381 
L 678 2381 
L 678 2906 
z
M 678 1631 
L 4684 1631 
L 4684 1100 
L 678 1100 
L 678 1631 
z
" transform="scale(0.015625)"/>
      <path id="DejaVuSans-48" d="M 628 4666 
L 1259 4666 
L 1259 2753 
L 3553 2753 
L 3553 4666 
L 4184 4666 
L 4184 0 
L 3553 0 
L 3553 2222 
L 1259 2222 
L 1259 0 
L 628 0 
L 628 4666 
z
" transform="scale(0.015625)"/>
      <path id="DejaVuSans-45" d="M 628 4666 
L 3578 4666 
L 3578 4134 
L 1259 4134 
L 1259 2753 
L 3481 2753 
L 3481 2222 
L 1259 2222 
L 1259 531 
L 3634 531 
L 3634 0 
L 628 0 
L 628 4666 
z
" transform="scale(0.015625)"/>
      <path id="DejaVuSans-4f" d="M 2522 4238 
Q 1834 4238 1429 3725 
Q 1025 3213 1025 2328 
Q 1025 1447 1429 934 
Q 1834 422 2522 422 
Q 3209 422 3611 934 
Q 4013 1447 4013 2328 
Q 4013 3213 3611 3725 
Q 3209 4238 2522 4238 
z
M 2522 4750 
Q 3503 4750 4090 4092 
Q 4678 3434 4678 2328 
Q 4678 1225 4090 567 
Q 3503 -91 2522 -91 
Q 1538 -91 948 565 
Q 359 1222 359 2328 
Q 359 3434 948 4092 
Q 1538 4750 2522 4750 
z
" transform="scale(0.015625)"/>
      <path id="DejaVuSans-52" d="M 2841 2188 
Q 3044 2119 3236 1894 
Q 3428 1669 3622 1275 
L 4263 0 
L 3584 0 
L 2988 1197 
Q 2756 1666 2539 1819 
Q 2322 1972 1947 1972 
L 1259 1972 
L 1259 0 
L 628 0 
L 628 4666 
L 2053 4666 
Q 2853 4666 3247 4331 
Q 3641 3997 3641 3322 
Q 3641 2881 3436 2590 
Q 3231 2300 2841 2188 
z
M 1259 4147 
L 1259 2491 
L 2053 2491 
Q 2509 2491 2742 2702 
Q 2975 2913 2975 3322 
Q 2975 3731 2742 3939 
Q 2509 4147 2053 4147 
L 1259 4147 
z
" transform="scale(0.015625)"/>
      <path id="DejaVuSans-49" d="M 628 4666 
L 1259 4666 
L 1259 0 
L 628 0 
L 628 4666 
z
" transform="scale(0.015625)"/>
      <path id="DejaVuSans-41" d="M 2188 4044 
L 1331 1722 
L 3047 1722 
L 2188 4044 
z
M 1831 4666 
L 2547 4666 
L 4325 0 
L 3669 0 
L 3244 1197 
L 1141 1197 
L 716 0 
L 50 0 
L 1831 4666 
z
" transform="scale(0.015625)"/>
      <path id="DejaVuSans-4c" d="M 628 4666 
L 1259 4666 
L 1259 531 
L 3531 531 
L 3531 0 
L 628 0 
L 628 4666 
z
" transform="scale(0.015625)"/>
      <path id="DejaVuSans-59" d="M -13 4666 
L 666 4666 
L 1959 2747 
L 3244 4666 
L 3922 4666 
L 2272 2222 
L 2272 0 
L 1638 0 
L 1638 2222 
L -13 4666 
z
" transform="scale(0.015625)"/>
      <path id="DejaVuSans-46" d="M 628 4666 
L 3309 4666 
L 3309 4134 
L 1259 4134 
L 1259 2759 
L 3109 2759 
L 3109 2228 
L 1259 2228 
L 1259 0 
L 628 0 
L 628 4666 
z
" transform="scale(0.015625)"/>
      <path id="DejaVuSans-4e" d="M 628 4666 
L 1478 4666 
L 3547 763 
L 3547 4666 
L 4159 4666 
L 4159 0 
L 3309 0 
L 1241 3903 
L 1241 0 
L 628 0 
L 628 4666 
z
" transform="scale(0.015625)"/>
     </defs>
     <use xlink:href="#DejaVuSans-6f"/>
     <use xlink:href="#DejaVuSans-62" transform="translate(61.181641 0)"/>
     <use xlink:href="#DejaVuSans-73" transform="translate(124.658203 0)"/>
     <use xlink:href="#DejaVuSans-65" transform="translate(176.757812 0)"/>
     <use xlink:href="#DejaVuSans-72" transform="translate(238.28125 0)"/>
     <use xlink:href="#DejaVuSans-76" transform="translate(279.394531 0)"/>
     <use xlink:href="#DejaVuSans-65" transform="translate(338.574219 0)"/>
     <use xlink:href="#DejaVuSans-72" transform="translate(400.097656 0)"/>
     <use xlink:href="#DejaVuSans-5f" transform="translate(441.210938 0)"/>
     <use xlink:href="#DejaVuSans-70" transform="translate(491.210938 0)"/>
     <use xlink:href="#DejaVuSans-72" transform="translate(554.6875 0)"/>
     <use xlink:href="#DejaVuSans-69" transform="translate(595.800781 0)"/>
     <use xlink:href="#DejaVuSans-6e" transform="translate(623.583984 0)"/>
     <use xlink:href="#DejaVuSans-63" transform="translate(686.962891 0)"/>
     <use xlink:href="#DejaVuSans-69" transform="translate(741.943359 0)"/>
     <use xlink:href="#DejaVuSans-70" transform="translate(769.726562 0)"/>
     <use xlink:href="#DejaVuSans-6c" transform="translate(833.203125 0)"/>
     <use xlink:href="#DejaVuSans-65" transform="translate(860.986328 0)"/>
     <use xlink:href="#DejaVuSans-5f" transform="translate(922.509766 0)"/>
     <use xlink:href="#DejaVuSans-6c" transform="translate(972.509766 0)"/>
     <use xlink:href="#DejaVuSans-65" transform="translate(1000.292969 0)"/>
     <use xlink:href="#DejaVuSans-6e" transform="translate(1061.816406 0)"/>
     <use xlink:href="#DejaVuSans-73" transform="translate(1125.195312 0)"/>
     <use xlink:href="#DejaVuSans-69" transform="translate(1177.294922 0)"/>
     <use xlink:href="#DejaVuSans-6e" transform="translate(1205.078125 0)"/>
     <use xlink:href="#DejaVuSans-67" transform="translate(1268.457031 0)"/>
     <use xlink:href="#DejaVuSans-5f" transform="translate(1331.933594 0)"/>
     <use xlink:href="#DejaVuSans-74" transform="translate(1381.933594 0)"/>
     <use xlink:href="#DejaVuSans-65" transform="translate(1421.142578 0)"/>
     <use xlink:href="#DejaVuSans-73" transform="translate(1482.666016 0)"/>
     <use xlink:href="#DejaVuSans-74" transform="translate(1534.765625 0)"/>
     <use xlink:href="#DejaVuSans-20" transform="translate(1573.974609 0)"/>
     <use xlink:href="#DejaVuSans-3d" transform="translate(1605.761719 0)"/>
     <use xlink:href="#DejaVuSans-20" transform="translate(1689.550781 0)"/>
     <use xlink:href="#DejaVuSans-54" transform="translate(1721.337891 0)"/>
     <use xlink:href="#DejaVuSans-48" transform="translate(1782.421875 0)"/>
     <use xlink:href="#DejaVuSans-45" transform="translate(1857.617188 0)"/>
     <use xlink:href="#DejaVuSans-4f" transform="translate(1920.800781 0)"/>
     <use xlink:href="#DejaVuSans-52" transform="translate(1999.511719 0)"/>
     <use xlink:href="#DejaVuSans-45" transform="translate(2068.994141 0)"/>
     <use xlink:href="#DejaVuSans-54" transform="translate(2132.177734 0)"/>
     <use xlink:href="#DejaVuSans-49" transform="translate(2193.261719 0)"/>
     <use xlink:href="#DejaVuSans-43" transform="translate(2222.753906 0)"/>
     <use xlink:href="#DejaVuSans-41" transform="translate(2292.578125 0)"/>
     <use xlink:href="#DejaVuSans-4c" transform="translate(2360.986328 0)"/>
     <use xlink:href="#DejaVuSans-4c" transform="translate(2416.699219 0)"/>
     <use xlink:href="#DejaVuSans-59" transform="translate(2459.162109 0)"/>
     <use xlink:href="#DejaVuSans-5f" transform="translate(2520.246094 0)"/>
     <use xlink:href="#DejaVuSans-44" transform="translate(2570.246094 0)"/>
     <use xlink:href="#DejaVuSans-45" transform="translate(2647.248047 0)"/>
     <use xlink:href="#DejaVuSans-46" transform="translate(2710.431641 0)"/>
     <use xlink:href="#DejaVuSans-49" transform="translate(2767.951172 0)"/>
     <use xlink:href="#DejaVuSans-4e" transform="translate(2797.443359 0)"/>
     <use xlink:href="#DejaVuSans-45" transform="translate(2872.248047 0)"/>
     <use xlink:href="#DejaVuSans-44" transform="translate(2935.431641 0)"/>
    </g>
    <!-- observer_principle_lensing_proof = NOT_YET -->
    <g transform="translate(163.115859 271.298773) scale(0.09 -0.09)">
     <use xlink:href="#DejaVuSans-6f"/>
     <use xlink:href="#DejaVuSans-62" transform="translate(61.181641 0)"/>
     <use xlink:href="#DejaVuSans-73" transform="translate(124.658203 0)"/>
     <use xlink:href="#DejaVuSans-65" transform="translate(176.757812 0)"/>
     <use xlink:href="#DejaVuSans-72" transform="translate(238.28125 0)"/>
     <use xlink:href="#DejaVuSans-76" transform="translate(279.394531 0)"/>
     <use xlink:href="#DejaVuSans-65" transform="translate(338.574219 0)"/>
     <use xlink:href="#DejaVuSans-72" transform="translate(400.097656 0)"/>
     <use xlink:href="#DejaVuSans-5f" transform="translate(441.210938 0)"/>
     <use xlink:href="#DejaVuSans-70" transform="translate(491.210938 0)"/>
     <use xlink:href="#DejaVuSans-72" transform="translate(554.6875 0)"/>
     <use xlink:href="#DejaVuSans-69" transform="translate(595.800781 0)"/>
     <use xlink:href="#DejaVuSans-6e" transform="translate(623.583984 0)"/>
     <use xlink:href="#DejaVuSans-63" transform="translate(686.962891 0)"/>
     <use xlink:href="#DejaVuSans-69" transform="translate(741.943359 0)"/>
     <use xlink:href="#DejaVuSans-70" transform="translate(769.726562 0)"/>
     <use xlink:href="#DejaVuSans-6c" transform="translate(833.203125 0)"/>
     <use xlink:href="#DejaVuSans-65" transform="translate(860.986328 0)"/>
     <use xlink:href="#DejaVuSans-5f" transform="translate(922.509766 0)"/>
     <use xlink:href="#DejaVuSans-6c" transform="translate(972.509766 0)"/>
     <use xlink:href="#DejaVuSans-65" transform="translate(1000.292969 0)"/>
     <use xlink:href="#DejaVuSans-6e" transform="translate(1061.816406 0)"/>
     <use xlink:href="#DejaVuSans-73" transform="translate(1125.195312 0)"/>
     <use xlink:href="#DejaVuSans-69" transform="translate(1177.294922 0)"/>
     <use xlink:href="#DejaVuSans-6e" transform="translate(1205.078125 0)"/>
     <use xlink:href="#DejaVuSans-67" transform="translate(1268.457031 0)"/>
     <use xlink:href="#DejaVuSans-5f" transform="translate(1331.933594 0)"/>
     <use xlink:href="#DejaVuSans-70" transform="translate(1381.933594 0)"/>
     <use xlink:href="#DejaVuSans-72" transform="translate(1445.410156 0)"/>
     <use xlink:href="#DejaVuSans-6f" transform="translate(1484.273438 0)"/>
     <use xlink:href="#DejaVuSans-6f" transform="translate(1545.455078 0)"/>
     <use xlink:href="#DejaVuSans-66" transform="translate(1606.636719 0)"/>
     <use xlink:href="#DejaVuSans-20" transform="translate(1641.841797 0)"/>
     <use xlink:href="#DejaVuSans-3d" transform="translate(1673.628906 0)"/>
     <use xlink:href="#DejaVuSans-20" transform="translate(1757.417969 0)"/>
     <use xlink:href="#DejaVuSans-4e" transform="translate(1789.205078 0)"/>
     <use xlink:href="#DejaVuSans-4f" transform="translate(1864.009766 0)"/>
     <use xlink:href="#DejaVuSans-54" transform="translate(1942.720703 0)"/>
     <use xlink:href="#DejaVuSans-5f" transform="translate(2003.804688 0)"/>
     <use xlink:href="#DejaVuSans-59" transform="translate(2053.804688 0)"/>
     <use xlink:href="#DejaVuSans-45" transform="translate(2114.888672 0)"/>
     <use xlink:href="#DejaVuSans-54" transform="translate(2178.072266 0)"/>
    </g>
   </g>
  </g>
 </g>
 <defs>
  <clipPath id="pbc0529bad0">
   <rect x="7.2" y="7.2" width="513.36" height="288.288"/>
  </clipPath>
 </defs>
</svg>
