<?xml version="1.0" encoding="utf-8" standalone="no"?>
<!DOCTYPE svg PUBLIC "-//W3C//DTD SVG 1.1//EN"
  "http://www.w3.org/Graphics/SVG/1.1/DTD/svg11.dtd">
<svg xmlns:xlink="http://www.w3.org/1999/xlink" width="516.6pt" height="280.512pt" viewBox="0 0 516.6 280.512" xmlns="http://www.w3.org/2000/svg" version="1.1">
 <metadata>
  <rdf:RDF xmlns:dc="http://purl.org/dc/elements/1.1/" xmlns:cc="http://creativecommons.org/ns#" xmlns:rdf="http://www.w3.org/1999/02/22-rdf-syntax-ns#">
   <cc:Work>
    <dc:type rdf:resource="http://purl.org/dc/dcmitype/StillImage"/>
    <dc:date>2026-05-22T07:34:40.477093</dc:date>
    <dc:format>image/svg+xml</dc:format>
    <dc:creator>
     <cc:Agent>
      <dc:title>Matplotlib v3.10.9, https://matplotlib.org/</dc:title>
     </cc:Agent>
    </dc:creator>
   </cc:Work>
  </rdf:RDF>
 </metadata>
 <defs>
  <style type="text/css">*{stroke-linejoin: round; stroke-linecap: butt}</style>
 </defs>
 <g id="figure_1">
  <g id="patch_1">
   <path d="M 0 280.512 
L 516.6 280.512 
L 516.6 0 
L 0 0 
z
" style="fill: #ffffff"/>
  </g>
  <g id="axes_1">
   <g id="patch_2">
    <path d="M 82.53 154.89216 
C 92.518875 154.89216 102.099976 152.789217 109.163177 149.04648 
C 116.226378 145.303743 120.195 140.22679 120.195 134.93376 
C 120.195 129.64073 116.226378 124.563777 109.163177 120.82104 
C 102.099976 117.078303 92.518875 114.97536 82.53 114.97536 
C 72.541125 114.97536 62.960024 117.078303 55.896823 120.82104 
C 48.833622 124.563777 44.865 129.64073 44.865 134.93376 
C 44.865 140.22679 48.833622 145.303743 55.896823 149.04648 
C 62.960024 152.789217 72.541125 154.89216 82.53 154.89216 
z
" clip-path="url(#p66225fd248)" style="fill: #f59e0b; stroke: #92400e; stroke-width: 1.5; stroke-linejoin: miter"/>
   </g>
   <g id="patch_3">
    <path d="M 248.256 162.87552 
C 262.240425 162.87552 275.653966 159.9314 285.542448 154.691568 
C 295.430929 149.451736 300.987 142.344001 300.987 134.93376 
C 300.987 127.523519 295.430929 120.415784 285.542448 115.175952 
C 275.653966 109.93612 262.240425 106.992 248.256 106.992 
C 234.271575 106.992 220.858034 109.93612 210.969552 115.175952 
C 201.081071 120.415784 195.525 127.523519 195.525 134.93376 
C 195.525 142.344001 201.081071 149.451736 210.969552 154.691568 
C 220.858034 159.9314 234.271575 162.87552 248.256 162.87552 
z
" clip-path="url(#p66225fd248)" style="fill: #cbd5e1; stroke: #475569; stroke-width: 1.6; stroke-linejoin: miter"/>
   </g>
   <g id="patch_4">
    <path d="M 429.048 149.56992 
C 436.373175 149.56992 443.399316 148.027762 448.578996 145.283088 
C 453.758677 142.538414 456.669 138.815315 456.669 134.93376 
C 456.669 131.052205 453.758677 127.329106 448.578996 124.584432 
C 443.399316 121.839758 436.373175 120.2976 429.048 120.2976 
C 421.722825 120.2976 414.696684 121.839758 409.517004 124.584432 
C 404.337323 127.329106 401.427 131.052205 401.427 134.93376 
C 401.427 138.815315 404.337323 142.538414 409.517004 145.283088 
C 414.696684 148.027762 421.722825 149.56992 429.048 149.56992 
z
" clip-path="url(#p66225fd248)" style="fill: #93c5fd; stroke: #1d4ed8; stroke-width: 1.5; stroke-linejoin: miter"/>
   </g>
   <g id="patch_5">
    <path d="M 32.31 256.813056 
L 172.926 256.813056 
Q 181.9656 256.813056 181.9656 252.02304 
L 181.9656 214.76736 
Q 181.9656 209.977344 172.926 209.977344 
L 32.31 209.977344 
Q 23.2704 209.977344 23.2704 214.76736 
L 23.2704 252.02304 
Q 23.2704 256.813056 32.31 256.813056 
z
" clip-path="url(#p66225fd248)" style="fill: #fff7ed; stroke: #c2410c; stroke-width: 1.2; stroke-linejoin: miter"/>
   </g>
   <g id="patch_6">
    <path d="M 187.992 256.813056 
L 328.608 256.813056 
Q 337.6476 256.813056 337.6476 252.02304 
L 337.6476 214.76736 
Q 337.6476 209.977344 328.608 209.977344 
L 187.992 209.977344 
Q 178.9524 209.977344 178.9524 214.76736 
L 178.9524 252.02304 
Q 178.9524 256.813056 187.992 256.813056 
z
" clip-path="url(#p66225fd248)" style="fill: #eff6ff; stroke: #1d4ed8; stroke-width: 1.2; stroke-linejoin: miter"/>
   </g>
   <g id="patch_7">
    <path d="M 343.674 256.813056 
L 479.268 256.813056 
Q 488.3076 256.813056 488.3076 252.02304 
L 488.3076 214.76736 
Q 488.3076 209.977344 479.268 209.977344 
L 343.674 209.977344 
Q 334.6344 209.977344 334.6344 214.76736 
L 334.6344 252.02304 
Q 334.6344 256.813056 343.674 256.813056 
z
" clip-path="url(#p66225fd248)" style="fill: #f0fdf4; stroke: #15803d; stroke-width: 1.2; stroke-linejoin: miter"/>
   </g>
   <g id="patch_8">
    <path d="M 174.923275 233.3952 
Q 180.457382 233.3952 184.314439 233.3952 
" clip-path="url(#p66225fd248)" style="fill: none; stroke: #334155; stroke-width: 1.5; stroke-linecap: round"/>
    <path d="M 179.114439 230.7952 
L 184.314439 233.3952 
L 179.114439 235.9952 
z
" clip-path="url(#p66225fd248)" style="fill: #334155; stroke: #334155; stroke-width: 1.5; stroke-linecap: round"/>
   </g>
   <g id="patch_9">
    <path d="M 330.605275 233.3952 
Q 336.139382 233.3952 339.996439 233.3952 
" clip-path="url(#p66225fd248)" style="fill: none; stroke: #334155; stroke-width: 1.5; stroke-linecap: round"/>
    <path d="M 334.796439 230.7952 
L 339.996439 233.3952 
L 334.796439 235.9952 
z
" clip-path="url(#p66225fd248)" style="fill: #334155; stroke: #334155; stroke-width: 1.5; stroke-linecap: round"/>
   </g>
   <g id="line2d_1">
    <path d="M 107.64 134.93376 
L 193.014 76.38912 
L 298.476 93.952512 
L 403.938 134.93376 
" clip-path="url(#p66225fd248)" style="fill: none; stroke: #2563eb; stroke-opacity: 0.9; stroke-width: 2; stroke-linecap: square"/>
   </g>
   <g id="line2d_2">
    <path d="M 107.64 134.93376 
L 193.014 108.32256 
L 298.476 116.30592 
L 403.938 134.93376 
" clip-path="url(#p66225fd248)" style="fill: none; stroke: #7c3aed; stroke-opacity: 0.9; stroke-width: 2; stroke-linecap: square"/>
   </g>
   <g id="line2d_3">
    <path d="M 107.64 134.93376 
L 193.014 161.54496 
L 298.476 153.5616 
L 403.938 134.93376 
" clip-path="url(#p66225fd248)" style="fill: none; stroke: #059669; stroke-opacity: 0.9; stroke-width: 2; stroke-linecap: square"/>
   </g>
   <g id="line2d_4">
    <path d="M 107.64 134.93376 
L 193.014 193.4784 
L 298.476 175.915008 
L 403.938 134.93376 
" clip-path="url(#p66225fd248)" style="fill: none; stroke: #dc2626; stroke-opacity: 0.9; stroke-width: 2; stroke-linecap: square"/>
   </g>
   <g id="text_1">
    <!-- background -->
    <g transform="translate(52.958906 177.126757) scale(0.1 -0.1)">
     <defs>
      <path id="DejaVuSans-62" d="M 3116 1747 
Q 3116 2381 2855 2742 
Q 2594 3103 2138 3103 
Q 1681 3103 1420 2742 
Q 1159 2381 1159 1747 
Q 1159 1113 1420 752 
Q 1681 391 2138 391 
Q 2594 391 2855 752 
Q 3116 1113 3116 1747 
z
M 1159 2969 
Q 1341 3281 1617 3432 
Q 1894 3584 2278 3584 
Q 2916 3584 3314 3078 
Q 3713 2572 3713 1747 
Q 3713 922 3314 415 
Q 2916 -91 2278 -91 
Q 1894 -91 1617 61 
Q 1341 213 1159 525 
L 1159 0 
L 581 0 
L 581 4863 
L 1159 4863 
L 1159 2969 
z
" transform="scale(0.015625)"/>
      <path id="DejaVuSans-61" d="M 2194 1759 
Q 1497 1759 1228 1600 
Q 959 1441 959 1056 
Q 959 750 1161 570 
Q 1363 391 1709 391 
Q 2188 391 2477 730 
Q 2766 1069 2766 1631 
L 2766 1759 
L 2194 1759 
z
M 3341 1997 
L 3341 0 
L 2766 0 
L 2766 531 
Q 2569 213 2275 61 
Q 1981 -91 1556 -91 
Q 1019 -91 701 211 
Q 384 513 384 1019 
Q 384 1609 779 1909 
Q 1175 2209 1959 2209 
L 2766 2209 
L 2766 2266 
Q 2766 2663 2505 2880 
Q 2244 3097 1772 3097 
Q 1472 3097 1187 3025 
Q 903 2953 641 2809 
L 641 3341 
Q 956 3463 1253 3523 
Q 1550 3584 1831 3584 
Q 2591 3584 2966 3190 
Q 3341 2797 3341 1997 
z
" transform="scale(0.015625)"/>
      <path id="DejaVuSans-63" d="M 3122 3366 
L 3122 2828 
Q 2878 2963 2633 3030 
Q 2388 3097 2138 3097 
Q 1578 3097 1268 2742 
Q 959 2388 959 1747 
Q 959 1106 1268 751 
Q 1578 397 2138 397 
Q 2388 397 2633 464 
Q 2878 531 3122 666 
L 3122 134 
Q 2881 22 2623 -34 
Q 2366 -91 2075 -91 
Q 1284 -91 818 406 
Q 353 903 353 1747 
Q 353 2603 823 3093 
Q 1294 3584 2113 3584 
Q 2378 3584 2631 3529 
Q 2884 3475 3122 3366 
z
" transform="scale(0.015625)"/>
      <path id="DejaVuSans-6b" d="M 581 4863 
L 1159 4863 
L 1159 1991 
L 2875 3500 
L 3609 3500 
L 1753 1863 
L 3688 0 
L 2938 0 
L 1159 1709 
L 1159 0 
L 581 0 
L 581 4863 
z
" transform="scale(0.015625)"/>
      <path id="DejaVuSans-67" d="M 2906 1791 
Q 2906 2416 2648 2759 
Q 2391 3103 1925 3103 
Q 1463 3103 1205 2759 
Q 947 2416 947 1791 
Q 947 1169 1205 825 
Q 1463 481 1925 481 
Q 2391 481 2648 825 
Q 2906 1169 2906 1791 
z
M 3481 434 
Q 3481 -459 3084 -895 
Q 2688 -1331 1869 -1331 
Q 1566 -1331 1297 -1286 
Q 1028 -1241 775 -1147 
L 775 -588 
Q 1028 -725 1275 -790 
Q 1522 -856 1778 -856 
Q 2344 -856 2625 -561 
Q 2906 -266 2906 331 
L 2906 616 
Q 2728 306 2450 153 
Q 2172 0 1784 0 
Q 1141 0 747 490 
Q 353 981 353 1791 
Q 353 2603 747 3093 
Q 1141 3584 1784 3584 
Q 2172 3584 2450 3431 
Q 2728 3278 2906 2969 
L 2906 3500 
L 3481 3500 
L 3481 434 
z
" transform="scale(0.015625)"/>
      <path id="DejaVuSans-72" d="M 2631 2963 
Q 2534 3019 2420 3045 
Q 2306 3072 2169 3072 
Q 1681 3072 1420 2755 
Q 1159 2438 1159 1844 
L 1159 0 
L 581 0 
L 581 3500 
L 1159 3500 
L 1159 2956 
Q 1341 3275 1631 3429 
Q 1922 3584 2338 3584 
Q 2397 3584 2469 3576 
Q 2541 3569 2628 3553 
L 2631 2963 
z
" transform="scale(0.015625)"/>
      <path id="DejaVuSans-6f" d="M 1959 3097 
Q 1497 3097 1228 2736 
Q 959 2375 959 1747 
Q 959 1119 1226 758 
Q 1494 397 1959 397 
Q 2419 397 2687 759 
Q 2956 1122 2956 1747 
Q 2956 2369 2687 2733 
Q 2419 3097 1959 3097 
z
M 1959 3584 
Q 2709 3584 3137 3096 
Q 3566 2609 3566 1747 
Q 3566 888 3137 398 
Q 2709 -91 1959 -91 
Q 1206 -91 779 398 
Q 353 888 353 1747 
Q 353 2609 779 3096 
Q 1206 3584 1959 3584 
z
" transform="scale(0.015625)"/>
      <path id="DejaVuSans-75" d="M 544 1381 
L 544 3500 
L 1119 3500 
L 1119 1403 
Q 1119 906 1312 657 
Q 1506 409 1894 409 
Q 2359 409 2629 706 
Q 2900 1003 2900 1516 
L 2900 3500 
L 3475 3500 
L 3475 0 
L 2900 0 
L 2900 538 
Q 2691 219 2414 64 
Q 2138 -91 1772 -91 
Q 1169 -91 856 284 
Q 544 659 544 1381 
z
M 1991 3584 
L 1991 3584 
z
" transform="scale(0.015625)"/>
      <path id="DejaVuSans-6e" d="M 3513 2113 
L 3513 0 
L 2938 0 
L 2938 2094 
Q 2938 2591 2744 2837 
Q 2550 3084 2163 3084 
Q 1697 3084 1428 2787 
Q 1159 2491 1159 1978 
L 1159 0 
L 581 0 
L 581 3500 
L 1159 3500 
L 1159 2956 
Q 1366 3272 1645 3428 
Q 1925 3584 2291 3584 
Q 2894 3584 3203 3211 
Q 3513 2838 3513 2113 
z
" transform="scale(0.015625)"/>
      <path id="DejaVuSans-64" d="M 2906 2969 
L 2906 4863 
L 3481 4863 
L 3481 0 
L 2906 0 
L 2906 525 
Q 2725 213 2448 61 
Q 2172 -91 1784 -91 
Q 1150 -91 751 415 
Q 353 922 353 1747 
Q 353 2572 751 3078 
Q 1150 3584 1784 3584 
Q 2172 3584 2448 3432 
Q 2725 3281 2906 2969 
z
M 947 1747 
Q 947 1113 1208 752 
Q 1469 391 1925 391 
Q 2381 391 2643 752 
Q 2906 1113 2906 1747 
Q 2906 2381 2643 2742 
Q 2381 3103 1925 3103 
Q 1469 3103 1208 2742 
Q 947 2381 947 1747 
z
" transform="scale(0.015625)"/>
     </defs>
     <use xlink:href="#DejaVuSans-62"/>
     <use xlink:href="#DejaVuSans-61" transform="translate(63.476562 0)"/>
     <use xlink:href="#DejaVuSans-63" transform="translate(124.755859 0)"/>
     <use xlink:href="#DejaVuSans-6b" transform="translate(179.736328 0)"/>
     <use xlink:href="#DejaVuSans-67" transform="translate(237.646484 0)"/>
     <use xlink:href="#DejaVuSans-72" transform="translate(301.123047 0)"/>
     <use xlink:href="#DejaVuSans-6f" transform="translate(339.986328 0)"/>
     <use xlink:href="#DejaVuSans-75" transform="translate(401.167969 0)"/>
     <use xlink:href="#DejaVuSans-6e" transform="translate(464.546875 0)"/>
     <use xlink:href="#DejaVuSans-64" transform="translate(527.925781 0)"/>
    </g>
    <!-- source -->
    <g transform="translate(65.928438 188.32457) scale(0.1 -0.1)">
     <defs>
      <path id="DejaVuSans-73" d="M 2834 3397 
L 2834 2853 
Q 2591 2978 2328 3040 
Q 2066 3103 1784 3103 
Q 1356 3103 1142 2972 
Q 928 2841 928 2578 
Q 928 2378 1081 2264 
Q 1234 2150 1697 2047 
L 1894 2003 
Q 2506 1872 2764 1633 
Q 3022 1394 3022 966 
Q 3022 478 2636 193 
Q 2250 -91 1575 -91 
Q 1294 -91 989 -36 
Q 684 19 347 128 
L 347 722 
Q 666 556 975 473 
Q 1284 391 1588 391 
Q 1994 391 2212 530 
Q 2431 669 2431 922 
Q 2431 1156 2273 1281 
Q 2116 1406 1581 1522 
L 1381 1569 
Q 847 1681 609 1914 
Q 372 2147 372 2553 
Q 372 3047 722 3315 
Q 1072 3584 1716 3584 
Q 2034 3584 2315 3537 
Q 2597 3491 2834 3397 
z
" transform="scale(0.015625)"/>
      <path id="DejaVuSans-65" d="M 3597 1894 
L 3597 1613 
L 953 1613 
Q 991 1019 1311 708 
Q 1631 397 2203 397 
Q 2534 397 2845 478 
Q 3156 559 3463 722 
L 3463 178 
Q 3153 47 2828 -22 
Q 2503 -91 2169 -91 
Q 1331 -91 842 396 
Q 353 884 353 1716 
Q 353 2575 817 3079 
Q 1281 3584 2069 3584 
Q 2775 3584 3186 3129 
Q 3597 2675 3597 1894 
z
M 3022 2063 
Q 3016 2534 2758 2815 
Q 2500 3097 2075 3097 
Q 1594 3097 1305 2825 
Q 1016 2553 972 2059 
L 3022 2063 
z
" transform="scale(0.015625)"/>
     </defs>
     <use xlink:href="#DejaVuSans-73"/>
     <use xlink:href="#DejaVuSans-6f" transform="translate(52.099609 0)"/>
     <use xlink:href="#DejaVuSans-75" transform="translate(113.28125 0)"/>
     <use xlink:href="#DejaVuSans-72" transform="translate(176.660156 0)"/>
     <use xlink:href="#DejaVuSans-63" transform="translate(215.523438 0)"/>
     <use xlink:href="#DejaVuSans-65" transform="translate(270.503906 0)"/>
    </g>
   </g>
   <g id="text_2">
    <!-- lensing -->
    <g transform="translate(230.284906 185.110117) scale(0.1 -0.1)">
     <defs>
      <path id="DejaVuSans-6c" d="M 603 4863 
L 1178 4863 
L 1178 0 
L 603 0 
L 603 4863 
z
" transform="scale(0.015625)"/>
      <path id="DejaVuSans-69" d="M 603 3500 
L 1178 3500 
L 1178 0 
L 603 0 
L 603 3500 
z
M 603 4863 
L 1178 4863 
L 1178 4134 
L 603 4134 
L 603 4863 
z
" transform="scale(0.015625)"/>
     </defs>
     <use xlink:href="#DejaVuSans-6c"/>
     <use xlink:href="#DejaVuSans-65" transform="translate(27.783203 0)"/>
     <use xlink:href="#DejaVuSans-6e" transform="translate(89.306641 0)"/>
     <use xlink:href="#DejaVuSans-73" transform="translate(152.685547 0)"/>
     <use xlink:href="#DejaVuSans-69" transform="translate(204.785156 0)"/>
     <use xlink:href="#DejaVuSans-6e" transform="translate(232.568359 0)"/>
     <use xlink:href="#DejaVuSans-67" transform="translate(295.947266 0)"/>
    </g>
    <!-- mass -->
    <g transform="translate(235.11225 196.30793) scale(0.1 -0.1)">
     <defs>
      <path id="DejaVuSans-6d" d="M 3328 2828 
Q 3544 3216 3844 3400 
Q 4144 3584 4550 3584 
Q 5097 3584 5394 3201 
Q 5691 2819 5691 2113 
L 5691 0 
L 5113 0 
L 5113 2094 
Q 5113 2597 4934 2840 
Q 4756 3084 4391 3084 
Q 3944 3084 3684 2787 
Q 3425 2491 3425 1978 
L 3425 0 
L 2847 0 
L 2847 2094 
Q 2847 2600 2669 2842 
Q 2491 3084 2119 3084 
Q 1678 3084 1418 2786 
Q 1159 2488 1159 1978 
L 1159 0 
L 581 0 
L 581 3500 
L 1159 3500 
L 1159 2956 
Q 1356 3278 1631 3431 
Q 1906 3584 2284 3584 
Q 2666 3584 2933 3390 
Q 3200 3197 3328 2828 
z
" transform="scale(0.015625)"/>
     </defs>
     <use xlink:href="#DejaVuSans-6d"/>
     <use xlink:href="#DejaVuSans-61" transform="translate(97.412109 0)"/>
     <use xlink:href="#DejaVuSans-73" transform="translate(158.691406 0)"/>
     <use xlink:href="#DejaVuSans-73" transform="translate(210.791016 0)"/>
    </g>
   </g>
   <g id="text_3">
    <!-- observer -->
    <g transform="translate(406.986281 174.465637) scale(0.1 -0.1)">
     <defs>
      <path id="DejaVuSans-76" d="M 191 3500 
L 800 3500 
L 1894 563 
L 2988 3500 
L 3597 3500 
L 2284 0 
L 1503 0 
L 191 3500 
z
" transform="scale(0.015625)"/>
     </defs>
     <use xlink:href="#DejaVuSans-6f"/>
     <use xlink:href="#DejaVuSans-62" transform="translate(61.181641 0)"/>
     <use xlink:href="#DejaVuSans-73" transform="translate(124.658203 0)"/>
     <use xlink:href="#DejaVuSans-65" transform="translate(176.757812 0)"/>
     <use xlink:href="#DejaVuSans-72" transform="translate(238.28125 0)"/>
     <use xlink:href="#DejaVuSans-76" transform="translate(279.394531 0)"/>
     <use xlink:href="#DejaVuSans-65" transform="translate(338.574219 0)"/>
     <use xlink:href="#DejaVuSans-72" transform="translate(400.097656 0)"/>
    </g>
   </g>
   <g id="text_4">
    <!-- image A -->
    <g style="fill: #2563eb" transform="translate(308.52 87.619046) scale(0.088 -0.088)">
     <defs>
      <path id="DejaVuSans-20" transform="scale(0.015625)"/>
      <path id="DejaVuSans-41" d="M 2188 4044 
L 1331 1722 
L 3047 1722 
L 2188 4044 
z
M 1831 4666 
L 2547 4666 
L 4325 0 
L 3669 0 
L 3244 1197 
L 1141 1197 
L 716 0 
L 50 0 
L 1831 4666 
z
" transform="scale(0.015625)"/>
     </defs>
     <use xlink:href="#DejaVuSans-69"/>
     <use xlink:href="#DejaVuSans-6d" transform="translate(27.783203 0)"/>
     <use xlink:href="#DejaVuSans-61" transform="translate(125.195312 0)"/>
     <use xlink:href="#DejaVuSans-67" transform="translate(186.474609 0)"/>
     <use xlink:href="#DejaVuSans-65" transform="translate(249.951172 0)"/>
     <use xlink:href="#DejaVuSans-20" transform="translate(311.474609 0)"/>
     <use xlink:href="#DejaVuSans-41" transform="translate(343.261719 0)"/>
    </g>
   </g>
   <g id="text_5">
    <!-- image B -->
    <g style="fill: #7c3aed" transform="translate(308.52 111.249792) scale(0.088 -0.088)">
     <defs>
      <path id="DejaVuSans-42" d="M 1259 2228 
L 1259 519 
L 2272 519 
Q 2781 519 3026 730 
Q 3272 941 3272 1375 
Q 3272 1813 3026 2020 
Q 2781 2228 2272 2228 
L 1259 2228 
z
M 1259 4147 
L 1259 2741 
L 2194 2741 
Q 2656 2741 2882 2914 
Q 3109 3088 3109 3444 
Q 3109 3797 2882 3972 
Q 2656 4147 2194 4147 
L 1259 4147 
z
M 628 4666 
L 2241 4666 
Q 2963 4666 3353 4366 
Q 3744 4066 3744 3513 
Q 3744 3084 3544 2831 
Q 3344 2578 2956 2516 
Q 3422 2416 3680 2098 
Q 3938 1781 3938 1306 
Q 3938 681 3513 340 
Q 3088 0 2303 0 
L 628 0 
L 628 4666 
z
" transform="scale(0.015625)"/>
     </defs>
     <use xlink:href="#DejaVuSans-69"/>
     <use xlink:href="#DejaVuSans-6d" transform="translate(27.783203 0)"/>
     <use xlink:href="#DejaVuSans-61" transform="translate(125.195312 0)"/>
     <use xlink:href="#DejaVuSans-67" transform="translate(186.474609 0)"/>
     <use xlink:href="#DejaVuSans-65" transform="translate(249.951172 0)"/>
     <use xlink:href="#DejaVuSans-20" transform="translate(311.474609 0)"/>
     <use xlink:href="#DejaVuSans-42" transform="translate(343.261719 0)"/>
    </g>
   </g>
   <g id="text_6">
    <!-- image C -->
    <g style="fill: #059669" transform="translate(308.52 150.634368) scale(0.088 -0.088)">
     <defs>
      <path id="DejaVuSans-43" d="M 4122 4306 
L 4122 3641 
Q 3803 3938 3442 4084 
Q 3081 4231 2675 4231 
Q 1875 4231 1450 3742 
Q 1025 3253 1025 2328 
Q 1025 1406 1450 917 
Q 1875 428 2675 428 
Q 3081 428 3442 575 
Q 3803 722 4122 1019 
L 4122 359 
Q 3791 134 3420 21 
Q 3050 -91 2638 -91 
Q 1578 -91 968 557 
Q 359 1206 359 2328 
Q 359 3453 968 4101 
Q 1578 4750 2638 4750 
Q 3056 4750 3426 4639 
Q 3797 4528 4122 4306 
z
" transform="scale(0.015625)"/>
     </defs>
     <use xlink:href="#DejaVuSans-69"/>
     <use xlink:href="#DejaVuSans-6d" transform="translate(27.783203 0)"/>
     <use xlink:href="#DejaVuSans-61" transform="translate(125.195312 0)"/>
     <use xlink:href="#DejaVuSans-67" transform="translate(186.474609 0)"/>
     <use xlink:href="#DejaVuSans-65" transform="translate(249.951172 0)"/>
     <use xlink:href="#DejaVuSans-20" transform="translate(311.474609 0)"/>
     <use xlink:href="#DejaVuSans-43" transform="translate(343.261719 0)"/>
    </g>
   </g>
   <g id="text_7">
    <!-- image D -->
    <g style="fill: #dc2626" transform="translate(308.52 174.265114) scale(0.088 -0.088)">
     <defs>
      <path id="DejaVuSans-44" d="M 1259 4147 
L 1259 519 
L 2022 519 
Q 2988 519 3436 956 
Q 3884 1394 3884 2338 
Q 3884 3275 3436 3711 
Q 2988 4147 2022 4147 
L 1259 4147 
z
M 628 4666 
L 1925 4666 
Q 3281 4666 3915 4102 
Q 4550 3538 4550 2338 
Q 4550 1131 3912 565 
Q 3275 0 1925 0 
L 628 0 
L 628 4666 
z
" transform="scale(0.015625)"/>
     </defs>
     <use xlink:href="#DejaVuSans-69"/>
     <use xlink:href="#DejaVuSans-6d" transform="translate(27.783203 0)"/>
     <use xlink:href="#DejaVuSans-61" transform="translate(125.195312 0)"/>
     <use xlink:href="#DejaVuSans-67" transform="translate(186.474609 0)"/>
     <use xlink:href="#DejaVuSans-65" transform="translate(249.951172 0)"/>
     <use xlink:href="#DejaVuSans-20" transform="translate(311.474609 0)"/>
     <use xlink:href="#DejaVuSans-44" transform="translate(343.261719 0)"/>
    </g>
   </g>
   <g id="text_8">
    <!-- source-side model -->
    <g transform="translate(59.099836 230.697645) scale(0.095 -0.095)">
     <defs>
      <path id="DejaVuSans-2d" d="M 313 2009 
L 1997 2009 
L 1997 1497 
L 313 1497 
L 313 2009 
z
" transform="scale(0.015625)"/>
     </defs>
     <use xlink:href="#DejaVuSans-73"/>
     <use xlink:href="#DejaVuSans-6f" transform="translate(52.099609 0)"/>
     <use xlink:href="#DejaVuSans-75" transform="translate(113.28125 0)"/>
     <use xlink:href="#DejaVuSans-72" transform="translate(176.660156 0)"/>
     <use xlink:href="#DejaVuSans-63" transform="translate(215.523438 0)"/>
     <use xlink:href="#DejaVuSans-65" transform="translate(270.503906 0)"/>
     <use xlink:href="#DejaVuSans-2d" transform="translate(332.027344 0)"/>
     <use xlink:href="#DejaVuSans-73" transform="translate(368.111328 0)"/>
     <use xlink:href="#DejaVuSans-69" transform="translate(420.210938 0)"/>
     <use xlink:href="#DejaVuSans-64" transform="translate(447.994141 0)"/>
     <use xlink:href="#DejaVuSans-65" transform="translate(511.470703 0)"/>
     <use xlink:href="#DejaVuSans-20" transform="translate(572.994141 0)"/>
     <use xlink:href="#DejaVuSans-6d" transform="translate(604.78125 0)"/>
     <use xlink:href="#DejaVuSans-6f" transform="translate(702.193359 0)"/>
     <use xlink:href="#DejaVuSans-64" transform="translate(763.375 0)"/>
     <use xlink:href="#DejaVuSans-65" transform="translate(826.851562 0)"/>
     <use xlink:href="#DejaVuSans-6c" transform="translate(888.375 0)"/>
    </g>
    <!-- is not enough -->
    <g transform="translate(70.150266 241.335567) scale(0.095 -0.095)">
     <defs>
      <path id="DejaVuSans-74" d="M 1172 4494 
L 1172 3500 
L 2356 3500 
L 2356 3053 
L 1172 3053 
L 1172 1153 
Q 1172 725 1289 603 
Q 1406 481 1766 481 
L 2356 481 
L 2356 0 
L 1766 0 
Q 1100 0 847 248 
Q 594 497 594 1153 
L 594 3053 
L 172 3053 
L 172 3500 
L 594 3500 
L 594 4494 
L 1172 4494 
z
" transform="scale(0.015625)"/>
      <path id="DejaVuSans-68" d="M 3513 2113 
L 3513 0 
L 2938 0 
L 2938 2094 
Q 2938 2591 2744 2837 
Q 2550 3084 2163 3084 
Q 1697 3084 1428 2787 
Q 1159 2491 1159 1978 
L 1159 0 
L 581 0 
L 581 4863 
L 1159 4863 
L 1159 2956 
Q 1366 3272 1645 3428 
Q 1925 3584 2291 3584 
Q 2894 3584 3203 3211 
Q 3513 2838 3513 2113 
z
" transform="scale(0.015625)"/>
     </defs>
     <use xlink:href="#DejaVuSans-69"/>
     <use xlink:href="#DejaVuSans-73" transform="translate(27.783203 0)"/>
     <use xlink:href="#DejaVuSans-20" transform="translate(79.882812 0)"/>
     <use xlink:href="#DejaVuSans-6e" transform="translate(111.669922 0)"/>
     <use xlink:href="#DejaVuSans-6f" transform="translate(175.048828 0)"/>
     <use xlink:href="#DejaVuSans-74" transform="translate(236.230469 0)"/>
     <use xlink:href="#DejaVuSans-20" transform="translate(275.439453 0)"/>
     <use xlink:href="#DejaVuSans-65" transform="translate(307.226562 0)"/>
     <use xlink:href="#DejaVuSans-6e" transform="translate(368.75 0)"/>
     <use xlink:href="#DejaVuSans-6f" transform="translate(432.128906 0)"/>
     <use xlink:href="#DejaVuSans-75" transform="translate(493.310547 0)"/>
     <use xlink:href="#DejaVuSans-67" transform="translate(556.689453 0)"/>
     <use xlink:href="#DejaVuSans-68" transform="translate(620.166016 0)"/>
    </g>
   </g>
   <g id="text_9">
    <!-- observer-accessible -->
    <g transform="translate(211.346992 230.697645) scale(0.095 -0.095)">
     <use xlink:href="#DejaVuSans-6f"/>
     <use xlink:href="#DejaVuSans-62" transform="translate(61.181641 0)"/>
     <use xlink:href="#DejaVuSans-73" transform="translate(124.658203 0)"/>
     <use xlink:href="#DejaVuSans-65" transform="translate(176.757812 0)"/>
     <use xlink:href="#DejaVuSans-72" transform="translate(238.28125 0)"/>
     <use xlink:href="#DejaVuSans-76" transform="translate(279.394531 0)"/>
     <use xlink:href="#DejaVuSans-65" transform="translate(338.574219 0)"/>
     <use xlink:href="#DejaVuSans-72" transform="translate(400.097656 0)"/>
     <use xlink:href="#DejaVuSans-2d" transform="translate(434.835938 0)"/>
     <use xlink:href="#DejaVuSans-61" transform="translate(470.919922 0)"/>
     <use xlink:href="#DejaVuSans-63" transform="translate(532.199219 0)"/>
     <use xlink:href="#DejaVuSans-63" transform="translate(587.179688 0)"/>
     <use xlink:href="#DejaVuSans-65" transform="translate(642.160156 0)"/>
     <use xlink:href="#DejaVuSans-73" transform="translate(703.683594 0)"/>
     <use xlink:href="#DejaVuSans-73" transform="translate(755.783203 0)"/>
     <use xlink:href="#DejaVuSans-69" transform="translate(807.882812 0)"/>
     <use xlink:href="#DejaVuSans-62" transform="translate(835.666016 0)"/>
     <use xlink:href="#DejaVuSans-6c" transform="translate(899.142578 0)"/>
     <use xlink:href="#DejaVuSans-65" transform="translate(926.925781 0)"/>
    </g>
    <!-- channels -->
    <g transform="translate(237.029648 241.335567) scale(0.095 -0.095)">
     <use xlink:href="#DejaVuSans-63"/>
     <use xlink:href="#DejaVuSans-68" transform="translate(54.980469 0)"/>
     <use xlink:href="#DejaVuSans-61" transform="translate(118.359375 0)"/>
     <use xlink:href="#DejaVuSans-6e" transform="translate(179.638672 0)"/>
     <use xlink:href="#DejaVuSans-6e" transform="translate(243.017578 0)"/>
     <use xlink:href="#DejaVuSans-65" transform="translate(306.396484 0)"/>
     <use xlink:href="#DejaVuSans-6c" transform="translate(367.919922 0)"/>
     <use xlink:href="#DejaVuSans-73" transform="translate(395.703125 0)"/>
    </g>
   </g>
   <g id="text_10">
    <!-- shared tau amplitude -->
    <g transform="translate(360.485688 230.697645) scale(0.095 -0.095)">
     <defs>
      <path id="DejaVuSans-70" d="M 1159 525 
L 1159 -1331 
L 581 -1331 
L 581 3500 
L 1159 3500 
L 1159 2969 
Q 1341 3281 1617 3432 
Q 1894 3584 2278 3584 
Q 2916 3584 3314 3078 
Q 3713 2572 3713 1747 
Q 3713 922 3314 415 
Q 2916 -91 2278 -91 
Q 1894 -91 1617 61 
Q 1341 213 1159 525 
z
M 3116 1747 
Q 3116 2381 2855 2742 
Q 2594 3103 2138 3103 
Q 1681 3103 1420 2742 
Q 1159 2381 1159 1747 
Q 1159 1113 1420 752 
Q 1681 391 2138 391 
Q 2594 391 2855 752 
Q 3116 1113 3116 1747 
z
" transform="scale(0.015625)"/>
     </defs>
     <use xlink:href="#DejaVuSans-73"/>
     <use xlink:href="#DejaVuSans-68" transform="translate(52.099609 0)"/>
     <use xlink:href="#DejaVuSans-61" transform="translate(115.478516 0)"/>
     <use xlink:href="#DejaVuSans-72" transform="translate(176.757812 0)"/>
     <use xlink:href="#DejaVuSans-65" transform="translate(215.621094 0)"/>
     <use xlink:href="#DejaVuSans-64" transform="translate(277.144531 0)"/>
     <use xlink:href="#DejaVuSans-20" transform="translate(340.621094 0)"/>
     <use xlink:href="#DejaVuSans-74" transform="translate(372.408203 0)"/>
     <use xlink:href="#DejaVuSans-61" transform="translate(411.617188 0)"/>
     <use xlink:href="#DejaVuSans-75" transform="translate(472.896484 0)"/>
     <use xlink:href="#DejaVuSans-20" transform="translate(536.275391 0)"/>
     <use xlink:href="#DejaVuSans-61" transform="translate(568.0625 0)"/>
     <use xlink:href="#DejaVuSans-6d" transform="translate(629.341797 0)"/>
     <use xlink:href="#DejaVuSans-70" transform="translate(726.753906 0)"/>
     <use xlink:href="#DejaVuSans-6c" transform="translate(790.230469 0)"/>
     <use xlink:href="#DejaVuSans-69" transform="translate(818.013672 0)"/>
     <use xlink:href="#DejaVuSans-74" transform="translate(845.796875 0)"/>
     <use xlink:href="#DejaVuSans-75" transform="translate(885.005859 0)"/>
     <use xlink:href="#DejaVuSans-64" transform="translate(948.384766 0)"/>
     <use xlink:href="#DejaVuSans-65" transform="translate(1011.861328 0)"/>
    </g>
    <!-- $\epsilon_\tau$ -->
    <g transform="translate(406.7685 241.335567) scale(0.095 -0.095)">
     <defs>
      <path id="DejaVuSans-Oblique-3b5" d="M 1263 1888 
Q 925 1963 778 2166 
Q 669 2309 669 2503 
Q 669 3034 1175 3344 
Q 1575 3588 2188 3588 
Q 2425 3588 2684 3550 
Q 2944 3513 3234 3438 
L 3134 2916 
Q 2847 3006 2606 3047 
Q 2359 3088 2138 3088 
Q 1766 3088 1522 2944 
Q 1228 2772 1228 2522 
Q 1228 2356 1381 2241 
Q 1563 2103 1925 2103 
L 2409 2103 
L 2319 1628 
L 1856 1628 
Q 1425 1628 1172 1469 
Q 828 1253 828 916 
Q 828 703 1013 563 
Q 1244 388 1716 388 
Q 2006 388 2284 444 
Q 2563 503 2806 619 
L 2700 84 
Q 2403 -3 2131 -47 
Q 1859 -91 1609 -91 
Q 866 -91 516 194 
Q 250 413 250 781 
Q 250 1278 600 1584 
Q 859 1813 1263 1888 
z
" transform="scale(0.015625)"/>
      <path id="DejaVuSans-Oblique-3c4" d="M 2103 638 
Q 2188 488 2525 488 
L 2800 488 
L 2706 0 
L 2363 0 
Q 1800 0 1600 300 
Q 1403 606 1534 1269 
L 1856 2925 
L 541 2925 
L 653 3500 
L 3881 3500 
L 3769 2925 
L 2444 2925 
L 2113 1234 
Q 2025 781 2103 638 
z
" transform="scale(0.015625)"/>
     </defs>
     <use xlink:href="#DejaVuSans-Oblique-3b5" transform="translate(0 0.9375)"/>
     <use xlink:href="#DejaVuSans-Oblique-3c4" transform="translate(54.052734 -15.46875) scale(0.7)"/>
    </g>
   </g>
   <g id="text_11">
    <!-- Tau-core observer principle in a multiply imaged time-delay lens -->
    <g transform="translate(21.935625 29.364246) scale(0.13 -0.13)">
     <defs>
      <path id="DejaVuSans-Bold-54" d="M 31 4666 
L 4331 4666 
L 4331 3756 
L 2784 3756 
L 2784 0 
L 1581 0 
L 1581 3756 
L 31 3756 
L 31 4666 
z
" transform="scale(0.015625)"/>
      <path id="DejaVuSans-Bold-61" d="M 2106 1575 
Q 1756 1575 1579 1456 
Q 1403 1338 1403 1106 
Q 1403 894 1545 773 
Q 1688 653 1941 653 
Q 2256 653 2472 879 
Q 2688 1106 2688 1447 
L 2688 1575 
L 2106 1575 
z
M 3816 1997 
L 3816 0 
L 2688 0 
L 2688 519 
Q 2463 200 2181 54 
Q 1900 -91 1497 -91 
Q 953 -91 614 226 
Q 275 544 275 1050 
Q 275 1666 698 1953 
Q 1122 2241 2028 2241 
L 2688 2241 
L 2688 2328 
Q 2688 2594 2478 2717 
Q 2269 2841 1825 2841 
Q 1466 2841 1156 2769 
Q 847 2697 581 2553 
L 581 3406 
Q 941 3494 1303 3539 
Q 1666 3584 2028 3584 
Q 2975 3584 3395 3211 
Q 3816 2838 3816 1997 
z
" transform="scale(0.015625)"/>
      <path id="DejaVuSans-Bold-75" d="M 500 1363 
L 500 3500 
L 1625 3500 
L 1625 3150 
Q 1625 2866 1622 2436 
Q 1619 2006 1619 1863 
Q 1619 1441 1641 1255 
Q 1663 1069 1716 984 
Q 1784 875 1895 815 
Q 2006 756 2150 756 
Q 2500 756 2700 1025 
Q 2900 1294 2900 1772 
L 2900 3500 
L 4019 3500 
L 4019 0 
L 2900 0 
L 2900 506 
Q 2647 200 2364 54 
Q 2081 -91 1741 -91 
Q 1134 -91 817 281 
Q 500 653 500 1363 
z
" transform="scale(0.015625)"/>
      <path id="DejaVuSans-Bold-2d" d="M 347 2297 
L 2309 2297 
L 2309 1388 
L 347 1388 
L 347 2297 
z
" transform="scale(0.015625)"/>
      <path id="DejaVuSans-Bold-63" d="M 3366 3391 
L 3366 2478 
Q 3138 2634 2908 2709 
Q 2678 2784 2431 2784 
Q 1963 2784 1702 2511 
Q 1441 2238 1441 1747 
Q 1441 1256 1702 982 
Q 1963 709 2431 709 
Q 2694 709 2930 787 
Q 3166 866 3366 1019 
L 3366 103 
Q 3103 6 2833 -42 
Q 2563 -91 2291 -91 
Q 1344 -91 809 395 
Q 275 881 275 1747 
Q 275 2613 809 3098 
Q 1344 3584 2291 3584 
Q 2566 3584 2833 3536 
Q 3100 3488 3366 3391 
z
" transform="scale(0.015625)"/>
      <path id="DejaVuSans-Bold-6f" d="M 2203 2784 
Q 1831 2784 1636 2517 
Q 1441 2250 1441 1747 
Q 1441 1244 1636 976 
Q 1831 709 2203 709 
Q 2569 709 2762 976 
Q 2956 1244 2956 1747 
Q 2956 2250 2762 2517 
Q 2569 2784 2203 2784 
z
M 2203 3584 
Q 3106 3584 3614 3096 
Q 4122 2609 4122 1747 
Q 4122 884 3614 396 
Q 3106 -91 2203 -91 
Q 1297 -91 786 396 
Q 275 884 275 1747 
Q 275 2609 786 3096 
Q 1297 3584 2203 3584 
z
" transform="scale(0.015625)"/>
      <path id="DejaVuSans-Bold-72" d="M 3138 2547 
Q 2991 2616 2845 2648 
Q 2700 2681 2553 2681 
Q 2122 2681 1889 2404 
Q 1656 2128 1656 1613 
L 1656 0 
L 538 0 
L 538 3500 
L 1656 3500 
L 1656 2925 
Q 1872 3269 2151 3426 
Q 2431 3584 2822 3584 
Q 2878 3584 2943 3579 
Q 3009 3575 3134 3559 
L 3138 2547 
z
" transform="scale(0.015625)"/>
      <path id="DejaVuSans-Bold-65" d="M 4031 1759 
L 4031 1441 
L 1416 1441 
Q 1456 1047 1700 850 
Q 1944 653 2381 653 
Q 2734 653 3104 758 
Q 3475 863 3866 1075 
L 3866 213 
Q 3469 63 3072 -14 
Q 2675 -91 2278 -91 
Q 1328 -91 801 392 
Q 275 875 275 1747 
Q 275 2603 792 3093 
Q 1309 3584 2216 3584 
Q 3041 3584 3536 3087 
Q 4031 2591 4031 1759 
z
M 2881 2131 
Q 2881 2450 2695 2645 
Q 2509 2841 2209 2841 
Q 1884 2841 1681 2658 
Q 1478 2475 1428 2131 
L 2881 2131 
z
" transform="scale(0.015625)"/>
      <path id="DejaVuSans-Bold-20" transform="scale(0.015625)"/>
      <path id="DejaVuSans-Bold-62" d="M 2400 722 
Q 2759 722 2948 984 
Q 3138 1247 3138 1747 
Q 3138 2247 2948 2509 
Q 2759 2772 2400 2772 
Q 2041 2772 1848 2508 
Q 1656 2244 1656 1747 
Q 1656 1250 1848 986 
Q 2041 722 2400 722 
z
M 1656 2988 
Q 1888 3294 2169 3439 
Q 2450 3584 2816 3584 
Q 3463 3584 3878 3070 
Q 4294 2556 4294 1747 
Q 4294 938 3878 423 
Q 3463 -91 2816 -91 
Q 2450 -91 2169 54 
Q 1888 200 1656 506 
L 1656 0 
L 538 0 
L 538 4863 
L 1656 4863 
L 1656 2988 
z
" transform="scale(0.015625)"/>
      <path id="DejaVuSans-Bold-73" d="M 3272 3391 
L 3272 2541 
Q 2913 2691 2578 2766 
Q 2244 2841 1947 2841 
Q 1628 2841 1473 2761 
Q 1319 2681 1319 2516 
Q 1319 2381 1436 2309 
Q 1553 2238 1856 2203 
L 2053 2175 
Q 2913 2066 3209 1816 
Q 3506 1566 3506 1031 
Q 3506 472 3093 190 
Q 2681 -91 1863 -91 
Q 1516 -91 1145 -36 
Q 775 19 384 128 
L 384 978 
Q 719 816 1070 734 
Q 1422 653 1784 653 
Q 2113 653 2278 743 
Q 2444 834 2444 1013 
Q 2444 1163 2330 1236 
Q 2216 1309 1875 1350 
L 1678 1375 
Q 931 1469 631 1722 
Q 331 1975 331 2491 
Q 331 3047 712 3315 
Q 1094 3584 1881 3584 
Q 2191 3584 2531 3537 
Q 2872 3491 3272 3391 
z
" transform="scale(0.015625)"/>
      <path id="DejaVuSans-Bold-76" d="M 97 3500 
L 1216 3500 
L 2088 1081 
L 2956 3500 
L 4078 3500 
L 2700 0 
L 1472 0 
L 97 3500 
z
" transform="scale(0.015625)"/>
      <path id="DejaVuSans-Bold-70" d="M 1656 506 
L 1656 -1331 
L 538 -1331 
L 538 3500 
L 1656 3500 
L 1656 2988 
Q 1888 3294 2169 3439 
Q 2450 3584 2816 3584 
Q 3463 3584 3878 3070 
Q 4294 2556 4294 1747 
Q 4294 938 3878 423 
Q 3463 -91 2816 -91 
Q 2450 -91 2169 54 
Q 1888 200 1656 506 
z
M 2400 2772 
Q 2041 2772 1848 2508 
Q 1656 2244 1656 1747 
Q 1656 1250 1848 986 
Q 2041 722 2400 722 
Q 2759 722 2948 984 
Q 3138 1247 3138 1747 
Q 3138 2247 2948 2509 
Q 2759 2772 2400 2772 
z
" transform="scale(0.015625)"/>
      <path id="DejaVuSans-Bold-69" d="M 538 3500 
L 1656 3500 
L 1656 0 
L 538 0 
L 538 3500 
z
M 538 4863 
L 1656 4863 
L 1656 3950 
L 538 3950 
L 538 4863 
z
" transform="scale(0.015625)"/>
      <path id="DejaVuSans-Bold-6e" d="M 4056 2131 
L 4056 0 
L 2931 0 
L 2931 347 
L 2931 1631 
Q 2931 2084 2911 2256 
Q 2891 2428 2841 2509 
Q 2775 2619 2662 2680 
Q 2550 2741 2406 2741 
Q 2056 2741 1856 2470 
Q 1656 2200 1656 1722 
L 1656 0 
L 538 0 
L 538 3500 
L 1656 3500 
L 1656 2988 
Q 1909 3294 2193 3439 
Q 2478 3584 2822 3584 
Q 3428 3584 3742 3212 
Q 4056 2841 4056 2131 
z
" transform="scale(0.015625)"/>
      <path id="DejaVuSans-Bold-6c" d="M 538 4863 
L 1656 4863 
L 1656 0 
L 538 0 
L 538 4863 
z
" transform="scale(0.015625)"/>
      <path id="DejaVuSans-Bold-6d" d="M 3781 2919 
Q 3994 3244 4286 3414 
Q 4578 3584 4928 3584 
Q 5531 3584 5847 3212 
Q 6163 2841 6163 2131 
L 6163 0 
L 5038 0 
L 5038 1825 
Q 5041 1866 5042 1909 
Q 5044 1953 5044 2034 
Q 5044 2406 4934 2573 
Q 4825 2741 4581 2741 
Q 4263 2741 4089 2478 
Q 3916 2216 3909 1719 
L 3909 0 
L 2784 0 
L 2784 1825 
Q 2784 2406 2684 2573 
Q 2584 2741 2328 2741 
Q 2006 2741 1831 2477 
Q 1656 2213 1656 1722 
L 1656 0 
L 531 0 
L 531 3500 
L 1656 3500 
L 1656 2988 
Q 1863 3284 2130 3434 
Q 2397 3584 2719 3584 
Q 3081 3584 3359 3409 
Q 3638 3234 3781 2919 
z
" transform="scale(0.015625)"/>
      <path id="DejaVuSans-Bold-74" d="M 1759 4494 
L 1759 3500 
L 2913 3500 
L 2913 2700 
L 1759 2700 
L 1759 1216 
Q 1759 972 1856 886 
Q 1953 800 2241 800 
L 2816 800 
L 2816 0 
L 1856 0 
Q 1194 0 917 276 
Q 641 553 641 1216 
L 641 2700 
L 84 2700 
L 84 3500 
L 641 3500 
L 641 4494 
L 1759 4494 
z
" transform="scale(0.015625)"/>
      <path id="DejaVuSans-Bold-79" d="M 78 3500 
L 1197 3500 
L 2138 1125 
L 2938 3500 
L 4056 3500 
L 2584 -331 
Q 2363 -916 2067 -1148 
Q 1772 -1381 1288 -1381 
L 641 -1381 
L 641 -647 
L 991 -647 
Q 1275 -647 1404 -556 
Q 1534 -466 1606 -231 
L 1638 -134 
L 78 3500 
z
" transform="scale(0.015625)"/>
      <path id="DejaVuSans-Bold-67" d="M 2919 594 
Q 2688 288 2409 144 
Q 2131 0 1766 0 
Q 1125 0 706 504 
Q 288 1009 288 1791 
Q 288 2575 706 3076 
Q 1125 3578 1766 3578 
Q 2131 3578 2409 3434 
Q 2688 3291 2919 2981 
L 2919 3500 
L 4044 3500 
L 4044 353 
Q 4044 -491 3511 -936 
Q 2978 -1381 1966 -1381 
Q 1638 -1381 1331 -1331 
Q 1025 -1281 716 -1178 
L 716 -306 
Q 1009 -475 1290 -558 
Q 1572 -641 1856 -641 
Q 2406 -641 2662 -400 
Q 2919 -159 2919 353 
L 2919 594 
z
M 2181 2772 
Q 1834 2772 1640 2515 
Q 1447 2259 1447 1791 
Q 1447 1309 1634 1061 
Q 1822 813 2181 813 
Q 2531 813 2725 1069 
Q 2919 1325 2919 1791 
Q 2919 2259 2725 2515 
Q 2531 2772 2181 2772 
z
" transform="scale(0.015625)"/>
      <path id="DejaVuSans-Bold-64" d="M 2919 2988 
L 2919 4863 
L 4044 4863 
L 4044 0 
L 2919 0 
L 2919 506 
Q 2688 197 2409 53 
Q 2131 -91 1766 -91 
Q 1119 -91 703 423 
Q 288 938 288 1747 
Q 288 2556 703 3070 
Q 1119 3584 1766 3584 
Q 2128 3584 2408 3439 
Q 2688 3294 2919 2988 
z
M 2181 722 
Q 2541 722 2730 984 
Q 2919 1247 2919 1747 
Q 2919 2247 2730 2509 
Q 2541 2772 2181 2772 
Q 1825 2772 1636 2509 
Q 1447 2247 1447 1747 
Q 1447 1247 1636 984 
Q 1825 722 2181 722 
z
" transform="scale(0.015625)"/>
     </defs>
     <use xlink:href="#DejaVuSans-Bold-54"/>
     <use xlink:href="#DejaVuSans-Bold-61" transform="translate(55.337891 0)"/>
     <use xlink:href="#DejaVuSans-Bold-75" transform="translate(122.818359 0)"/>
     <use xlink:href="#DejaVuSans-Bold-2d" transform="translate(194.009766 0)"/>
     <use xlink:href="#DejaVuSans-Bold-63" transform="translate(235.513672 0)"/>
     <use xlink:href="#DejaVuSans-Bold-6f" transform="translate(294.791016 0)"/>
     <use xlink:href="#DejaVuSans-Bold-72" transform="translate(363.492188 0)"/>
     <use xlink:href="#DejaVuSans-Bold-65" transform="translate(412.808594 0)"/>
     <use xlink:href="#DejaVuSans-Bold-20" transform="translate(480.630859 0)"/>
     <use xlink:href="#DejaVuSans-Bold-6f" transform="translate(515.445312 0)"/>
     <use xlink:href="#DejaVuSans-Bold-62" transform="translate(584.146484 0)"/>
     <use xlink:href="#DejaVuSans-Bold-73" transform="translate(655.728516 0)"/>
     <use xlink:href="#DejaVuSans-Bold-65" transform="translate(715.25 0)"/>
     <use xlink:href="#DejaVuSans-Bold-72" transform="translate(783.072266 0)"/>
     <use xlink:href="#DejaVuSans-Bold-76" transform="translate(832.388672 0)"/>
     <use xlink:href="#DejaVuSans-Bold-65" transform="translate(897.574219 0)"/>
     <use xlink:href="#DejaVuSans-Bold-72" transform="translate(965.396484 0)"/>
     <use xlink:href="#DejaVuSans-Bold-20" transform="translate(1014.712891 0)"/>
     <use xlink:href="#DejaVuSans-Bold-70" transform="translate(1049.527344 0)"/>
     <use xlink:href="#DejaVuSans-Bold-72" transform="translate(1121.109375 0)"/>
     <use xlink:href="#DejaVuSans-Bold-69" transform="translate(1170.425781 0)"/>
     <use xlink:href="#DejaVuSans-Bold-6e" transform="translate(1204.703125 0)"/>
     <use xlink:href="#DejaVuSans-Bold-63" transform="translate(1275.894531 0)"/>
     <use xlink:href="#DejaVuSans-Bold-69" transform="translate(1335.171875 0)"/>
     <use xlink:href="#DejaVuSans-Bold-70" transform="translate(1369.449219 0)"/>
     <use xlink:href="#DejaVuSans-Bold-6c" transform="translate(1441.03125 0)"/>
     <use xlink:href="#DejaVuSans-Bold-65" transform="translate(1475.308594 0)"/>
     <use xlink:href="#DejaVuSans-Bold-20" transform="translate(1543.130859 0)"/>
     <use xlink:href="#DejaVuSans-Bold-69" transform="translate(1577.945312 0)"/>
     <use xlink:href="#DejaVuSans-Bold-6e" transform="translate(1612.222656 0)"/>
     <use xlink:href="#DejaVuSans-Bold-20" transform="translate(1683.414062 0)"/>
     <use xlink:href="#DejaVuSans-Bold-61" transform="translate(1718.228516 0)"/>
     <use xlink:href="#DejaVuSans-Bold-20" transform="translate(1785.708984 0)"/>
     <use xlink:href="#DejaVuSans-Bold-6d" transform="translate(1820.523438 0)"/>
     <use xlink:href="#DejaVuSans-Bold-75" transform="translate(1924.722656 0)"/>
     <use xlink:href="#DejaVuSans-Bold-6c" transform="translate(1995.914062 0)"/>
     <use xlink:href="#DejaVuSans-Bold-74" transform="translate(2030.191406 0)"/>
     <use xlink:href="#DejaVuSans-Bold-69" transform="translate(2077.994141 0)"/>
     <use xlink:href="#DejaVuSans-Bold-70" transform="translate(2112.271484 0)"/>
     <use xlink:href="#DejaVuSans-Bold-6c" transform="translate(2183.853516 0)"/>
     <use xlink:href="#DejaVuSans-Bold-79" transform="translate(2218.130859 0)"/>
     <use xlink:href="#DejaVuSans-Bold-20" transform="translate(2283.316406 0)"/>
     <use xlink:href="#DejaVuSans-Bold-69" transform="translate(2318.130859 0)"/>
     <use xlink:href="#DejaVuSans-Bold-6d" transform="translate(2352.408203 0)"/>
     <use xlink:href="#DejaVuSans-Bold-61" transform="translate(2456.607422 0)"/>
     <use xlink:href="#DejaVuSans-Bold-67" transform="translate(2524.087891 0)"/>
     <use xlink:href="#DejaVuSans-Bold-65" transform="translate(2595.669922 0)"/>
     <use xlink:href="#DejaVuSans-Bold-64" transform="translate(2663.492188 0)"/>
     <use xlink:href="#DejaVuSans-Bold-20" transform="translate(2735.074219 0)"/>
     <use xlink:href="#DejaVuSans-Bold-74" transform="translate(2769.888672 0)"/>
     <use xlink:href="#DejaVuSans-Bold-69" transform="translate(2817.691406 0)"/>
     <use xlink:href="#DejaVuSans-Bold-6d" transform="translate(2851.96875 0)"/>
     <use xlink:href="#DejaVuSans-Bold-65" transform="translate(2956.167969 0)"/>
     <use xlink:href="#DejaVuSans-Bold-2d" transform="translate(3023.990234 0)"/>
     <use xlink:href="#DejaVuSans-Bold-64" transform="translate(3065.494141 0)"/>
     <use xlink:href="#DejaVuSans-Bold-65" transform="translate(3137.076172 0)"/>
     <use xlink:href="#DejaVuSans-Bold-6c" transform="translate(3204.898438 0)"/>
     <use xlink:href="#DejaVuSans-Bold-61" transform="translate(3239.175781 0)"/>
     <use xlink:href="#DejaVuSans-Bold-79" transform="translate(3303.53125 0)"/>
     <use xlink:href="#DejaVuSans-Bold-20" transform="translate(3368.716797 0)"/>
     <use xlink:href="#DejaVuSans-Bold-6c" transform="translate(3403.53125 0)"/>
     <use xlink:href="#DejaVuSans-Bold-65" transform="translate(3437.808594 0)"/>
     <use xlink:href="#DejaVuSans-Bold-6e" transform="translate(3505.630859 0)"/>
     <use xlink:href="#DejaVuSans-Bold-73" transform="translate(3576.822266 0)"/>
    </g>
   </g>
  </g>
 </g>
 <defs>
  <clipPath id="p66225fd248">
   <rect x="7.2" y="7.2" width="502.2" height="266.112"/>
  </clipPath>
 </defs>
</svg>
